<svg width="60" height="60" viewBox="0 0 60 60" fill="none" xmlns="http://www.w3.org/2000/svg">
<path d="M47.875 46H12.125C11.3687 46 10.75 46.6188 10.75 47.375V50.125C10.75 50.8812 11.3687 51.5 12.125 51.5H47.875C48.6312 51.5 49.25 50.8812 49.25 50.125V47.375C49.25 46.6188 48.6312 46 47.875 46ZM53.375 18.5C51.0977 18.5 49.25 20.3477 49.25 22.625C49.25 23.2352 49.3875 23.8023 49.6281 24.3266L43.4062 28.0562C42.0828 28.8469 40.3727 28.4 39.6078 27.0594L32.6039 14.8047C33.5234 14.0484 34.125 12.9141 34.125 11.625C34.125 9.34766 32.2773 7.5 30 7.5C27.7227 7.5 25.875 9.34766 25.875 11.625C25.875 12.9141 26.4766 14.0484 27.3961 14.8047L20.3922 27.0594C19.6273 28.4 17.9086 28.8469 16.5937 28.0562L10.3805 24.3266C10.6125 23.8109 10.7586 23.2352 10.7586 22.625C10.7586 20.3477 8.91094 18.5 6.63359 18.5C4.35625 18.5 2.5 20.3477 2.5 22.625C2.5 24.9023 4.34766 26.75 6.625 26.75C6.84844 26.75 7.07187 26.7156 7.28672 26.6812L13.5 43.25H46.5L52.7133 26.6812C52.9281 26.7156 53.1516 26.75 53.375 26.75C55.6523 26.75 57.5 24.9023 57.5 22.625C57.5 20.3477 55.6523 18.5 53.375 18.5Z" fill="white"/>
</svg>
