<svg width="48" height="54" viewBox="0 0 48 54" fill="none" xmlns="http://www.w3.org/2000/svg">
    <g filter="url(#filter0_d_1134_12013)">
        <path fill-rule="evenodd" clip-rule="evenodd" d="M12.667 13.7564C12.667 7.6232 17.7922 2.66602 23.9916 2.66602C30.2085 2.66602 35.3337 7.6232 35.3337 13.7564C35.3337 16.8469 34.2097 19.7162 32.3597 22.1481C30.3187 24.8307 27.8032 27.168 24.9717 29.0026C24.3237 29.4266 23.7388 29.4586 23.0276 29.0026C20.18 27.168 17.6644 24.8307 15.641 22.1481C13.7896 19.7162 12.667 16.8469 12.667 13.7564ZM20.2591 14.1017C20.2591 16.1563 21.9357 17.7722 23.9914 17.7722C26.0485 17.7722 27.7412 16.1563 27.7412 14.1017C27.7412 12.063 26.0485 10.3684 23.9914 10.3684C21.9357 10.3684 20.2591 12.063 20.2591 14.1017Z" fill="url(#paint0_linear_1134_12013)"/>
    </g>
    <defs>
        <filter id="filter0_d_1134_12013" x="-4" y="0" width="56" height="56" filterUnits="userSpaceOnUse" color-interpolation-filters="sRGB">
            <feFlood flood-opacity="0" result="BackgroundImageFix"/>
            <feColorMatrix in="SourceAlpha" type="matrix" values="0 0 0 0 0 0 0 0 0 0 0 0 0 0 0 0 0 0 127 0" result="hardAlpha"/>
            <feOffset dy="12"/>
            <feGaussianBlur stdDeviation="6"/>
            <feComposite in2="hardAlpha" operator="out"/>
            <feColorMatrix type="matrix" values="0 0 0 0 1 0 0 0 0 0.596078 0 0 0 0 0.121569 0 0 0 0.12 0"/>
            <feBlend mode="normal" in2="BackgroundImageFix" result="effect1_dropShadow_1134_12013"/>
            <feBlend mode="normal" in="SourceGraphic" in2="effect1_dropShadow_1134_12013" result="shape"/>
        </filter>
        <linearGradient id="paint0_linear_1134_12013" x1="35.3337" y1="29.3327" x2="7.7692" y2="22.5394" gradientUnits="userSpaceOnUse">
            <stop stop-color="#FB9400"/>
            <stop offset="1" stop-color="#FFAB38"/>
        </linearGradient>
    </defs>
</svg>
