<svg width="52" height="52" viewBox="0 0 52 52" fill="none" xmlns="http://www.w3.org/2000/svg">
    <g filter="url(#filter0_d_1134_12030)">
        <path fill-rule="evenodd" clip-rule="evenodd" d="M36.3473 16.0013C36.3473 17.086 37.238 17.9685 38.3327 17.9685C38.8847 17.9685 39.3327 18.4124 39.3327 18.9594V22.5278C39.3327 25.5453 36.8553 28 33.81 28H18.19C15.1447 28 12.666 25.5453 12.666 22.5278V18.9594C12.666 18.4124 13.114 17.9685 13.666 17.9685C14.762 17.9685 15.6527 17.086 15.6527 16.0013C15.6527 14.9444 14.798 14.1491 13.666 14.1491C13.4007 14.1491 13.1473 14.0447 12.9593 13.8584C12.7713 13.6721 12.666 13.4198 12.666 13.1582L12.6687 9.47352C12.6687 6.45602 15.146 4 18.1913 4H33.8073C36.8527 4 39.3313 6.45602 39.3313 9.47352L39.3327 13.0433C39.3327 13.3049 39.2273 13.5585 39.0407 13.7435C38.8527 13.9298 38.5993 14.0341 38.3327 14.0341C37.238 14.0341 36.3473 14.9167 36.3473 16.0013ZM29.002 16.8642L30.574 15.3475C30.8474 15.0859 30.942 14.7001 30.8234 14.3434C30.706 13.9867 30.3994 13.7331 30.0287 13.6815L27.8567 13.3671L26.8847 11.4171C26.718 11.0815 26.3794 10.8728 26.002 10.8714H25.9994C25.6234 10.8714 25.2847 11.0802 25.1154 11.4158L24.1434 13.3671L21.9754 13.6802C21.6007 13.7331 21.294 13.9867 21.1754 14.3434C21.058 14.7001 21.1527 15.0859 21.4247 15.3475L22.9967 16.8642L22.626 19.0084C22.562 19.3783 22.7127 19.7456 23.0194 19.9662C23.1927 20.0891 23.394 20.1525 23.598 20.1525C23.754 20.1525 23.9114 20.1142 24.0554 20.0389L25.9994 19.0269L27.9394 20.0363C28.2754 20.2146 28.674 20.1869 28.9794 19.9649C29.2874 19.7456 29.438 19.3783 29.374 19.0084L29.002 16.8642Z" fill="url(#paint0_linear_1134_12030)"/>
    </g>
    <defs>
        <filter id="filter0_d_1134_12030" x="-2" y="0" width="56" height="56" filterUnits="userSpaceOnUse" color-interpolation-filters="sRGB">
            <feFlood flood-opacity="0" result="BackgroundImageFix"/>
            <feColorMatrix in="SourceAlpha" type="matrix" values="0 0 0 0 0 0 0 0 0 0 0 0 0 0 0 0 0 0 127 0" result="hardAlpha"/>
            <feOffset dy="12"/>
            <feGaussianBlur stdDeviation="6"/>
            <feComposite in2="hardAlpha" operator="out"/>
            <feColorMatrix type="matrix" values="0 0 0 0 1 0 0 0 0 0.596078 0 0 0 0 0.121569 0 0 0 0.12 0"/>
            <feBlend mode="normal" in2="BackgroundImageFix" result="effect1_dropShadow_1134_12030"/>
            <feBlend mode="normal" in="SourceGraphic" in2="effect1_dropShadow_1134_12030" result="shape"/>
        </filter>
        <linearGradient id="paint0_linear_1134_12030" x1="39.3327" y1="28" x2="8.16862" y2="17.9603" gradientUnits="userSpaceOnUse">
            <stop stop-color="#FB9400"/>
            <stop offset="1" stop-color="#FFAB38"/>
        </linearGradient>
    </defs>
</svg>
