<svg width="428" height="397" viewBox="0 0 428 397" fill="none" xmlns="http://www.w3.org/2000/svg">
<g opacity="0.04">
<path fill-rule="evenodd" clip-rule="evenodd" d="M-175.919 119.585C-171.298 117.068 -166.531 114.83 -161.484 113.128C-160.912 112.933 -160.219 112.653 -159.708 112.246C-159.222 111.863 -158.881 111.364 -158.942 110.708C-159.027 109.698 -159.842 109.619 -160.669 109.54C-161.131 109.498 -161.605 109.449 -161.958 109.242L-165.594 107.151C-168.452 105.527 -171.31 103.904 -173.997 102.025C-178.716 98.7232 -178.497 95.9809 -173.632 93.0197C-172.951 92.6002 -172.173 92.3144 -171.395 92.0286C-170.994 91.8827 -170.592 91.7307 -170.203 91.5604C-168.902 90.9949 -166.239 91.3841 -166.762 89.4505C-167.053 88.3378 -168.136 88.6479 -169.267 88.9702L-170.13 89.1952C-170.422 89.256 -170.702 89.2924 -170.957 89.2742C-172.185 89.2073 -173.511 89.2742 -174.617 88.8425C-175.639 88.4412 -176.6 87.8696 -177.293 87.1217C-178.047 86.2948 -178.472 85.249 -178.266 83.9721C-177.974 82.1479 -176.904 81.3149 -175.542 80.9319C-174.593 80.6643 -173.511 80.6157 -172.453 80.6035C-171.298 80.5914 -169.656 81.9412 -169.145 80.5002C-168.671 79.1625 -170.629 78.9497 -171.626 78.3112C-179.032 73.5016 -179.008 72.322 -171.541 67.9927C-170.884 67.6097 -170.252 67.2023 -169.619 66.7949L-169.546 66.7402C-168.367 65.9862 -167.187 65.2322 -165.91 64.6728C-160.268 62.1799 -154.978 60.6719 -148.326 63.0129C-143.936 64.5573 -139.193 65.1046 -134.438 65.6518C-131.41 66.0045 -128.37 66.3571 -125.415 66.9652C-115.99 68.9109 -107.04 68.9535 -97.4205 66.5091C-95.11 65.9193 -92.7629 65.591 -90.3916 65.4755C-89.1025 65.4146 -87.8135 65.4146 -86.5123 65.4694C-82.7059 65.6457 -78.8753 66.3024 -75.0933 67.2935C-73.0502 67.8286 -71.0194 68.4609 -69.0128 69.1663C-67.9062 69.5554 -66.4712 70.5404 -65.6078 69.2514C-64.8295 68.0779 -65.7902 66.8131 -66.8361 66.1078C-68.3926 65.0559 -69.8276 64.1742 -70.2289 61.9914C-70.6789 59.5227 -72.1382 58.9755 -74.0353 61.0185C-76.2972 63.4507 -79.009 63.402 -81.7817 62.1981C-84.6152 60.9638 -86.792 59.1518 -84.8219 55.7286L-84.4571 55.1084C-83.4842 53.4302 -82.5357 51.8067 -82.6573 49.7029C-82.8397 46.383 -79.9454 45.6533 -78.2916 46.7174C-75.7986 48.3165 -73.0138 48.7482 -70.1925 49.186C-66.9942 49.6846 -63.7715 50.1893 -60.9016 52.4086C-56.4507 55.8441 -50.3217 56.8534 -44.4601 53.2781C-42.8914 52.3174 -41.274 51.7094 -40.0701 51.9405C-38.6837 52.208 -37.8447 53.5882 -38.246 56.8413C-38.5378 59.2066 -37.7352 61.7846 -35.9962 62.7089C-31.1927 65.2505 -27.1553 67.2084 -34.0018 72.1822C-35.4247 73.228 -34.3667 75.192 -32.579 75.6966C-30.4509 76.2986 -27.3985 76.7181 -27.1553 74.0063C-27.0337 72.6807 -26.7783 71.6106 -26.3405 70.6803C-25.7203 69.373 -24.7353 68.3454 -23.2881 67.2753C-19.2507 64.2837 -19.9317 62.4596 -25.1244 62.4048C-27.2404 62.3805 -28.6632 61.2739 -29.9523 59.9544C-31.2292 58.6411 -32.3844 57.1149 -33.9653 56.2454C-30.2685 55.5765 -28.8092 51.1378 -24.8204 50.8642C-22.6558 50.7183 -20.5033 50.244 -18.3387 49.8914C-15.2742 49.3867 -13.1582 47.8544 -12.7082 44.5528C-12.4772 42.8746 -12.5988 41.3301 -14.581 40.941L-15.3836 40.7525L-16.0038 40.5822C-18.2536 39.9681 -20.3209 39.4026 -22.4247 42.7834C-24.5285 46.1641 -27.8484 45.9087 -31.2413 45.6472C-33.637 45.4587 -36.0692 45.2702 -38.1243 46.3647L-39.4134 42.9536C-43.9737 48.201 -55.4049 51.3203 -61.0962 47.9395C-63.3337 46.614 -65.5957 45.5803 -67.9184 44.7473C-70.4843 43.8353 -73.1232 43.1664 -75.8472 42.6192C-78.2429 42.1388 -79.0942 41.3545 -78.7902 40.2357C-78.6077 39.5425 -77.9754 38.7156 -76.9782 37.7488C-70.9829 31.942 -67.9305 32.2338 -60.8651 37.6393C-58.2262 39.6641 -53.9699 46.1458 -50.4798 37.5968C-49.592 35.4017 -47.3423 35.7909 -45.8829 37.4143C-44.1196 39.3966 -42.1739 40.6978 -39.4256 40.4667C-39.158 39.0682 -39.4377 37.7305 -39.7174 36.3685L-39.7539 36.1679C-39.9485 35.2376 -40.1309 34.289 -40.1552 33.304C-40.1674 32.3858 -40.0214 31.4312 -39.5836 30.428C-36.8839 24.1773 -36.2029 23.5388 -30.7549 26.9925C-29.1253 28.0262 -27.0458 29.1875 -27.6782 31.188C-28.2498 32.9878 -29.4658 32.5439 -30.7063 32.1001C-31.3021 31.8873 -31.898 31.6684 -32.4209 31.7048C-34.4275 31.8386 -36.361 32.021 -36.3853 34.5383C-36.4097 37.0191 -34.5734 37.463 -32.506 37.4508L-31.1562 37.4691L-29.8428 37.5056C-28.5416 37.5542 -27.2404 37.6028 -25.9514 37.536C-21.9383 37.3231 -19.5912 35.9611 -22.8139 31.8021C-24.2245 29.9902 -26.0243 27.9897 -23.7138 26.1656C-21.3059 24.2624 -19.6277 27.029 -18.4603 28.5005C-18.1198 28.9261 -17.5482 29.224 -16.9523 29.5341C-15.8822 30.0996 -14.7512 30.6833 -14.885 32.0757C-14.9337 32.5926 -15.1525 33.2249 -15.6268 34.0093C-16.3565 35.2376 -12.4772 36.0706 -10.4949 36.5631C-9.5464 36.7941 -8.62219 36.2165 -8.37897 35.1585C-7.90469 33.0121 -8.92621 31.5832 -10.7625 30.6104C-11.0422 30.4584 -11.3219 30.2881 -11.5894 30.0996C-23.1665 21.587 -23.0328 18.9177 -10.5922 11.603C-9.47345 10.9402 -8.306 10.3687 -7.10208 9.8944C-5.99545 9.45661 -4.85233 9.09786 -3.68489 8.82424C3.07652 7.21293 9.92308 6.20967 16.7939 5.40097C22.8622 4.68348 28.9548 4.11192 35.0109 3.40051C40.4103 2.76815 46.138 4.6166 51.6712 5.55906C53.775 5.91781 57.4476 6.78731 57.5084 7.60816C57.6543 9.99168 54.3466 9.90656 52.863 11.4267C52.6684 11.6273 52.4373 11.8158 52.2063 12.0043C51.428 12.6245 50.6497 13.2447 51.2942 14.3635C51.8293 15.2999 52.7413 15.7316 53.5926 15.7134C54.2493 15.6951 54.8695 15.4093 55.2708 14.8743C60.7067 7.596 68.2829 9.43837 75.7375 8.97625C81.8057 8.59927 87.9348 7.79665 94.1611 5.65635C101.032 3.29107 109.216 2.60398 116.926 1.98986C117.534 1.94122 118.215 2.05066 118.884 2.15403C119.906 2.3182 120.891 2.47021 121.547 2.05674C124.235 0.348147 126.801 -0.138286 129.294 0.0319656C132.115 0.220458 134.851 1.24805 137.587 2.27564C140.81 3.48564 144.033 4.69564 147.389 4.53147C148.423 4.48283 149.225 5.35841 148.885 6.39816C148.642 7.17645 147.839 8.29525 147.207 8.34997C142.853 8.70264 138.475 8.79992 134.109 9.03098C133.732 9.04922 133.355 9.1161 132.978 9.20123L132.237 9.37756L131.434 9.55997C131.957 11.0862 133.319 10.5632 134.304 10.5632C137.612 10.5572 140.919 10.7153 144.227 10.8794C150.235 11.1713 156.254 11.4631 162.286 10.7396C164.548 10.466 167.844 10.1437 168.294 13.5548C168.573 15.683 166.846 16.4491 165.193 17.1787L165.047 17.2517C164.657 17.4219 164.268 17.5861 163.928 17.7746L162.724 18.4313C156.412 21.8546 150.101 25.2657 154.917 34.6782C155.549 35.9246 153.895 37.0799 153.919 38.0528C154.065 43.1421 151.512 47.5747 149.712 52.2019C149.165 53.6004 148.69 55.0171 148.386 56.4764C147.985 58.3735 147.863 60.3375 148.24 62.4292C148.69 64.9586 147.109 67.5975 144.531 68.3941C138.913 70.127 134.535 75.0825 128.114 74.6812C127.506 74.6447 126.764 74.6873 126.29 75.0095C124.004 76.5722 121.523 77.9342 119.042 79.2962C111.575 83.4005 104.097 87.5048 101.786 97.2395C100.619 102.165 97.7364 102.779 93.3342 101.52C86.366 99.5319 82.9245 94.2297 79.4222 88.5081C75.7983 82.5797 74.2295 77.2107 79.7749 71.641C80.1519 71.264 80.3586 70.8445 80.3708 70.4006C80.3829 69.8169 80.0667 69.1906 79.3736 68.5521C76.6009 65.9619 71.7122 57.4736 70.9704 54.6523C68.7207 45.9938 60.0986 38.9284 51.5618 41.2085C44.9098 42.984 41.2615 40.3938 38.0267 36.9644C36.6769 35.5294 35.3878 33.9424 33.9893 32.4771C33.1867 31.6319 33.0043 30.8901 33.1989 30.2577C33.4786 29.37 34.4758 28.6768 35.4973 28.1721C36.5431 27.6431 37.6862 27.3391 38.8294 27.0351C40.3859 26.6216 41.9425 26.2021 43.3289 25.211C45.2868 23.8125 45.4205 22.6207 44.4233 20.5655C43.9612 19.6048 43.4505 19.2218 42.9032 19.1427C42.2101 19.0393 41.4561 19.4163 40.6535 19.7325C35.7527 21.6904 31.168 23.9098 27.6414 27.333C25.0633 29.8382 23.0446 32.9878 21.865 37.1529C20.9286 40.4606 18.314 43.1603 17.4628 46.9484C16.721 50.2136 12.2579 49.4657 9.25423 49.9582C8.15976 50.1346 6.2505 49.0948 6.15321 50.6149C6.10457 51.302 6.93152 51.375 7.8071 51.4479C8.36649 51.4966 8.95021 51.5452 9.33936 51.7702C12.4769 53.57 15.967 54.026 19.4815 54.4881C23.5432 55.0171 27.6292 55.5522 31.2532 58.1729C36.6283 62.0704 42.964 64.1074 45.5786 71.4282C46.8555 75.0035 51.805 76.2925 55.5262 77.8613L56.1707 78.1166C57.8124 78.749 59.5636 79.4239 57.8975 81.4061C56.4017 83.1695 55.6964 87.4014 51.7198 85.2976C50.8321 84.8294 50.0903 84.0815 49.3485 83.3336C48.9715 82.9506 48.5945 82.5675 48.1932 82.2209C47.5 81.6311 46.5758 80.8407 45.8097 81.5095C44.9584 82.2452 45.7854 83.1634 46.3691 83.8322C46.6974 84.2031 47.0501 84.5558 47.4027 84.9085L47.95 85.4557C48.3026 85.8084 48.6431 86.1732 48.935 86.5684C50.2727 88.3925 53.775 90.1072 51.0267 92.6184L50.4065 93.2082C49.3971 94.175 48.2662 95.2695 46.965 95.8958C45.7489 96.4795 44.399 96.6558 42.8668 95.9383C41.2858 95.1965 39.7414 94.3513 38.197 93.5062C33.0165 90.6727 27.8603 87.8575 21.3664 89.0067C21.0989 89.0553 20.8313 88.9641 20.5881 88.7878C20.3084 88.5871 20.0774 88.2709 19.9314 87.9061C19.822 87.6446 19.7612 87.3589 19.7612 87.0731C19.749 85.93 20.5516 85.4618 21.5732 85.3827C23.1297 85.255 24.7714 85.4861 26.2307 85.0544C30.2195 83.8626 32.676 78.9314 31.2532 75.3744C30.4019 73.2462 27.3252 70.9417 23.908 69.2757C21.6583 68.1873 19.2504 67.3725 17.2317 67.0685C16.3562 66.9408 15.5535 66.9044 14.8604 66.9834C11.504 67.3725 13.6929 68.692 13.4619 70.1209C12.8174 74.1461 16.0278 80.5184 7.46658 80.8589C4.42638 80.9866 6.83423 83.4917 8.06247 84.6227C8.87724 85.3827 10.1055 85.9056 11.2972 86.4164C12.2579 86.8299 13.1943 87.2312 13.8754 87.7358C14.6415 88.3074 15.0914 89.0127 14.8847 90.016C14.301 92.8799 9.2299 88.7148 6.65181 91.6334C5.58167 92.8495 3.58728 92.9711 2.29823 91.9313C-1.93373 88.4716 -4.75504 90.9646 -7.4669 93.3542C-7.9655 93.7919 -8.4641 94.2297 -8.96269 94.625C-18.4968 102.183 -18.1076 106.36 -7.02911 111.699C-6.1657 112.112 -5.3266 112.599 -4.4875 113.085C-2.88228 114.015 -1.2892 114.946 0.46196 115.371C7.44226 117.074 13.4011 119.676 15.1522 127.666C15.4563 129.071 17.1953 131.618 19.2991 129.648C20.4543 128.566 20.4665 126.754 19.5666 125.447C18.0587 123.245 17.5479 121.446 18.1681 119.932C18.6667 118.691 19.9314 117.639 22.0474 116.715C24.1391 115.797 23.4946 113.389 22.619 111.711C21.4515 109.492 21.5002 107.181 21.5367 104.87C21.5488 104.086 21.561 103.302 21.5245 102.517C21.1597 94.6006 25.5984 91.7064 32.7246 95.4641C35.4365 96.893 38.5618 98.5712 40.0698 101.015C42.6235 105.114 44.6179 107.242 49.5552 104.183C52.7535 102.195 55.0276 105.247 56.0734 107.728C58.2137 112.884 62.0444 116.289 66.0331 119.834L66.1061 119.889L66.6898 120.4L67.5776 121.16L68.2342 121.689C71.2501 124.109 74.5214 126.736 71.9554 131.922C70.9826 133.892 73.1837 134.33 74.3998 135.145C76.4914 136.562 78.4615 138.13 78.9236 140.836C79.0452 141.517 78.8628 142.478 78.6439 143.189C78.4615 143.785 78.2548 144.211 78.1818 144.156C76.2117 142.63 74.0228 142.812 71.8825 142.989C70.2773 143.122 68.6964 143.25 67.2492 142.672C64.9751 141.754 64.8414 139.34 65.7048 136.975C66.3736 135.121 66.2034 134.239 65.5102 133.911C64.8535 133.6 63.7226 133.789 62.4092 134.117C60.6094 134.561 58.6393 134.847 56.8274 134.573C53.9818 134.148 52.4495 134.324 51.7928 135.096C50.9415 136.087 51.5496 138.063 52.6684 140.988C53.4953 143.147 54.3223 144.211 55.3073 144.545C56.4261 144.922 57.7516 144.363 59.4906 143.384C59.8433 143.189 60.1959 143.049 60.5364 142.97C61.7039 142.691 62.7862 143.122 63.3456 144.515C63.5766 145.092 63.601 145.7 63.4915 146.266C63.2726 147.366 62.5308 148.285 61.6674 148.418C60.9013 148.546 60.1595 148.795 59.4298 149.112C58.5907 149.476 57.7759 149.92 56.949 150.37C53.9088 152.03 50.8686 153.696 47.0136 150.954C45.2746 149.714 42.3438 150.656 42.0398 152.042C41.1034 156.432 37.9659 158.244 34.7798 160.075C33.9772 160.543 33.1746 161.011 32.3963 161.522C31.6788 162.002 31.1437 162.975 30.8275 163.832C29.6479 167.037 28.2373 170.046 26.5104 172.837C24.1512 176.662 21.1718 180.079 17.3169 183.028C16.7696 183.442 16.3075 183.91 15.9305 184.414C15.5292 184.943 15.213 185.521 15.0063 186.123C14.1794 188.513 14.8482 191.358 17.1831 193.857C18.8978 195.688 19.372 198.211 17.0736 199.53C14.7996 200.832 14.4834 197.56 13.1092 196.551C11.6499 195.469 10.4217 193.906 9.49745 192.319C6.77342 187.631 2.57794 187.132 -1.87292 188.561C-4.60912 189.431 -7.23586 190.094 -10.0815 190.094H-10.5922C-15.9795 190.094 -20.6371 190.087 -19.3845 198.582C-19.2143 199.737 -19.6885 200.941 -20.1871 202.206C-21.087 204.51 -22.0599 206.997 -19.2994 209.691C-16.1862 212.731 -13.3649 214.172 -9.43697 211.722C-8.11143 210.895 -6.88319 209.922 -5.53334 209.119C-3.5876 207.952 -1.15544 207.058 0.70517 208.207C2.91844 209.581 1.73885 211.229 0.753815 212.615C0.46196 213.017 0.182251 213.4 0.0120087 213.746C-1.17976 216.166 -1.67836 218.015 -1.14328 219.267C-0.583878 220.581 1.09431 221.237 4.2683 221.207C7.5882 221.183 9.43665 223.402 9.52177 226.661C9.53394 227.287 9.48529 227.95 9.43665 228.613C9.26639 231.179 9.09615 233.793 12.1971 234.736C16.271 235.964 21.4394 236.378 24.6255 233.842C31.4599 228.37 38.2092 229.531 45.5665 231.836C47.5365 232.456 49.5917 232.748 51.659 232.881C63.601 233.672 70.1678 244.939 81.1247 247.602C83.6299 256.261 90.4399 258.225 97.25 260.189C100.606 261.155 103.963 262.128 106.796 263.898C107.903 264.585 109.155 265.108 110.432 265.643C111.746 266.19 113.083 266.743 114.299 267.491C117.413 269.413 119.006 271.699 118.665 274.301C118.495 275.584 117.863 276.946 116.707 278.375C113.777 281.963 112.658 286.061 111.502 290.274L110.761 292.889C108.292 301.31 106.772 311.033 94.6719 311.799C91.4128 312.006 89.7103 315.076 88.7495 318.354C84.8824 331.506 83.4839 332.892 69.2679 338.377C68.8058 338.553 68.4896 338.735 68.295 338.96C68.0275 339.27 68.0032 339.666 68.2099 340.255C70.4475 346.5 66.1669 348.203 61.6309 348.628C57.3989 349.023 57.1922 352.544 55.5018 354.83C54.3587 356.399 53.544 358.187 52.7292 359.974C51.4037 362.887 50.066 365.811 47.2811 367.836C47.0014 368.043 47.3176 369.849 47.8527 370.262C49.1296 371.247 49.6039 372.08 49.5674 372.895C49.5187 373.88 48.7526 374.847 47.804 376.051L47.6216 376.264C44.472 380.222 42.964 382.265 42.9884 384.393C43.0005 385.719 43.6086 387.081 44.7882 388.96C45.2138 389.634 45.7124 390.376 46.2718 391.203L47.1109 392.438C47.2811 392.693 47.4879 392.936 47.6824 393.167C48.4851 394.098 49.1417 394.864 46.9285 395.605C42.8424 396.98 38.8902 396.566 35.6919 394.693C33.0286 393.137 30.8883 390.577 29.5993 387.202C27.386 381.396 27.2523 375.048 28.7967 369.624C32.0193 358.29 31.5572 346.506 34.2934 335.014C36.385 326.216 38.0754 316.426 38.2213 306.844C38.3064 300.854 35.9229 296.239 31.168 293.43C25.9146 290.323 22.9716 285.957 20.9894 280.521C20.7584 279.883 20.4422 279.275 20.1138 278.673L19.749 278.028C19.4328 277.487 19.1167 276.946 18.8491 276.387C18.2897 275.201 17.1953 274.271 16.0886 273.34C13.7537 271.364 11.4067 269.37 14.1307 264.919C14.9698 263.539 15.3468 261.915 15.7238 260.274C16.0157 258.997 16.3075 257.708 16.8304 256.516C17.3533 255.306 18.1073 254.199 19.3356 253.306C21.9015 251.421 22.0231 248.684 22.169 245.772C22.3393 242.659 21.5853 241.376 18.156 241.041C11.9661 240.439 5.48438 239.771 3.9521 231.684C3.75754 230.656 2.96709 230.163 2.05502 229.878C1.58075 229.726 1.06999 229.628 0.595718 229.543L0.121445 229.452C-1.8486 229.057 -3.69705 228.406 -5.52118 227.664C-6.45757 227.287 -7.38177 226.886 -8.31816 226.485C-12.2096 224.807 -16.1741 223.092 -21.0506 222.916C-24.5164 222.788 -28.5781 221.852 -32.2385 219.809C-35.9719 217.723 -39.2796 214.476 -41.0794 209.752C-42.6482 205.629 -44.4115 202.631 -50.9175 203.945C-56.2318 205.021 -59.6855 198.333 -61.4975 193.48C-62.8716 189.771 -64.5377 186.482 -66.6536 183.484C-68.8548 180.371 -71.518 177.568 -74.8257 174.917C-77.8538 172.491 -79.9454 169.39 -81.3196 165.93C-83.1316 161.37 -83.7153 156.183 -83.6058 151.076L-83.5815 150.206C-83.4599 144.399 -83.3383 138.976 -89.6255 135.789C-90.0511 135.57 -90.3916 135.315 -90.6834 135.011C-90.9875 134.689 -91.2185 134.312 -91.4009 133.868C-91.6077 133.363 -91.7293 132.78 -91.8022 132.099C-92.5684 124.814 -93.1643 124.407 -100.899 123.793C-102.723 123.647 -103.16 122.485 -103.623 121.263C-103.793 120.813 -103.963 120.357 -104.206 119.938C-109.837 110.471 -116.987 103.466 -128.929 102.171C-131.702 101.873 -133.781 102.682 -135.837 103.478L-136.931 103.892C-137.709 104.183 -138.512 104.439 -139.363 104.603C-140.154 104.755 -140.981 104.798 -141.771 104.834C-144.605 104.974 -146.866 105.083 -144.982 110.416C-144.276 112.428 -147.426 115.481 -150.004 114.648C-154.722 113.122 -156.972 115.645 -159.392 118.643L-159.647 118.959C-160.158 119.646 -160.803 120.467 -161.399 120.485C-165.801 120.655 -169.802 122.236 -173.803 123.817C-177.585 125.307 -181.355 126.796 -185.453 127.1L-186 125.477C-182.68 123.44 -179.336 121.44 -175.919 119.585ZM-9.37616 55.8015L-9.85043 55.911C-10.8233 56.1724 -11.7232 56.5859 -12.4164 57.425C-13.6324 58.8782 -13.1703 60.4044 -12.161 61.6205C-10.5558 63.548 -9.1451 65.7004 -7.45474 67.5367C-6.3846 68.6981 -5.19283 69.7317 -3.75786 70.4979C-2.83363 70.9965 -1.79996 71.3795 -0.632523 71.6167C-0.182571 71.7079 -0.133926 72.3098 -0.0852814 72.9665C-0.0244751 73.9455 0.0484772 75.0339 1.50778 74.6751C2.34688 74.4684 3.2103 73.5138 3.79402 72.4983L4.12236 71.8781L4.34126 71.2822C4.88849 69.5493 3.31975 68.3393 1.84828 67.9806C-3.18629 66.7341 -4.96178 63.171 -5.50902 58.5073C-5.69142 56.9142 -6.17786 55.4306 -8.29384 55.5887L-9.37616 55.8015Z" fill="url(#paint0_linear_1129_19997)"/>
<path fill-rule="evenodd" clip-rule="evenodd" d="M422.88 23.8976C425.167 24.3658 427.416 24.7184 429.301 25.5697C431.794 26.7007 433.655 28.7133 434.141 33.0365C434.567 36.8975 439.784 37.2927 443.639 37.3961C450.534 37.5846 452.346 38.7034 451.933 44.8568C451.604 49.8306 453.21 51.302 457.855 51.7094C459.229 51.831 460.591 52.0134 461.941 52.1958C466.586 52.8221 471.159 53.4362 476.157 51.5209C481.946 49.2894 485.265 52.2323 488.014 59.2126C488.281 59.8997 488.61 60.7023 489.06 61.2496C489.57 61.8698 490.239 62.1677 491.163 61.5962C499.044 56.7379 508.444 60.526 516.884 56.2332C519.644 54.8287 522.988 54.4334 526.345 55.0415C529.798 55.6617 533.252 57.3399 536.098 60.0821C537.764 61.6813 539.624 62.7697 541.582 62.8487C542.823 62.8974 544.112 62.5386 545.425 61.6509C549 59.2187 551.968 61.4563 553.804 63.3534C559.653 69.3669 566.257 67.5793 572.969 66.3024C573.565 66.1869 574.149 66.0045 574.733 65.822L575.62 65.5545C579.269 64.5087 575.851 72.8753 579.938 69.3122C582.102 67.4212 583.61 67.026 586.067 66.728C597.218 65.3721 605.451 71.7018 614 77.3079L609.914 86.9211L609.014 86.7143C607.798 86.459 606.63 85.249 605.67 84.2639C605.183 83.7653 604.758 83.3215 604.405 83.0904C604.077 82.8715 603.821 82.8411 603.639 83.1208C602.131 85.5165 599.091 87.5717 599.48 90.922C599.991 95.2269 597.863 96.2423 594.056 96.4248C590.663 96.5829 587.198 97.1848 584.571 99.8663C582.43 102.055 579.889 102.098 576.849 101.982C569.017 101.678 564.785 105.406 563.812 113.353C563.156 118.643 559.726 121.731 556.297 124.814C554.436 126.486 552.576 128.158 551.165 130.171C550.691 130.852 550.229 130.962 549.803 130.767C549.158 130.469 548.587 129.454 548.161 128.681L547.991 128.389C544.793 122.723 546.775 117.457 549.633 112.489C550.508 110.957 551.724 109.625 552.953 108.294C553.646 107.534 554.339 106.774 554.971 105.971C555.287 105.582 555.737 105.229 556.2 104.877C557.306 104.031 558.437 103.168 557.537 101.696C556.431 99.8541 553.865 99.3555 551.651 99.4102C548.879 99.4832 547.006 101.386 545.729 103.539C543.552 107.217 540.986 106.768 537.253 106.093L537.034 106.056C526.989 104.256 516.58 103.198 509.587 113.286C508.93 114.228 507.787 114.885 506.669 115.536C504.613 116.721 502.619 117.876 503.75 120.68C504.504 122.546 505.975 122.996 507.678 123.033C508.359 123.045 509.076 122.996 509.806 122.948C511.217 122.844 512.664 122.741 513.892 123.118C515.23 123.531 516.823 123.483 518.039 123.847C519.121 124.17 519.912 124.826 519.96 126.432C519.997 127.587 520.386 128.779 520.787 129.976C521.651 132.609 522.514 135.26 519.644 137.51L519.097 137.93C518.039 138.726 517.151 139.395 517.005 140.879C516.92 141.754 516.944 143.074 515.874 143.074C515.035 143.068 514.974 142.162 514.914 141.377L514.877 140.927C514.841 140.672 514.828 140.41 514.816 140.149V139.948L514.804 139.31L514.78 139.048C514.743 138.775 514.743 138.495 514.755 138.209L514.792 137.37C514.853 136.148 514.926 134.926 513.989 133.85C513.88 134.263 513.783 134.689 513.697 135.121C513.418 136.507 513.162 137.918 512.53 139.115C508.541 146.613 504.297 153.696 494.994 155.952C486.469 158.019 485.63 159.764 487.673 168.374C487.892 169.299 488.05 170.186 488.075 171.001C488.135 172.953 487.442 174.516 485.071 175.294C482.213 176.242 481.094 174.017 480.085 172.047L479.684 171.256C479.197 170.344 478.82 169.341 478.541 168.313C478.334 167.523 478.176 166.714 478.054 165.918C477.908 164.988 477.641 164.349 477.264 163.948C476.546 163.2 475.44 163.273 474.078 163.771C472.448 164.367 470.733 166.386 469.25 163.99C468.678 163.072 468.228 162.324 467.681 162.203C467.243 162.105 466.757 162.403 466.1 163.321L465.151 164.604C464.483 165.523 463.887 166.483 464.008 167.298C464.373 169.925 466.331 167.797 467.596 167.918C469.931 168.149 472.168 168.411 472.205 169.706C472.217 170.423 471.56 171.457 469.87 172.977C468.788 173.95 468.411 175.075 468.362 176.273C468.325 177.331 468.556 178.45 468.775 179.574L468.848 179.976C471.378 192.884 465.845 202.425 453.586 206.803C452.906 207.046 452.188 207.228 451.471 207.411C448.953 208.037 446.412 208.675 445.39 212.026C445.123 212.877 444.819 213.442 444.49 213.734C443.761 214.385 442.909 213.686 442.058 211.788C441.134 209.685 439.906 209.758 438.714 210.384C438.215 210.651 437.717 211.016 437.242 211.363L436.707 211.752C434.458 213.327 434.421 215.303 436.513 217.2L437.498 218.063L437.607 218.155C438.191 218.659 438.762 219.158 439.298 219.711C441.888 222.393 442.946 225.542 442.642 228.504C442.459 230.346 441.742 232.115 440.538 233.654C439.261 235.295 437.413 236.682 435.078 237.612C433.254 238.342 432.706 237.436 432.062 236.384C431.928 236.165 431.794 235.94 431.636 235.721C429.216 232.292 425.045 228.242 421.944 231.051C419.719 233.064 420.035 235.289 421.312 237.393C422.321 239.077 423.951 240.676 425.361 242.026C427.696 244.27 430.457 246.97 429.861 249.882C429.216 253.02 430.189 255.58 431.442 258.024L432.269 259.574C433.448 261.776 434.628 263.971 434.786 266.506C434.956 269.169 437.51 269.571 439.65 270.16C445.913 271.893 451.738 275.481 458.658 274.405C459.849 274.216 461.588 274.696 461.673 275.973C461.783 277.414 460.615 277.384 459.582 277.36C459.314 277.354 459.047 277.347 458.816 277.366C450.923 278.077 442.849 276.746 435.747 274.478C430.286 272.726 425.653 266.433 422.102 261.186C419.147 256.808 415.9 252.637 412.41 248.684C412.191 248.441 411.936 248.222 411.68 248.003L411.571 247.912C410.634 247.128 409.759 246.386 410.707 245.06C412.094 243.09 414.137 243.863 415.584 245.14C417.688 246.994 419.524 249.147 421.494 251.147C422.151 251.81 423.087 252.533 423.878 251.864C424.802 251.086 423.805 250.235 423.318 249.554C418.186 242.373 416.265 234.402 416.97 225.615C417.226 222.344 416.691 219.061 411.838 220.113C408.798 220.769 408.032 218.836 407.266 216.945C406.986 216.233 406.707 215.528 406.305 214.969C400.213 206.346 397.951 206.128 390.131 213.114C388.332 214.719 386.361 216.136 384.391 217.528C381.035 219.912 378.895 222.867 378.031 226.205C377.387 228.698 377.435 231.398 378.214 234.231C378.493 235.247 378.858 236.28 379.32 237.326C380.038 238.944 381.777 240.737 379.855 242.373C379.199 242.932 378.579 243.024 377.983 242.884C376.949 242.653 375.964 241.759 374.894 241.394C367.087 238.731 364.144 232.231 363.073 225.232C361.906 217.583 357.358 212.305 352.798 207.021C351.156 205.106 349.514 203.191 348.031 201.16C347.435 200.345 346.705 199.798 345.902 199.433C344.784 198.922 343.507 198.77 342.193 198.752L339.895 198.679C337.84 198.6 335.785 198.521 333.742 198.722C332.671 198.825 331.638 198.77 330.604 198.624C329.972 198.539 329.352 198.418 328.731 198.284C327.637 198.047 326.725 198.454 326.153 199.135C325.265 200.193 325.193 201.92 326.579 202.96L327.771 203.823C328.476 204.334 329.181 204.845 329.826 205.416C331.115 206.559 330.531 207.38 329.899 208.256C329.656 208.596 329.4 208.949 329.254 209.332C326.457 216.58 320.121 219.273 313.944 221.906L313.433 222.125C312.484 222.533 311.548 222.934 310.612 223.359C306.185 225.396 301.99 228.473 296.809 228.777C295.848 228.832 294.888 229.337 294.888 230.437C294.888 230.778 294.949 231.076 295.058 231.337C295.119 231.483 295.192 231.617 295.277 231.738C295.727 232.352 296.505 232.675 297.308 232.748C299.266 232.924 301.09 232.328 302.914 231.738C304.033 231.373 305.164 231.009 306.319 230.82C310.539 230.151 312.582 233.015 310.697 236.858C306.976 244.446 302.196 251.439 295.35 256.771C284.855 264.943 283.858 268.276 287.798 280.509C290.875 290.098 290.51 291.545 282.155 297.887C280.489 299.158 278.945 300.368 278.081 301.894C277.583 302.764 277.303 303.736 277.352 304.874C277.388 305.555 277.534 306.29 277.814 307.105C278.203 308.206 278.398 309.555 278.167 310.674C278.008 311.398 277.68 312.024 277.096 312.431C272.962 315.283 270.736 319.442 268.535 323.589C267.538 325.456 266.541 327.322 265.373 329.061C259.95 337.13 251.948 337.623 243.922 338.121L241.113 338.316C238.316 338.529 236.212 335.756 235.92 333.591C235.166 327.803 232.843 322.403 230.593 317.192C229.815 315.374 229.049 313.581 228.356 311.799C224.221 301.213 221.132 292.08 225.267 280.917C225.753 279.579 225.778 277.876 225.474 276.125C225.048 273.675 224.002 271.115 222.774 269.303C219.247 264.086 217.569 258.833 217.727 252.697C217.752 251.646 217.46 250.46 216.876 249.633C216.377 248.915 215.66 248.459 214.748 248.593C212.024 248.988 209.567 247.918 207.22 246.891C204.922 245.893 202.733 244.939 200.508 245.437C198.72 245.839 196.871 245.973 195.023 246.106C191.654 246.356 188.286 246.605 185.294 248.472C182.169 250.411 179.409 249.627 176.575 247.766C172.404 245.024 169.291 241.26 166.178 237.496C163.976 234.827 161.763 232.158 159.185 229.853C158.528 229.27 158.139 228.127 158.297 227.263C158.918 223.828 159.015 220.246 159.112 216.659C159.343 207.885 159.586 199.111 167.515 192.514C169.072 191.218 170.361 189.729 171.528 188.154C172.465 186.895 173.316 185.582 174.167 184.269C175.104 182.827 176.028 181.386 177.061 180.024C178.034 178.741 179.092 177.531 180.321 176.443C182.522 174.497 182.619 171.864 179.287 170.563C177.061 169.694 174.739 168.447 175.468 166.046C176.003 164.252 175.833 162.409 175.675 160.591C175.468 158.366 175.262 156.177 176.38 154.158C177.232 152.626 178.448 151.939 179.822 151.659C181.111 151.392 182.534 151.489 183.92 151.58L184.832 151.635C194.062 152.127 194.901 151.422 193.26 142.004C192.567 138.015 193.515 136.16 196.932 133.692C200.885 130.834 204.654 127.502 208.68 124.668C211.294 122.826 212.96 121.434 213.726 119.974C214.857 117.822 214.006 115.523 211.258 111.389C209.811 109.218 208.874 107.096 208.303 104.652C206.722 97.8415 207.78 94.9168 214.213 91.8949C216.013 91.0497 217.63 90.1011 219.053 88.9702C221.169 87.2798 222.847 85.1821 224.027 82.4277C226.143 77.4904 229.462 73.8725 233.536 71.1181C236.066 69.4095 238.875 68.0353 241.867 66.88C243.606 66.2112 245.381 65.6518 247.156 65.0924C248.664 64.6181 250.172 64.1438 251.656 63.6027C253.504 62.9217 255.268 62.3623 256.982 62.0947C260.606 61.5353 263.999 62.2893 267.526 66.0349C270.967 69.6649 277.51 69.1055 282.058 72.0484C282.69 72.4558 283.457 72.7233 284.211 72.9908C285.317 73.38 286.399 73.757 286.971 74.5414C288.71 76.9066 290.23 78.749 291.58 79.1868C293.173 79.6975 294.511 78.2626 295.666 73.4469C295.934 72.3524 297.004 71.6471 298.195 71.5498C299.229 71.4707 300.372 71.8477 301.187 72.8206C303.875 76.0128 306.282 75.2649 309.323 73.5077C312.557 71.641 316.108 71.562 319.671 71.4768C321.739 71.4282 323.806 71.3795 325.813 70.9904C331.638 69.8534 327.819 67.3421 327.065 65.1775C324.293 65.1593 321.447 65.5788 318.832 64.2715C314.041 61.888 312.971 57.0966 316.096 52.6944C323.916 41.6767 336.003 38.7034 348.067 35.7544C349.405 35.4261 350.621 36.1861 350.694 37.6576C350.706 37.9616 350.633 38.3447 350.511 38.7156C350.329 39.275 350.013 39.7979 349.648 39.962C348.493 40.485 347.313 40.9775 346.121 41.4153C344.99 41.8227 343.835 42.1814 342.68 42.455C337.074 43.7805 332.367 46.7599 328.05 50.3352C320.742 56.4035 320.742 57.9114 327.175 65.0498C331.759 65.9862 336.32 67.0564 340.929 67.8103C341.816 67.9563 342.607 68.0536 343.288 67.938C344.492 67.7374 345.367 66.874 345.854 64.4479C347.495 56.1542 351.217 54.5854 360.325 55.4428C363.584 55.7529 366.734 55.1874 370.042 56.6467C371.939 57.4919 375.368 57.121 375.891 53.7342C376.633 49.0097 379.041 49.6177 382.604 50.6636L383.066 50.7973C386.301 51.758 390.387 52.968 390.338 46.6323C390.326 44.8933 392.478 44.571 393.986 44.2427C396.114 43.7805 398.194 43.1482 400.286 42.5158L402.973 41.7193C404.882 41.172 406.816 40.6795 408.81 40.3755C410.489 40.1141 412.203 39.9864 413.979 40.0654C417.87 40.2357 420.083 38.7764 420.497 36.253C420.789 34.5201 420.229 32.2825 418.794 29.7287L415.803 29.0112C413.468 28.4397 411.133 27.8681 408.823 27.2053C404.603 25.9953 403.326 22.8153 405.065 19.2157C406.743 15.7498 409.504 12.965 413.991 15.8897C417.372 18.103 420.825 20.2189 422.88 23.8976ZM421.944 25.7582C421.543 26.4939 421.105 27.2114 420.594 27.8742C420.558 27.9167 420.533 27.9654 420.497 28.0079C421.044 27.3087 421.518 26.5487 421.944 25.7582ZM212.279 153.264C205.348 154.487 200.653 158.664 197.832 164.69L197.796 164.799C197.078 166.319 196.397 167.748 195.485 168.97C194.658 170.089 193.637 171.038 192.202 171.719C191.873 171.877 191.436 171.956 190.998 172.035L190.256 172.187C189.672 172.345 189.247 172.612 189.368 173.251C189.478 173.798 190.11 173.993 190.852 173.999C191.509 174.005 192.238 173.865 192.761 173.683C198.343 171.731 203.9 169.913 209.896 169.39C213.155 169.104 216.098 169.578 218.943 170.879C220.257 171.475 220.877 172.369 221.181 173.415C221.521 174.607 221.461 175.987 221.546 177.331C221.667 179.283 223.2 180.912 225.145 181.015C226.228 181.07 227.298 181.277 228.368 181.551C229.377 181.806 230.375 182.128 231.372 182.45C235.482 183.776 239.605 185.108 244.031 182.019C245.065 181.307 247.29 181.453 248.543 182.067C252.909 184.208 257.469 184.056 262.029 183.904C264.68 183.812 267.331 183.721 269.934 184.08C273.412 184.554 274.652 181.149 275.309 178.626C276.099 175.64 273.777 175.482 271.442 175.33L271.211 175.312C270.286 175.245 269.35 174.868 268.426 174.497C267.27 174.029 266.14 173.567 265.082 173.743C258.563 174.862 255.693 172.156 255.28 165.893C255.195 164.635 254.429 163.425 252.86 163.644C251.802 163.79 251.887 164.951 251.498 165.717C249.187 170.162 243.204 170.922 240.346 167.146C239.483 165.997 239.41 162.957 238.145 163.589C235.47 164.933 233.415 164.702 231.615 163.82C230.338 163.188 229.195 162.227 228.052 161.272C226.897 160.312 225.741 159.351 224.464 158.731C221.631 157.357 219.855 156.852 219.576 160.974C219.43 163.163 218.202 165.936 215.721 165.206C213.276 164.483 214.018 163.09 214.76 161.68C215.088 161.047 215.429 160.415 215.478 159.837C215.709 157.046 217.727 153.337 212.279 153.264ZM237.039 119.117C238.486 119.19 239.41 119.214 240.067 119.111C241.368 118.904 241.599 118.187 242.766 116.344C246.889 109.838 245.259 103.411 243.107 96.9294C242.985 96.5525 242.9 96.1147 242.803 95.6647C242.45 93.9196 242.061 91.9861 239.398 92.9285C238.291 93.3238 237.367 94.102 236.82 95.0384C236.09 96.2667 235.981 97.7685 236.917 99.0393C241.161 104.81 237.926 108.306 234.801 111.668C234.217 112.307 233.634 112.933 233.111 113.578C232.758 113.997 232.43 114.423 232.15 114.854C230.277 117.724 226.52 120.631 223.333 115.219C223.115 114.848 222.762 114.508 222.373 114.332C222.142 114.228 221.898 114.18 221.655 114.216C221.436 114.246 221.23 114.344 221.047 114.532C220.804 114.769 220.634 115.134 220.524 115.542C220.378 116.058 220.354 116.642 220.439 117.104C221.436 122.479 225.668 121.336 229.292 121.342C230.46 121.348 231.457 120.716 232.454 120.078C233.816 119.202 235.19 118.326 237.039 119.117ZM283.858 152.103L283.602 151.939C282.751 151.428 281.9 150.905 281.146 150.273C280.027 149.324 279.139 148.12 278.811 146.339C278.69 145.64 278.13 146.236 277.437 147.099C276.792 147.895 276.051 148.923 275.418 149.397C273.351 150.966 271.259 151.434 269.97 148.856C268.924 146.746 267.793 145.475 265.957 147.403L265.483 147.895C263.525 149.951 261.421 152.146 261.798 155.429C261.92 156.475 262.358 157.314 262.978 157.873C263.707 158.518 264.68 158.785 265.702 158.561C269.131 157.819 272.415 157.776 275.649 158.287C278.069 158.67 280.477 159.369 282.897 160.324C284.125 160.81 285.427 160.737 286.472 160.105C287.445 159.527 288.199 158.475 288.515 156.943C287.883 154.493 285.889 153.307 283.858 152.103ZM281.608 206.158C281.401 206.292 281.231 206.45 281.097 206.626C280.587 207.283 280.538 208.207 280.465 209.18C280.222 212.84 282.301 215.266 284.381 217.686L285.074 218.513L285.84 219.456C286.156 219.875 286.485 220.386 286.825 220.885C287.093 221.268 287.372 221.645 287.676 221.955C288.297 222.593 288.99 222.964 289.841 222.599C292.443 221.487 290.802 218.939 290.315 217.012C289.671 214.506 288.199 212.457 286.728 210.414L285.633 208.858L284.794 207.544C284.685 207.374 284.551 207.222 284.405 207.082L284.113 206.833C283.87 206.644 283.602 206.468 283.323 206.28C283.08 206.122 282.836 205.957 282.605 205.775C282.192 205.86 281.863 205.994 281.608 206.158Z" fill="url(#paint1_linear_1129_19997)"/>
<path d="M514.804 286.614V287.265C514.306 289.989 515.728 295.108 510.438 295.4C505.829 295.656 501.792 293.558 503.154 287.289C503.762 284.504 501.707 283.385 499.25 283.203C495.481 282.917 491.504 282.479 489.181 286.413C488.476 287.623 487.722 288.353 486.798 288.773C485.813 289.223 484.633 289.314 483.113 289.241C478.042 289.004 471.961 292.251 470.806 295.479C468.727 301.31 464.701 302.095 460.409 303.311C455.216 304.788 453.1 307.579 452.395 313.198C451.848 317.545 453.1 321.333 454.34 325.103C455.107 327.432 455.873 329.748 456.213 332.187C457.198 339.228 457.32 339.216 463.595 338.577L464.677 338.468C471.378 337.805 477.385 335.537 483.125 332.345C486.652 330.387 490.227 329.28 493.717 331.585L495.967 333.062C500.856 336.261 505.793 339.483 509.988 343.454C520.203 353.134 530.175 351.51 536.183 338.316C536.888 336.771 537.715 335.3 538.542 333.816L538.834 333.306C543.82 324.379 543.467 319.856 537.253 311.659L534.784 308.424C528.886 300.727 523.013 293.035 518.841 284.164C517.869 282.09 516.726 280.114 518.44 278.12C519.985 276.332 522.016 275.748 524.35 276.922C525.165 277.329 526.004 277.962 526.855 278.6C529.044 280.236 531.258 281.902 533.094 279.877C534.128 278.734 532.328 277.074 530.431 275.323C529.397 274.368 528.339 273.389 527.682 272.453C522.94 265.588 515.972 260.93 507.264 261.697C503.336 262.049 500.503 263.417 498.205 258.796C497.11 256.589 493.851 255.768 491.808 258.225C490.057 260.322 491.82 262.323 493.328 263.952C494.167 264.864 495.079 265.831 496.149 266.403C497.463 267.102 499.044 267.497 500.625 267.892C504.857 268.957 509.089 270.021 508.286 276.94C508.262 277.08 509.368 277.408 509.964 277.548C514.67 278.685 514.731 282.303 514.804 286.614Z" fill="url(#paint2_linear_1129_19997)"/>
<path d="M226.763 20.7966C227.894 20.9912 229.025 21.1857 230.034 20.9364C231.42 20.5959 232.77 20.1217 234.108 19.6535C237.124 18.5833 240.067 17.5436 243.156 18.1881C245.527 17.8476 247.704 18.1638 249.808 18.6137C252.082 19.1001 254.258 19.7447 256.508 19.8906C257.372 19.9514 258.612 20.0912 258.563 21.0824C258.527 21.7451 257.53 22.4869 256.8 22.9612C255.523 23.8125 254.21 24.7914 252.763 25.1806C249.199 26.1534 241.769 25.1015 250.063 31.2975C250.853 31.8873 250.428 33.079 249.637 33.7357C248.579 34.6052 247.181 34.7755 246.184 33.9972C242.329 30.9995 239.459 31.0786 236.82 35.7362C235.105 38.752 232.296 38.4298 229.645 36.3199L228.988 35.8213C227.723 34.8423 226.471 33.8755 225.839 32.325C224.513 29.0781 219.041 27.8377 221.011 23.0889C222.275 20.0183 224.513 20.4074 226.763 20.7966Z" fill="url(#paint3_linear_1129_19997)"/>
<path d="M441.499 254.637C441.547 254.394 441.632 254.193 441.766 254.102C447.518 250.016 453.331 246.015 458.354 242.537C461.588 242.555 464.045 243.571 463.303 245.486C461.309 250.673 462.89 256.54 459.412 261.484C457.369 264.384 455.094 265.795 452.297 265.916C451.288 265.959 450.218 265.837 449.063 265.558C444.004 264.335 442.727 260.085 441.523 255.847C441.426 255.519 441.414 255.026 441.499 254.637Z" fill="url(#paint4_linear_1129_19997)"/>
<path d="M304.373 287.605C305.553 286.9 306.72 286.207 307.766 285.471C310.332 283.665 309.529 288.578 310.393 291.022C309.797 295.279 308.167 299.377 306.501 303.53C305.358 306.4 304.203 309.3 303.364 312.304C302.622 314.955 299.545 315.125 296.955 314.663C295.496 314.408 294.547 313.587 294.061 312.456C293.83 311.939 293.708 311.355 293.672 310.735C293.331 305.123 294.17 299.316 296.469 294.512C297.928 291.472 301.199 289.508 304.373 287.605Z" fill="url(#paint5_linear_1129_19997)"/>
<path d="M592.354 354.593C587.793 357.98 583.695 361.385 581.445 366.815C580.509 369.064 578.417 370.737 575.973 370.7C573.796 370.572 572.483 369.393 572.325 367.842C572.228 366.869 572.58 365.745 573.468 364.65C576.374 361.05 579.123 356.697 582.978 354.654C587.538 352.252 588.085 349.419 587.368 345.272C587.125 343.837 585.921 342.037 587.806 341.174C588.487 340.863 589.095 340.985 589.666 341.301C590.42 341.709 591.101 342.444 591.782 342.986C597.498 347.509 597.887 350.477 592.354 354.593Z" fill="url(#paint6_linear_1129_19997)"/>
<path d="M511.509 161.169C512.165 159.983 513.491 159.734 514.743 160.452C515.315 160.786 515.777 161.199 516.081 161.795C516.385 162.373 516.531 163.127 516.482 164.148C515.619 167.797 514.366 172.503 510.669 174.74C504.504 178.456 497.682 181.095 491.078 184.031C489.631 184.676 488.853 183.454 488.804 182.067C488.646 178.486 490.701 175.999 493.656 174.789C500.892 171.84 507.532 168.338 511.509 161.169Z" fill="url(#paint7_linear_1129_19997)"/>
<path d="M509.32 47.8301C507.921 46.1154 503.981 45.6229 505.829 42.3881C506.851 40.5944 508.857 40.5822 511.095 40.5762C511.825 40.5762 512.579 40.5762 513.333 40.5093C514.208 40.6126 515.424 40.6491 516.677 40.8376C517.188 40.9106 517.711 41.0079 518.221 41.1477C520.276 41.7132 521.505 42.911 519.644 45.1061C518.854 46.0303 518.221 47.0944 517.479 48.0612C516.908 48.8151 517.358 49.715 517.796 50.5845C518.379 51.752 518.939 52.8708 516.957 53.5214C514.16 54.4395 512.469 52.1654 511.059 49.9886C510.56 49.2164 509.903 48.5476 509.32 47.8301Z" fill="url(#paint8_linear_1129_19997)"/>
<path d="M477.993 230.729C476.461 232.577 473.713 234.657 470.685 232.042C468.873 230.48 467.401 228.789 466.586 226.771C466.051 225.451 465.796 223.986 465.918 222.332C466.015 221.523 466.027 220.678 466.136 219.875C466.197 219.45 466.282 219.03 466.416 218.629C466.915 217.194 467.62 215.412 469.59 215.947C471.074 216.343 472.922 217.68 472.266 219.243C470.745 222.91 471.013 225.056 475.403 225.925C477.823 226.406 479.647 228.728 477.993 230.729Z" fill="url(#paint9_linear_1129_19997)"/>
<path d="M466.951 269.668C463.935 268.975 463.546 264.998 463.315 262.219C463.108 259.739 465.65 258.979 467.888 258.869C471.645 259.264 472.278 262.232 472.472 264.907C472.752 268.567 468.581 270.039 466.951 269.668Z" fill="url(#paint10_linear_1129_19997)"/>
</g>
<defs>
<linearGradient id="paint0_linear_1129_19997" x1="614" y1="396.417" x2="-154.755" y2="-53.3985" gradientUnits="userSpaceOnUse">
<stop stop-color="#335EF7"/>
<stop offset="1" stop-color="#335EF7"/>
</linearGradient>
<linearGradient id="paint1_linear_1129_19997" x1="614" y1="396.417" x2="-154.755" y2="-53.3985" gradientUnits="userSpaceOnUse">
<stop stop-color="#335EF7"/>
<stop offset="1" stop-color="#335EF7"/>
</linearGradient>
<linearGradient id="paint2_linear_1129_19997" x1="614" y1="396.417" x2="-154.755" y2="-53.3985" gradientUnits="userSpaceOnUse">
<stop stop-color="#335EF7"/>
<stop offset="1" stop-color="#335EF7"/>
</linearGradient>
<linearGradient id="paint3_linear_1129_19997" x1="614" y1="396.417" x2="-154.755" y2="-53.3985" gradientUnits="userSpaceOnUse">
<stop stop-color="#335EF7"/>
<stop offset="1" stop-color="#335EF7"/>
</linearGradient>
<linearGradient id="paint4_linear_1129_19997" x1="614" y1="396.417" x2="-154.755" y2="-53.3985" gradientUnits="userSpaceOnUse">
<stop stop-color="#335EF7"/>
<stop offset="1" stop-color="#335EF7"/>
</linearGradient>
<linearGradient id="paint5_linear_1129_19997" x1="614" y1="396.417" x2="-154.755" y2="-53.3985" gradientUnits="userSpaceOnUse">
<stop stop-color="#335EF7"/>
<stop offset="1" stop-color="#335EF7"/>
</linearGradient>
<linearGradient id="paint6_linear_1129_19997" x1="614" y1="396.417" x2="-154.755" y2="-53.3985" gradientUnits="userSpaceOnUse">
<stop stop-color="#335EF7"/>
<stop offset="1" stop-color="#335EF7"/>
</linearGradient>
<linearGradient id="paint7_linear_1129_19997" x1="614" y1="396.417" x2="-154.755" y2="-53.3985" gradientUnits="userSpaceOnUse">
<stop stop-color="#335EF7"/>
<stop offset="1" stop-color="#335EF7"/>
</linearGradient>
<linearGradient id="paint8_linear_1129_19997" x1="614" y1="396.417" x2="-154.755" y2="-53.3985" gradientUnits="userSpaceOnUse">
<stop stop-color="#335EF7"/>
<stop offset="1" stop-color="#335EF7"/>
</linearGradient>
<linearGradient id="paint9_linear_1129_19997" x1="614" y1="396.417" x2="-154.755" y2="-53.3985" gradientUnits="userSpaceOnUse">
<stop stop-color="#335EF7"/>
<stop offset="1" stop-color="#335EF7"/>
</linearGradient>
<linearGradient id="paint10_linear_1129_19997" x1="614" y1="396.417" x2="-154.755" y2="-53.3985" gradientUnits="userSpaceOnUse">
<stop stop-color="#335EF7"/>
<stop offset="1" stop-color="#335EF7"/>
</linearGradient>
</defs>
</svg>
