<svg width="15" height="15" viewBox="0 0 15 15" fill="none" xmlns="http://www.w3.org/2000/svg">
<path fill-rule="evenodd" clip-rule="evenodd" d="M10.4158 1.25646C11.3149 1.20027 12.2015 1.51244 12.8695 2.12431C13.4814 2.79237 13.7936 3.67895 13.7436 4.58427V10.4157C13.7998 11.321 13.4814 12.2076 12.8758 12.8757C12.2077 13.4876 11.3149 13.7997 10.4158 13.7435H4.58429C3.67897 13.7997 2.79238 13.4876 2.12432 12.8757C1.51245 12.2076 1.20027 11.321 1.25646 10.4157V4.58427C1.20027 3.67895 1.51245 2.79237 2.12432 2.12431C2.79238 1.51244 3.67897 1.20027 4.58429 1.25646H10.4158ZM6.8632 10.5281L11.0651 6.31373C11.446 5.92663 11.446 5.30227 11.0651 4.92142L10.2535 4.10976C9.86637 3.72266 9.24201 3.72266 8.85491 4.10976L8.43659 4.53432C8.37415 4.59675 8.37415 4.70289 8.43659 4.76533C8.43659 4.76533 9.42932 5.75181 9.44805 5.77678C9.51673 5.85171 9.56044 5.9516 9.56044 6.06399C9.56044 6.28875 9.37937 6.47606 9.14836 6.47606C9.04222 6.47606 8.94232 6.43235 8.87364 6.36368L7.83096 5.32725C7.78101 5.2773 7.6936 5.2773 7.64365 5.32725L4.66546 8.30542C4.45942 8.51145 4.34079 8.78617 4.33455 9.07961L4.29709 10.5593C4.29709 10.6405 4.32206 10.7154 4.37826 10.7716C4.43445 10.8278 4.50937 10.859 4.59054 10.859H6.05778C6.35747 10.859 6.64468 10.7404 6.8632 10.5281Z" fill="#335EF7"/>
</svg>
