<svg width="26" height="26" viewBox="0 0 26 26" fill="none" xmlns="http://www.w3.org/2000/svg">
<path d="M20.7455 19.9333H5.25384C4.92613 19.9333 4.65801 20.2015 4.65801 20.5292V21.7208C4.65801 22.0485 4.92613 22.3167 5.25384 22.3167H20.7455C21.0732 22.3167 21.3413 22.0485 21.3413 21.7208V20.5292C21.3413 20.2015 21.0732 19.9333 20.7455 19.9333ZM23.1288 8.01667C22.142 8.01667 21.3413 8.81732 21.3413 9.80417C21.3413 10.0686 21.4009 10.3143 21.5052 10.5415L18.809 12.1577C18.2356 12.5003 17.4945 12.3067 17.1631 11.7257L14.128 6.41536C14.5265 6.08766 14.7872 5.59609 14.7872 5.0375C14.7872 4.05065 13.9865 3.25 12.9997 3.25C12.0128 3.25 11.2122 4.05065 11.2122 5.0375C11.2122 5.59609 11.4729 6.08766 11.8713 6.41536L8.83629 11.7257C8.50486 12.3067 7.76007 12.5003 7.1903 12.1577L4.49788 10.5415C4.59842 10.3181 4.66173 10.0686 4.66173 9.80417C4.66173 8.81732 3.86108 8.01667 2.87423 8.01667C1.88738 8.01667 1.08301 8.81732 1.08301 9.80417C1.08301 10.791 1.88366 11.5917 2.87051 11.5917C2.96733 11.5917 3.06415 11.5768 3.15725 11.5619L5.84967 18.7417H20.1497L22.8421 11.5619C22.9352 11.5768 23.032 11.5917 23.1288 11.5917C24.1157 11.5917 24.9163 10.791 24.9163 9.80417C24.9163 8.81732 24.1157 8.01667 23.1288 8.01667Z" fill="white"/>
</svg>
