<svg width="26" height="26" viewBox="0 0 26 26" fill="none" xmlns="http://www.w3.org/2000/svg">
<path fill-rule="evenodd" clip-rule="evenodd" d="M19.2509 9.08053H23.8346C23.8346 5.40022 21.6294 3.25024 17.8932 3.25024H8.10945C4.37315 3.25024 2.16797 5.40022 2.16797 9.03359V16.9669C2.16797 20.6003 4.37315 22.7502 8.10945 22.7502H17.8932C21.6294 22.7502 23.8346 20.6003 23.8346 16.9669V16.6289H19.2509C17.1236 16.6289 15.3991 14.9476 15.3991 12.8735C15.3991 10.7994 17.1236 9.11808 19.2509 9.11808V9.08053ZM19.2517 10.6952H23.0265C23.4732 10.6952 23.8354 11.0483 23.8354 11.4839V14.2253C23.8302 14.6588 23.4711 15.0089 23.0265 15.014H19.3384C18.2614 15.0281 17.3197 14.3092 17.0754 13.2865C16.9531 12.6516 17.1248 11.9965 17.5446 11.4967C17.9643 10.9969 18.5892 10.7035 19.2517 10.6952ZM19.4159 13.5777H19.7722C20.2296 13.5777 20.6004 13.2162 20.6004 12.7702C20.6004 12.3243 20.2296 11.9628 19.7722 11.9628H19.4159C19.1972 11.9603 18.9865 12.0433 18.8309 12.1932C18.6753 12.3431 18.5878 12.5476 18.5878 12.7609C18.5877 13.2083 18.957 13.5725 19.4159 13.5777ZM7.3011 9.08043H13.4159C13.8733 9.08043 14.2441 8.71894 14.2441 8.27302C14.2441 7.8271 13.8733 7.4656 13.4159 7.4656H7.3011C6.84746 7.46557 6.47823 7.82138 6.47295 8.26363C6.47292 8.7111 6.84217 9.07529 7.3011 9.08043Z" fill="white"/>
</svg>
