<svg width="26" height="26" viewBox="0 0 26 26" fill="none" xmlns="http://www.w3.org/2000/svg">
<path fill-rule="evenodd" clip-rule="evenodd" d="M21.409 13.0013C21.409 13.8826 22.1327 14.5997 23.0221 14.5997C23.4706 14.5997 23.8346 14.9603 23.8346 15.4047V18.3041C23.8346 20.7558 21.8218 22.7502 19.3475 22.7502H6.65622C4.18189 22.7502 2.16797 20.7558 2.16797 18.3041V15.4047C2.16797 14.9603 2.53197 14.5997 2.98047 14.5997C3.87097 14.5997 4.59464 13.8826 4.59464 13.0013C4.59464 12.1426 3.90022 11.4964 2.98047 11.4964C2.76489 11.4964 2.55905 11.4116 2.4063 11.2602C2.25355 11.1089 2.16797 10.9038 2.16797 10.6913L2.17014 7.69748C2.17014 5.24576 4.18297 3.25024 6.6573 3.25024H19.3453C21.8196 3.25024 23.8336 5.24576 23.8336 7.69748L23.8346 10.5979C23.8346 10.8104 23.7491 11.0165 23.5974 11.1668C23.4446 11.3182 23.2388 11.403 23.0221 11.403C22.1327 11.403 21.409 12.12 21.409 13.0013ZM15.4421 13.702L16.7194 12.4697C16.9415 12.2572 17.0184 11.9437 16.922 11.6539C16.8266 11.3641 16.5775 11.158 16.2763 11.1161L14.5116 10.8606L13.7218 9.27623C13.5864 9.00358 13.3112 8.83398 13.0046 8.8329H13.0025C12.697 8.8329 12.4218 9.00251 12.2842 9.27516L11.4945 10.8606L9.73297 11.115C9.42856 11.158 9.17939 11.3641 9.08297 11.6539C8.98764 11.9437 9.06456 12.2572 9.28556 12.4697L10.5628 13.702L10.2616 15.4442C10.2096 15.7447 10.3321 16.0432 10.5812 16.2224C10.7221 16.3223 10.8856 16.3738 11.0514 16.3738C11.1781 16.3738 11.306 16.3426 11.423 16.2815L13.0025 15.4592L14.5787 16.2793C14.8517 16.4242 15.1756 16.4017 15.4237 16.2213C15.674 16.0432 15.7964 15.7447 15.7444 15.4442L15.4421 13.702Z" fill="white"/>
</svg>
