<svg width="280" height="317" viewBox="0 0 280 317" fill="none" xmlns="http://www.w3.org/2000/svg">
<g clip-path="url(#clip0_929_19572)">
<path d="M136 210.793C135.545 211.339 134.932 211.733 134.245 211.921C133.558 212.108 132.829 212.081 132.158 211.842C131.487 211.603 130.906 211.163 130.494 210.584C130.081 210.004 129.857 209.312 129.852 208.601C129.654 208.303 129.512 208.088 129.313 207.79C127.576 207.129 125.68 207.001 123.869 207.422C122.058 207.843 120.414 208.794 119.148 210.153C117.883 211.512 117.053 213.217 116.765 215.05C116.477 216.883 116.744 218.759 117.532 220.439C121.881 229.954 125.665 240.59 135.298 245.771C96.0783 233.74 65.9777 198.329 59.9584 157.926C61.8653 150.005 60.5978 141.027 55.6078 134.452C54.1094 137.868 49.0082 139.186 48.0458 134.718C47.7699 132.91 47.5098 131.101 47.2338 129.293C27.5919 129.582 33.4308 156.518 57.6858 158.597C58.91 166.246 60.9324 173.746 63.72 180.975C58.8131 175.429 52.6564 171.124 45.7562 168.414C39.1804 166.048 31.7809 166.091 24.6785 165.597C16.0322 164.986 10.9023 175.246 16.7945 181.58C21.339 179.02 27.0655 183.359 23.969 188.198C36.8373 197.895 54.8115 200.079 69.751 194.16C77.2206 208.156 87.5949 220.403 100.182 230.085C84.7826 219.523 68.0742 231.154 53.2788 236.449C52.2642 236.72 51.3506 237.279 50.6493 238.059C49.948 238.839 49.4894 239.805 49.3294 240.841C49.1694 241.876 49.3149 242.936 49.7482 243.89C50.1815 244.844 50.8839 245.652 51.7696 246.215C53.6372 245.326 55.5888 244.624 57.5956 244.119C58.5422 243.888 59.5371 243.955 60.444 244.311C61.351 244.666 62.1255 245.293 62.6615 246.105C63.1974 246.916 63.4685 247.874 63.4377 248.845C63.4069 249.817 63.0756 250.755 62.4892 251.531C80.0119 258.015 100.806 252.491 113.283 238.741C120.224 242.642 127.553 245.812 135.151 248.202L153.741 227.86C153.581 227.581 153.407 227.302 153.24 227.031C151.638 229.021 149.798 230.809 147.76 232.354C146.4 221.995 146.905 215.399 136.001 210.792L136 210.793Z" fill="#F2F2F2"/>
<path d="M180.013 234.697C180.641 235.032 181.358 235.166 182.065 235.082C182.773 234.997 183.437 234.697 183.968 234.223C184.499 233.749 184.871 233.124 185.034 232.432C185.197 231.74 185.142 231.015 184.878 230.355C184.949 230.004 185 229.751 185.07 229.4C186.43 228.134 188.137 227.302 189.974 227.011C191.81 226.719 193.692 226.982 195.378 227.764C197.064 228.546 198.478 229.813 199.437 231.402C200.397 232.991 200.859 234.83 200.764 236.682C200.334 247.131 200.852 258.405 193.89 266.828C225.663 240.928 240.15 196.806 230.447 157.123C225.686 150.505 223.465 141.713 225.6 133.746C228.279 136.345 233.502 135.647 232.704 131.147C232.276 129.369 231.833 127.595 231.405 125.817C249.705 118.693 254.483 145.837 232.805 156.889C234.564 164.433 235.527 172.141 235.679 179.885C238.126 172.902 242.2 166.598 247.566 161.492C252.761 156.826 259.631 154.083 266.021 150.952C273.798 147.133 282.429 154.705 279.367 162.788C274.19 162.127 270.527 168.3 275.225 171.617C266.974 185.44 251.153 194.226 235.079 194.365C233.453 210.138 228.476 225.384 220.48 239.087C230.748 223.511 250.62 227.996 266.325 227.332C267.367 227.201 268.425 227.375 269.369 227.834C270.313 228.292 271.104 229.015 271.643 229.913C272.183 230.812 272.449 231.848 272.409 232.895C272.368 233.942 272.023 234.954 271.416 235.809C269.35 235.688 267.277 235.772 265.227 236.06C264.263 236.202 263.367 236.639 262.662 237.309C261.956 237.98 261.476 238.851 261.287 239.805C261.097 240.758 261.208 241.747 261.604 242.635C262 243.523 262.661 244.268 263.498 244.766C249.722 257.365 228.374 260.073 211.62 252.033C206.667 258.258 201.078 263.952 194.945 269.023L170.036 257.179C170.079 256.86 170.135 256.537 170.186 256.223C172.423 257.464 174.803 258.427 177.274 259.091C174.617 248.986 171.656 243.067 180.012 234.697H180.013Z" fill="#F2F2F2"/>
<path d="M202.43 317H166.852L160.885 287.573L158.95 317H125.9C125.913 293.89 127.12 270.797 129.516 247.811L129.925 246.42L130.573 244.193L130.982 242.795L137.821 219.367L138.361 217.508H179.544C181.914 219.728 184.1 222.137 186.08 224.709C186.751 225.562 187.452 226.486 188.17 227.481C188.669 228.185 189.185 228.926 189.702 229.701C194.291 236.516 197.721 244.04 199.854 251.969V251.975C200.216 253.331 200.536 254.719 200.815 256.138V256.144C201.065 257.405 201.284 258.684 201.456 259.993C201.587 260.947 201.7 261.912 201.783 262.889C202.278 268.303 202.104 273.756 201.266 279.128L202.43 317Z" fill="#2F2E41"/>
<path d="M36.6852 171.033C37.8024 169.724 37.1786 167.364 35.2919 165.762C33.4052 164.16 30.9701 163.923 29.8529 165.232C28.7357 166.541 29.3595 168.901 31.2462 170.503C33.1329 172.105 35.568 172.343 36.6852 171.033Z" fill="#E6E6E6"/>
<path d="M45.6394 164.113C46.8076 163.073 47.1666 161.572 46.4413 160.762C45.7159 159.951 44.1809 160.137 43.0127 161.177C41.8445 162.217 41.4855 163.718 42.2108 164.528C42.9362 165.339 44.4712 165.153 45.6394 164.113Z" fill="#FF6584"/>
<path d="M71.1531 161.72C72.3213 160.68 72.6803 159.179 71.955 158.369C71.2296 157.558 69.6946 157.744 68.5264 158.784C67.3582 159.824 66.9991 161.325 67.7245 162.135C68.4498 162.946 69.9849 162.76 71.1531 161.72Z" fill="#E6E6E6"/>
<path d="M59.7116 161.458C60.8288 160.149 60.205 157.789 58.3183 156.187C56.4316 154.585 53.9965 154.347 52.8793 155.657C51.7621 156.966 52.3859 159.326 54.2726 160.928C56.1593 162.53 58.5944 162.767 59.7116 161.458Z" fill="#FF6584"/>
<path d="M22.8972 157.974C24.0654 156.934 24.4245 155.433 23.6991 154.623C22.9738 153.812 21.4387 153.998 20.2705 155.038C19.1023 156.078 18.7433 157.579 19.4686 158.389C20.194 159.2 21.729 159.014 22.8972 157.974Z" fill="#3F3D56"/>
<path d="M19.5514 147.286C20.6686 145.977 20.0448 143.617 18.1581 142.015C16.2714 140.413 13.8363 140.176 12.7191 141.485C11.6019 142.794 12.2258 145.154 14.1124 146.756C15.9991 148.358 18.4342 148.596 19.5514 147.286Z" fill="#3F3D56"/>
<path d="M140.784 124.837C141.493 124.766 142.163 124.479 142.702 124.015C143.242 123.551 143.626 122.933 143.802 122.244C143.978 121.555 143.937 120.829 143.686 120.164C143.434 119.499 142.984 118.928 142.396 118.527C142.258 118.196 142.159 117.958 142.022 117.627C142.443 115.82 143.395 114.18 144.757 112.917C146.118 111.653 147.827 110.824 149.664 110.536C151.501 110.248 153.383 110.513 155.067 111.298C156.752 112.084 158.163 113.353 159.12 114.944C164.603 123.856 171.334 132.928 170.262 143.792C182.162 104.62 169.528 59.9351 139.294 32.3888C131.642 29.5429 124.885 23.4797 122.204 15.6784C125.881 16.3461 129.827 12.8615 126.649 9.56973C125.299 8.3315 123.941 7.10603 122.591 5.86773C133.801 -10.224 152.939 9.65182 141.121 30.8829C146.797 36.1678 151.905 42.0303 156.359 48.3747C154.488 41.2167 154.346 33.7178 155.947 26.4948C157.652 19.7318 161.821 13.6333 165.376 7.48008C169.697 -0.0157822 181.094 1.46986 183.07 9.88329C178.404 12.214 178.813 19.3754 184.566 19.5161C185.443 35.5803 177.22 51.6731 163.954 60.7291C171.421 74.7268 175.81 90.1512 176.831 105.974C176.649 87.3329 195.653 80.0031 208.319 70.7175C209.11 70.0292 210.086 69.5856 211.126 69.4409C212.166 69.2961 213.226 69.4565 214.176 69.9024C215.127 70.3483 215.927 71.0605 216.478 71.952C217.03 72.8436 217.309 73.876 217.283 74.9233C215.5 75.972 213.826 77.1947 212.286 78.5735C211.565 79.2278 211.065 80.0885 210.854 81.0375C210.643 81.9865 210.732 82.9773 211.107 83.8742C211.483 84.7711 212.128 85.5301 212.953 86.0472C213.778 86.5643 214.743 86.8142 215.716 86.7626C211.321 104.883 195.114 119.005 176.712 121.649C176.079 129.571 174.622 137.406 172.365 145.028L145.067 149.049C144.925 148.761 144.79 148.462 144.657 148.172C147.208 147.959 149.722 147.434 152.144 146.611C144.291 139.7 138.524 136.433 140.783 124.838L140.784 124.837Z" fill="#F2F2F2"/>
<path d="M168.238 116.106C155.811 116.106 149.07 114.591 146.716 111.357C144.639 108.504 146.031 104.739 147.644 100.38C148.803 97.2472 150.116 93.6963 150.116 90.1817C150.116 73.0879 158.805 64.4204 175.941 64.4204C184.467 64.4204 193.621 68.9384 200.429 76.5061C206.618 83.386 209.701 91.62 208.888 99.0968C208.221 105.229 205.359 109.261 199.883 111.788L199.563 111.935L199.472 111.595C198.999 109.836 198.199 108.18 197.113 106.715C197.007 109.015 196.426 111.267 195.406 113.332L195.348 113.45L195.221 113.486C189.023 115.247 181.668 115.724 175.952 115.943C173.17 116.051 170.599 116.105 168.238 116.106Z" fill="#2F2E41"/>
<path d="M171.626 139.923C171.149 138.526 170.346 137.263 169.282 136.238C168.218 135.213 166.925 134.456 165.509 134.029C164.093 133.603 162.596 133.519 161.141 133.786C159.687 134.052 158.317 134.661 157.145 135.561L116.267 159.941L103.476 128.807C104.556 127.225 105.107 125.343 105.049 123.43C104.991 121.517 104.327 119.672 103.153 118.159C101.978 116.645 100.354 115.542 98.5118 115.007C96.6699 114.471 94.7054 114.532 92.9 115.179C91.0946 115.826 89.5411 117.028 88.4623 118.61C87.3836 120.193 86.8349 122.075 86.8951 123.988C86.9553 125.901 87.6212 127.746 88.7973 129.258C89.9734 130.77 91.5993 131.871 93.4418 132.404C94.2302 141.383 98.6117 181.512 113.854 180.053C126.666 178.827 158.483 157.689 168.366 150.36C169.947 149.189 171.114 147.547 171.7 145.671C172.286 143.796 172.26 141.783 171.626 139.923Z" fill="#FFB6B6"/>
<path d="M87.5339 153.068C88.7022 152.027 89.0612 150.527 88.3358 149.716C87.6105 148.906 86.0754 149.092 84.9072 150.132C83.739 151.172 83.38 152.672 84.1053 153.483C84.8307 154.294 86.3657 154.108 87.5339 153.068Z" fill="#3F3D56"/>
<path d="M41.617 148.905C42.7852 147.865 43.1442 146.365 42.4188 145.554C41.6935 144.744 40.1585 144.93 38.9902 145.97C37.822 147.01 37.463 148.51 38.1884 149.321C38.9137 150.132 40.4487 149.946 41.617 148.905Z" fill="#E6E6E6"/>
<path d="M162.228 120.865L181.829 119.857L190.932 134.208C190.932 134.208 208.062 137.064 206.874 157.2C205.687 177.335 186.033 195.004 186.033 195.004L186.873 205.489L185.414 209.648L185.601 211.983L187.592 214.457L187.797 217.014L186.033 221.061L188.432 224.936L138.009 220.063L136.165 213.362L138.855 209.764L137.352 205.071L139.611 200.557L140.789 186.219C140.789 186.219 127.904 166.909 142.695 152.364L148.632 142.297L155.275 134.212L162.228 120.865Z" fill="#335EF7"/>
<path d="M2.68144 102.094C3.74144 101.844 4.30837 100.408 3.94771 98.8884C3.58705 97.3684 2.43537 96.339 1.37536 96.5893C0.315358 96.8396 -0.25157 98.2747 0.109091 99.7947C0.469752 101.315 1.62143 102.344 2.68144 102.094Z" fill="#3F3D56"/>
<path d="M2.85429 83.6031C3.9143 83.3528 4.48124 81.9177 4.12058 80.3977C3.75992 78.8776 2.60822 77.8483 1.54822 78.0986C0.488209 78.3489 -0.0787189 79.784 0.281942 81.304C0.642604 82.8241 1.79428 83.8534 2.85429 83.6031Z" fill="#E6E6E6"/>
<path d="M171.972 116.813C183.443 116.813 192.741 107.537 192.741 96.0946C192.741 84.6523 183.443 75.3765 171.972 75.3765C160.502 75.3765 151.203 84.6523 151.203 96.0946C151.203 107.537 160.502 116.813 171.972 116.813Z" fill="#FFB6B6"/>
<path d="M169.192 94.8389C167.402 94.8389 165.613 94.7886 163.825 94.688L163.506 94.67L163.548 94.3537C163.811 92.3761 163.663 90.3656 163.113 88.4477C162.178 90.6315 160.787 92.5913 159.032 94.1964L158.933 94.2869L158.8 94.2724C153.945 93.7426 149.133 92.8673 144.403 91.6532L144.222 91.6069L144.186 91.4241C143.833 89.6935 143.65 87.9326 143.64 86.1665C143.64 80.6495 145.645 76.006 149.286 73.0915C153.249 69.9191 158.93 68.9434 165.288 70.3427H185.618C187.853 70.3452 189.996 71.232 191.576 72.8086C193.157 74.3851 194.046 76.5227 194.048 78.7522V91.595L193.826 91.6528C185.785 93.761 177.506 94.8317 169.192 94.8389Z" fill="#2F2E41"/>
<path d="M11.2698 72.6821C13.5804 71.7899 14.9491 69.7668 14.3269 68.1634C13.7047 66.56 11.3272 65.9835 9.01665 66.8757C6.70609 67.7679 5.3374 69.791 5.9596 71.3944C6.5818 72.9978 8.95928 73.5744 11.2698 72.6821Z" fill="#FF6584"/>
<path d="M28.2137 63.7955C29.2737 63.5452 29.8406 62.1101 29.4799 60.59C29.1193 59.07 27.9676 58.0407 26.9076 58.291C25.8476 58.5412 25.2807 59.9764 25.6413 61.4964C26.002 63.0164 27.1537 64.0458 28.2137 63.7955Z" fill="#E6E6E6"/>
<path d="M12.8924 60.0841C13.9524 59.8338 14.5193 58.3987 14.1586 56.8786C13.798 55.3586 12.6463 54.3293 11.5863 54.5795C10.5263 54.8298 9.95937 56.2649 10.32 57.785C10.6807 59.305 11.8324 60.3343 12.8924 60.0841Z" fill="#FF6584"/>
<path d="M13.7923 47.9224C16.1028 47.0302 17.4715 45.0071 16.8493 43.4036C16.2271 41.8002 13.8496 41.2237 11.5391 42.1159C9.22853 43.0082 7.85986 45.0313 8.48206 46.6347C9.10426 48.2381 11.4817 48.8146 13.7923 47.9224Z" fill="#E6E6E6"/>
<path d="M158.056 47.31C159.603 46.5513 159.97 44.1382 158.877 41.9204C157.783 39.7025 155.643 38.5197 154.096 39.2785C152.55 40.0372 152.182 42.4503 153.276 44.6681C154.369 46.886 156.509 48.0688 158.056 47.31Z" fill="#3F3D56"/>
<path d="M29.1316 43.0572C30.1916 42.8069 30.7586 41.3718 30.3979 39.8518C30.0372 38.3317 28.8856 37.3024 27.8256 37.5527C26.7656 37.803 26.1986 39.2381 26.5593 40.7581C26.9199 42.2781 28.0716 43.3075 29.1316 43.0572Z" fill="#3F3D56"/>
<path d="M42.8851 44.1997C45.1956 43.3075 46.5643 41.2844 45.9421 39.681C45.3199 38.0776 42.9424 37.5011 40.6319 38.3933C38.3213 39.2855 36.9526 41.3086 37.5748 42.912C38.197 44.5154 40.5745 45.0919 42.8851 44.1997Z" fill="#3F3D56"/>
<path d="M27.4756 71.7934C26.5655 72.1254 25.8246 72.804 25.4154 73.6803C25.0063 74.5566 24.9622 75.559 25.2931 76.4677L47.2251 136.5C47.5579 137.408 48.2382 138.147 49.1166 138.555C49.995 138.963 50.9999 139.007 51.9108 138.677L137.033 107.731C137.943 107.399 138.684 106.72 139.093 105.844C139.502 104.968 139.546 103.965 139.215 103.057L117.283 43.0245C116.95 42.1166 116.27 41.3775 115.392 40.9693C114.513 40.5611 113.508 40.5172 112.597 40.8472L27.4756 71.7934Z" fill="#CCCCCC"/>
<path d="M105.351 115.939L53.248 134.881C52.2677 135.236 51.1862 135.189 50.2407 134.75C49.2953 134.311 48.5631 133.515 48.2049 132.538L28.3128 78.0893C27.9567 77.1114 28.0041 76.0325 28.4444 75.0894C28.8848 74.1462 29.6822 73.4159 30.6618 73.0585L110.974 43.861C111.954 43.5058 113.036 43.5531 113.981 43.9924C114.926 44.4317 115.659 45.2272 116.017 46.2044L125.629 72.5134C128.702 80.9549 128.293 90.2677 124.491 98.4087C120.69 106.55 113.807 112.854 105.351 115.939Z" fill="white"/>
<path d="M67.8609 76.6043L55.4794 81.1056C55.3241 81.1621 55.1592 81.1875 54.9941 81.1803C54.829 81.1732 54.6669 81.1337 54.5171 81.0641C54.3673 80.9945 54.2327 80.8962 54.121 80.7747C54.0093 80.6532 53.9227 80.5109 53.8661 80.356C53.8095 80.2011 53.7841 80.0366 53.7912 79.8719C53.7984 79.7072 53.8379 79.5455 53.9077 79.3961C53.9775 79.2466 54.0761 79.1124 54.1979 79.0009C54.3197 78.8895 54.4623 78.8031 54.6176 78.7467L66.9991 74.2453C67.3127 74.1313 67.6588 74.1463 67.9614 74.2868C68.2639 74.4274 68.4981 74.6821 68.6124 74.995C68.7267 75.3078 68.7117 75.6531 68.5708 75.9549C68.4299 76.2567 68.1745 76.4903 67.8609 76.6043H67.8609Z" fill="#335EF7"/>
<path d="M97.3785 71.3382L57.2416 85.93C57.0863 85.9867 56.9213 86.0123 56.756 86.0053C56.5908 85.9983 56.4285 85.9589 56.2786 85.8894C56.1286 85.8198 55.9938 85.7214 55.882 85.5998C55.7702 85.4783 55.6835 85.3359 55.6269 85.1809C55.5702 85.0259 55.5448 84.8613 55.552 84.6964C55.5592 84.5316 55.5989 84.3698 55.6688 84.2203C55.7387 84.0708 55.8375 83.9365 55.9595 83.8251C56.0815 83.7137 56.2243 83.6273 56.3798 83.571L96.5166 68.9792C96.6719 68.9228 96.8368 68.8974 97.0019 68.9045C97.167 68.9116 97.3291 68.9511 97.4789 69.0207C97.6287 69.0903 97.7633 69.1887 97.875 69.3102C97.9867 69.4317 98.0733 69.5739 98.1299 69.7288C98.1865 69.8837 98.212 70.0482 98.2048 70.2129C98.1977 70.3776 98.1581 70.5393 98.0883 70.6888C98.0186 70.8382 97.9199 70.9725 97.7981 71.0839C97.6763 71.1953 97.5337 71.2817 97.3785 71.3382Z" fill="#335EF7"/>
<path d="M99.4014 76.8757L59.2646 91.4676C59.1093 91.524 58.9444 91.5494 58.7793 91.5423C58.6142 91.5352 58.4521 91.4957 58.3023 91.4261C58.1525 91.3565 58.0179 91.2581 57.9062 91.1366C57.7945 91.0151 57.7079 90.8728 57.6513 90.718C57.5947 90.5631 57.5692 90.3986 57.5764 90.2339C57.5835 90.0691 57.6231 89.9075 57.6929 89.758C57.7627 89.6086 57.8613 89.4743 57.9831 89.3629C58.1049 89.2515 58.2475 89.165 58.4027 89.1086L98.5396 74.5168C98.8531 74.4032 99.1989 74.4185 99.5012 74.5591C99.8034 74.6998 100.037 74.9544 100.151 75.2669C100.266 75.5795 100.251 75.9245 100.11 76.2262C99.9696 76.5278 99.7146 76.7614 99.4014 76.8757Z" fill="#335EF7"/>
<path d="M101.424 82.4129L61.2875 97.0047C61.1322 97.0614 60.9672 97.087 60.8019 97.08C60.6367 97.0731 60.4744 97.0337 60.3245 96.9641C60.1745 96.8945 60.0397 96.7961 59.9279 96.6746C59.8161 96.553 59.7294 96.4106 59.6728 96.2556C59.6161 96.1006 59.5907 95.936 59.5979 95.7712C59.6051 95.6063 59.6448 95.4445 59.7147 95.295C59.7846 95.1455 59.8834 95.0112 60.0054 94.8998C60.1274 94.7884 60.2702 94.7021 60.4257 94.6458L100.563 80.0539C100.718 79.9975 100.883 79.9721 101.048 79.9792C101.213 79.9863 101.375 80.0258 101.525 80.0954C101.675 80.165 101.809 80.2634 101.921 80.3849C102.033 80.5064 102.119 80.6487 102.176 80.8036C102.232 80.9585 102.258 81.1229 102.251 81.2876C102.244 81.4523 102.204 81.614 102.134 81.7635C102.064 81.9129 101.966 82.0472 101.844 82.1586C101.722 82.27 101.58 82.3565 101.424 82.4129Z" fill="#335EF7"/>
<path d="M103.447 87.9505L63.3105 102.542C62.9969 102.656 62.6507 102.641 62.3482 102.501C62.0456 102.36 61.8115 102.106 61.6972 101.793C61.5829 101.48 61.5979 101.135 61.7388 100.833C61.8797 100.531 62.135 100.297 62.4486 100.183L102.586 85.5915C102.741 85.5351 102.906 85.5097 103.071 85.5168C103.236 85.5239 103.398 85.5634 103.548 85.633C103.698 85.7026 103.832 85.801 103.944 85.9225C104.056 86.044 104.142 86.1863 104.199 86.3412C104.255 86.4961 104.281 86.6605 104.274 86.8252C104.267 86.9899 104.227 87.1516 104.157 87.3011C104.087 87.4505 103.989 87.5848 103.867 87.6962C103.745 87.8076 103.603 87.894 103.447 87.9505H103.447Z" fill="#335EF7"/>
<path d="M230.802 103.329L208.826 155.788C207.889 158.007 206.114 159.77 203.885 160.696C201.655 161.622 199.151 161.636 196.911 160.736C195.752 160.271 194.701 159.574 193.821 158.69C192.941 157.806 192.25 156.752 191.792 155.593C191.333 154.434 191.116 153.194 191.154 151.948C191.191 150.703 191.483 149.478 192.01 148.348L216.512 94.555L230.019 61.2422C228.851 60.0809 228.071 58.5894 227.783 56.9703C227.495 55.3512 227.714 53.6829 228.41 52.1922C229.106 50.7014 230.245 49.4605 231.672 48.6379C233.099 47.8153 234.746 47.451 236.388 47.5945C238.03 47.738 239.588 48.3823 240.85 49.4398C242.113 50.4974 243.018 51.9169 243.444 53.5056C243.869 55.0943 243.794 56.7751 243.228 58.3197C242.663 59.8643 241.634 61.1977 240.282 62.1389L230.802 103.329Z" fill="#FFB6B6"/>
<path d="M135.733 32.7845C137.22 32.2929 138.147 31.0583 137.804 30.0268C137.461 28.9954 135.978 28.5578 134.492 29.0494C133.006 29.5409 132.079 30.7756 132.421 31.807C132.764 32.8384 134.247 33.276 135.733 32.7845Z" fill="#E6E6E6"/>
<path d="M156.522 31.8792C158.009 31.3876 158.936 30.153 158.593 29.1216C158.25 28.0901 156.767 27.6525 155.281 28.1441C153.795 28.6357 152.868 29.8703 153.211 30.9017C153.553 31.9331 155.036 32.3708 156.522 31.8792Z" fill="#3F3D56"/>
<path d="M138.098 17.2332C139.584 16.7416 140.511 15.507 140.168 14.4756C139.825 13.4441 138.343 13.0065 136.856 13.4981C135.37 13.9897 134.443 15.2243 134.786 16.2557C135.129 17.2871 136.611 17.7248 138.098 17.2332Z" fill="#FF6584"/>
<path d="M151.789 18.7275C153.336 17.9687 153.703 15.5557 152.61 13.3378C151.517 11.12 149.376 9.93716 147.83 10.6959C146.283 11.4547 145.916 13.8678 147.009 16.0856C148.103 18.3035 150.243 19.4863 151.789 18.7275Z" fill="#E6E6E6"/>
<path d="M126.844 18.3901C128.391 17.6313 128.758 15.2183 127.665 13.0004C126.571 10.7826 124.431 9.59974 122.884 10.3585C121.338 11.1173 120.97 13.5304 122.064 15.7482C123.157 17.9661 125.297 19.1489 126.844 18.3901Z" fill="#FF6584"/>
<path d="M95.2519 10.7674C96.7382 10.2758 97.6652 9.04117 97.3224 8.00975C96.9796 6.97834 95.4968 6.54072 94.0105 7.03229C92.5242 7.52387 91.5972 8.75849 91.94 9.7899C92.2828 10.8213 93.7656 11.259 95.2519 10.7674Z" fill="#3F3D56"/>
<path d="M113.731 9.31913C115.218 8.82755 116.145 7.59294 115.802 6.56152C115.459 5.5301 113.976 5.09246 112.49 5.58404C111.004 6.07562 110.077 7.31026 110.42 8.34167C110.762 9.37309 112.245 9.81071 113.731 9.31913Z" fill="#E6E6E6"/>
</g>
<defs>
<clipPath id="clip0_929_19572">
<rect width="280" height="317" fill="white"/>
</clipPath>
</defs>
</svg>
