<svg width="360" height="258" viewBox="0 0 360 258" fill="none" xmlns="http://www.w3.org/2000/svg">
<g clip-path="url(#clip0_1127_18343)">
<path d="M267.889 246.063H262.032L259.246 223.472L267.891 223.473L267.889 246.063Z" fill="#A0616A"/>
<path d="M271.04 257.183H266.884L266.143 253.26L264.243 257.183H253.22C252.692 257.183 252.177 257.014 251.752 256.701C251.326 256.388 251.012 255.947 250.854 255.443C250.697 254.938 250.705 254.397 250.878 253.898C251.05 253.398 251.377 252.967 251.812 252.667L260.615 246.587V242.621L269.873 243.173L271.04 257.183Z" fill="#2F2E41"/>
<path d="M245.204 246.063H239.347L236.561 223.472L245.205 223.473L245.204 246.063Z" fill="#A0616A"/>
<path d="M248.355 257.183H244.199L243.457 253.26L241.557 257.183H230.535C230.006 257.183 229.492 257.014 229.066 256.701C228.641 256.388 228.326 255.947 228.169 255.443C228.012 254.938 228.02 254.397 228.192 253.898C228.364 253.398 228.692 252.967 229.127 252.667L237.929 246.587V242.621L247.187 243.173L248.355 257.183Z" fill="#2F2E41"/>
<path d="M315.233 257.866L194.935 258C194.797 258 194.666 257.945 194.569 257.847C194.472 257.75 194.417 257.618 194.417 257.481C194.417 257.343 194.472 257.211 194.569 257.114C194.666 257.017 194.797 256.962 194.935 256.961L315.233 256.827C315.371 256.827 315.503 256.882 315.6 256.979C315.697 257.077 315.752 257.209 315.752 257.347C315.752 257.484 315.697 257.616 315.6 257.714C315.503 257.811 315.371 257.866 315.233 257.866V257.866Z" fill="#CACACA"/>
<path d="M291.343 164.164C291.665 164.194 291.988 164.124 292.269 163.964C292.55 163.804 292.775 163.562 292.913 163.27C293.052 162.978 293.097 162.65 293.043 162.332C292.989 162.013 292.838 161.719 292.611 161.488C292.579 161.329 292.556 161.214 292.524 161.054C292.539 161.021 292.555 160.987 292.571 160.954C292.932 160.201 293.507 159.572 294.224 159.146C294.941 158.719 295.768 158.514 296.601 158.556C297.434 158.598 298.236 158.885 298.907 159.381C299.577 159.878 300.086 160.561 300.37 161.346C301.502 164.477 302.983 167.631 303.232 170.898C303.341 172.342 303.199 173.794 302.812 175.19C306.113 168.793 307.999 161.762 308.344 154.573C308.429 152.769 308.412 150.961 308.295 149.159C308.198 147.681 308.036 146.211 307.809 144.748C306.569 136.812 303.464 129.282 298.749 122.779C296.387 121.344 294.522 119.219 293.405 116.691C293 115.783 292.728 114.82 292.599 113.834C292.871 113.882 293.148 113.917 293.42 113.948C293.505 113.957 293.595 113.965 293.68 113.974L293.712 113.977C294.011 114.004 294.313 113.944 294.579 113.804C294.846 113.665 295.067 113.451 295.214 113.189C295.362 112.926 295.431 112.627 295.413 112.326C295.395 112.026 295.29 111.737 295.111 111.495C295 111.344 294.889 111.193 294.777 111.043C294.608 110.81 294.435 110.582 294.266 110.35C294.246 110.328 294.228 110.304 294.211 110.28C294.016 110.015 293.822 109.754 293.628 109.489C294.031 108.923 294.56 108.457 295.173 108.129C297.296 107.015 300.107 107.985 301.512 109.924C302.922 111.862 303.082 114.497 302.454 116.807C301.85 118.77 300.917 120.616 299.693 122.266C299.799 122.414 299.909 122.559 300.014 122.707C301.94 125.436 303.593 128.347 304.951 131.398C304.742 128.041 305.334 124.682 306.677 121.598C308.026 118.729 310.414 116.37 312.534 113.934C315.081 111.007 319.951 112.563 320.195 116.434C320.197 116.472 320.2 116.509 320.202 116.547C319.896 116.701 319.597 116.865 319.304 117.04C318.935 117.263 318.641 117.591 318.462 117.983C318.284 118.375 318.227 118.812 318.301 119.236C318.374 119.661 318.574 120.053 318.874 120.362C319.175 120.671 319.561 120.882 319.984 120.967L320.027 120.976C319.871 122.043 319.634 123.096 319.319 124.127C318.41 127.004 316.916 129.662 314.931 131.934C312.947 134.206 310.514 136.044 307.786 137.333C307.607 137.414 307.432 137.496 307.254 137.573C308.559 141.903 309.295 146.385 309.444 150.905C309.524 153.572 309.388 156.24 309.037 158.885L309.055 158.791C309.766 155.866 311.465 153.275 313.865 151.457C317.428 148.798 322.324 147.986 326.132 145.892C326.537 145.658 327.001 145.544 327.468 145.565C327.936 145.586 328.388 145.74 328.771 146.009C329.154 146.278 329.452 146.651 329.63 147.084C329.808 147.516 329.858 147.991 329.775 148.452C329.769 148.485 329.762 148.517 329.756 148.55C329.193 148.749 328.644 148.983 328.111 149.25C327.806 149.404 327.506 149.569 327.213 149.744C326.844 149.966 326.55 150.295 326.371 150.687C326.193 151.079 326.136 151.515 326.21 151.94C326.283 152.364 326.483 152.757 326.784 153.066C327.084 153.374 327.47 153.585 327.893 153.671L327.936 153.679C327.967 153.685 327.994 153.691 328.025 153.697C326.977 155.904 325.557 157.915 323.827 159.641C321.693 161.728 319.154 163.357 316.367 164.428C313.58 165.499 310.604 165.99 307.621 165.87L307.616 165.87C306.643 169.35 305.31 172.72 303.64 175.924L291.137 175.342C291.098 175.201 291.065 175.056 291.031 174.915C292.185 175.042 293.35 175.027 294.5 174.87C293.626 173.689 292.751 172.498 291.877 171.317C291.857 171.295 291.839 171.271 291.822 171.247C291.378 170.642 290.93 170.042 290.487 169.438L290.486 169.437C290.544 167.65 290.832 165.878 291.343 164.165L291.343 164.164Z" fill="#F2F2F2"/>
<path d="M211.331 51.438C211.947 51.6074 212.518 51.9099 213.005 52.324C213.491 52.7381 213.881 53.2539 214.146 53.8349C214.412 54.4159 214.547 55.048 214.541 55.6868C214.536 56.3256 214.391 56.9555 214.116 57.532L220.794 64.956L217.272 70.1143L207.989 59.4978C207.051 58.9716 206.339 58.1196 205.987 57.1033C205.635 56.087 205.668 54.9769 206.08 53.9834C206.492 52.9899 207.254 52.1821 208.222 51.7129C209.19 51.2438 210.296 51.146 211.331 51.438V51.438Z" fill="#A0616A"/>
<path d="M273.845 69.6668C273.243 68.6871 272.453 67.8358 271.522 67.1618C270.59 66.4878 269.534 66.0043 268.415 65.7392C267.296 65.474 266.136 65.4324 265.001 65.6166C263.866 65.8009 262.778 66.2074 261.801 66.8129L239.84 80.4136L216.151 60.2778L210.257 65.7652L236.427 99.7175L270.439 81.9868C269.646 82.4006 274.804 71.2279 273.845 69.6668Z" fill="#CCCCCC"/>
<path d="M230.34 114.89C230.342 125.735 228.207 136.475 224.058 146.496C219.908 156.516 213.825 165.621 206.156 173.29C198.486 180.959 189.381 187.042 179.36 191.191C169.339 195.341 158.599 197.475 147.753 197.473C102.142 197.473 65.166 160.499 65.166 114.89C65.1582 106.018 66.5804 97.2031 69.378 88.7841C74.8705 72.3418 85.393 58.0421 99.4576 47.907C113.522 37.7719 130.417 32.3144 147.753 32.3062C162.704 32.301 177.376 36.3558 190.203 44.0379C203.029 51.7199 213.529 62.7408 220.581 75.924C222.329 79.1766 223.855 82.5443 225.146 86.0038C225.325 86.4855 225.499 86.9672 225.669 87.4535V87.4581C226.426 89.5961 227.093 91.7739 227.67 93.9914C229.448 100.815 230.346 107.838 230.34 114.89V114.89Z" fill="#3F3D56"/>
<path d="M221.861 151.369C219.896 155.36 217.609 159.186 215.025 162.807C213.373 162.101 211.598 163.362 210.051 164.546C208.436 165.785 206.496 166.991 204.839 165.863C203.146 164.707 202.6 161.472 203.137 158.907C203.674 156.347 205.014 154.31 206.312 152.374C207.689 150.318 209.161 148.185 211.075 147.386C212.992 146.588 215.456 147.717 216.016 150.442L217.374 150.396C216.612 149.35 217.012 147.184 218.035 146.804C219.214 146.359 220.237 147.978 220.935 149.41C221.247 150.057 221.563 150.708 221.861 151.369Z" fill="white"/>
<path d="M170.646 146.526L170.649 146.535C170.675 146.486 170.7 146.437 170.726 146.388L170.646 146.526Z" fill="#E6E6E6"/>
<path d="M215.734 142.555C215.899 142.986 216.121 143.393 216.393 143.766C216.903 144.279 217.596 143.963 218.214 143.839C218.775 143.75 219.35 143.815 219.877 144.026C220.404 144.238 220.864 144.588 221.209 145.04C220.969 143.844 220.445 142.723 219.683 141.771C218.92 140.82 217.94 140.065 216.825 139.571C215.367 138.977 213.832 138.919 212.317 138.866L212.055 138.933C212.722 140.875 214.817 140.831 215.734 142.555Z" fill="white"/>
<path d="M199.111 138.531C198.73 137.907 198.348 137.283 197.967 136.659C197.593 135.937 197.081 135.294 196.461 134.768C196.324 134.653 196.167 134.568 195.997 134.515C195.826 134.463 195.648 134.445 195.471 134.463C195.294 134.48 195.122 134.533 194.966 134.618C194.809 134.704 194.672 134.819 194.561 134.958L194.607 135.314C195.476 136.404 196.395 137.615 196.615 139.232C196.702 139.87 196.672 140.53 196.748 141.17C196.824 141.81 197.04 142.474 197.454 142.751C198.054 143.151 198.758 142.56 199.185 141.839C199.567 141.247 199.738 140.543 199.672 139.842C199.576 139.371 199.385 138.925 199.111 138.531V138.531Z" fill="white"/>
<path d="M205.088 139.343C205.275 138.808 205.006 138.193 204.949 137.601C204.922 136.837 205.124 136.082 205.531 135.434C205.935 134.822 206.24 134.151 206.437 133.446C206.521 133.124 206.505 132.785 206.394 132.472C206.268 132.189 205.962 132.06 205.787 132.284L206.162 132.526C205.656 132.435 205.135 132.46 204.64 132.599C204.358 132.708 204.105 132.882 203.904 133.108C203.704 133.335 203.56 133.606 203.487 133.9C203.425 134.357 203.324 134.809 203.184 135.249C202.96 135.709 202.527 135.862 202.255 136.265C202.07 136.623 201.976 137.021 201.983 137.424C201.989 137.827 202.096 138.222 202.294 138.574C202.635 139.149 203.179 139.576 203.818 139.772C204.276 139.937 204.879 139.945 205.088 139.343Z" fill="white"/>
<path d="M138.717 59.1719C135.006 57.165 130.885 56.0321 126.669 55.8596C122.453 55.6871 118.254 56.4796 114.391 58.1767C110.989 59.6569 107.408 62.3121 106.273 67.107C110.862 64.3989 116.803 68.6777 117.984 75.542L117.708 75.6179C117.084 80.3723 118.477 85.5486 121.172 88.4967C121.526 85.4345 123.54 83.3504 125.52 82.0485C127.501 80.7466 129.692 79.8009 131.203 77.5631C132.995 74.9102 133.45 71.033 134.162 67.4961C134.874 63.9591 136.225 60.1575 138.717 59.1719Z" fill="white"/>
<path d="M113.03 99.6303C111.759 101.539 110.061 102.736 108.538 104.227C107.019 105.723 105.574 107.742 105.271 110.334C105.078 111.995 105.377 113.683 105.335 115.363C105.294 117.042 104.734 118.932 103.592 119.349C101.789 120.001 100.412 116.652 98.5586 116.418C97.0858 116.234 95.7599 118.551 96.1865 120.561C96.6132 122.57 98.6183 123.46 99.7699 122.148C100.811 123.896 100.077 127.066 98.5128 127.603C98.3475 128.704 98.1824 129.801 98.0218 130.902C94.0668 128.135 90.0705 125.323 86.7074 121.272C82.967 116.804 80.6471 111.321 80.0454 105.526C79.6095 100.869 80.2564 95.5424 78.1184 91.9593C76.407 89.0918 73.4705 88.4586 70.8277 88.6376C70.346 88.6697 69.8597 88.7247 69.3779 88.7844C70.9365 84.1035 72.9159 79.5735 75.292 75.2498C75.8297 75.019 76.3294 74.7081 76.774 74.3277C79.2333 72.2402 80.3253 68.0146 82.3211 65.092C82.4496 64.9039 82.5826 64.7204 82.7203 64.5415C84.762 61.8759 87.4966 60.5041 90.1394 59.2286C95.9893 56.3887 102.009 53.512 108.185 53.9066L106.427 54.0763C104.376 59.8205 102.324 65.5646 100.27 71.3088C99.958 72.1896 99.6429 73.072 99.3249 73.956C98.1595 77.2226 96.9574 80.7003 97.1363 84.3569C97.2418 86.5224 97.9942 88.8348 99.4258 89.5781C100.761 90.2663 102.22 89.4221 103.509 88.587C104.055 88.2384 104.597 87.8897 105.143 87.5364C107.102 86.2747 109.272 84.9809 111.341 85.8251C113.236 86.5959 114.635 89.1697 114.902 91.9455C115.146 94.6437 114.487 97.3466 113.03 99.6303V99.6303Z" fill="white"/>
<path d="M124.682 138.847C118.96 135.324 113.238 131.801 107.516 128.278L107.613 128.028C104.056 129.383 102.579 135.707 103.167 140.878C103.754 146.05 105.748 150.672 106.755 155.711C108.113 162.607 107.601 169.74 105.271 176.37C112.795 167.928 119.453 158.753 125.147 148.983C125.942 147.752 126.548 146.408 126.945 144.997C127.308 143.495 127.252 141.69 126.524 140.486C126.056 139.795 125.423 139.232 124.682 138.847V138.847Z" fill="white"/>
<path d="M102.099 74.7551C101.492 76.1212 101.258 77.9428 101.809 79.3563C102.372 80.7998 103.563 81.4522 104.659 81.9954L107.82 83.5625C108.872 84.0839 110.006 84.6105 111.078 84.1815C112.371 83.6642 113.268 81.6367 113.036 79.7545C112.789 77.7515 111.527 76.3738 110.359 75.2005C108.725 73.5586 107.091 71.9168 105.457 70.2749L104.536 71.4028C103.54 72.3744 102.716 73.5079 102.099 74.7551V74.7551Z" fill="white"/>
<path d="M213.391 96.1662C214.813 96.5011 216.236 96.836 217.658 97.171C217.41 101.975 215.029 106.42 211.836 108.031C210.505 108.701 209.023 108.948 207.922 110.201C206.926 111.339 206.422 113.11 205.958 114.803C205.146 117.757 204.334 120.712 203.522 123.666C202.65 126.851 201.531 130.388 199.264 131.535C197.319 132.521 195.093 131.315 193.598 129.291C192.102 127.268 191.189 124.547 190.303 121.896C190.358 124.786 189.014 127.621 187.11 128.626C185.201 129.631 182.88 128.722 181.604 126.479C180.687 124.869 180.306 122.744 179.406 121.111C178.507 119.478 176.621 118.542 175.64 120.074C174.993 121.093 175.075 122.653 174.754 123.946C174.254 125.956 172.74 127.218 171.24 127.328C169.744 127.438 168.285 126.575 167.032 125.405C164.449 122.983 162.545 119.138 161.806 114.867C161.481 112.963 161.389 110.889 161.953 109.104C162.517 107.32 163.88 105.943 165.234 106.283C166.124 104.402 164.366 101.906 162.784 102.126C161.196 102.346 159.953 104.048 158.65 105.356C157.351 106.663 155.534 107.613 154.227 106.315C154.236 107.521 153.254 108.32 152.405 108.219C151.561 108.122 150.808 107.443 150.033 106.962C147.037 105.094 143.233 106.333 141.104 109.866C142.435 104.204 144.385 97.7077 148.473 96.3772C150.143 95.8313 151.965 96.2809 153.543 95.3357C156.337 93.6612 156.902 87.3343 154.488 84.7238C154.796 87.1921 154.736 90.0733 153.433 91.7617C152.13 93.4501 149.395 92.3489 149.56 89.8531C149.184 91.5736 147.312 91.8351 146.45 90.5137C145.583 89.1925 145.656 87.0315 146.271 85.4532C146.886 83.875 147.932 82.7417 148.946 81.6544C151.125 79.3191 153.337 76.9563 155.86 75.4881C158.388 74.02 161.306 73.5245 163.839 74.9835C165.174 75.7543 166.349 77.0389 167.711 77.7179C169.074 78.4015 170.804 78.3144 171.708 76.7177C172.722 74.9376 172.244 72.2949 172.621 70.0698C173.295 66.1379 177.227 64.2981 179.406 66.8949C177.778 66.4774 176.094 68.4043 175.892 70.7396C175.685 73.0749 176.865 75.4331 178.443 76.1397C181.095 77.3142 183.692 74.3595 185.697 71.6251C187.789 68.7622 189.884 65.9008 191.983 63.041C192.318 62.5541 192.694 62.0967 193.107 61.6738C193.764 61.0333 194.64 60.6665 195.557 60.6477C196.475 60.629 197.365 60.9597 198.048 61.5729C200.168 63.3025 201.164 66.8491 202.902 69.2898C205.426 72.8363 209.202 73.6989 212.717 74.3871C215.336 74.8963 217.958 75.4086 220.581 75.924C222.329 79.1766 223.854 82.5443 225.146 86.0038C220.704 87.8895 216.607 91.4177 213.391 96.1662Z" fill="white"/>
<path d="M169.847 131.99C166.928 132.173 164.616 128.58 163.079 125.044C161.543 121.509 160.141 117.467 157.507 115.667C156.002 114.639 154.286 114.498 152.653 114C151.021 113.501 149.312 112.471 148.532 110.371L146.68 109.623C144.235 110.998 141.757 112.398 139.65 114.636C137.286 117.146 135.814 120.364 135.461 123.794C135.107 127.5 136.413 131.633 138.854 133.025C140.782 134.125 143.028 133.432 144.981 134.439C147.422 135.698 148.871 139.353 149.419 142.962C149.968 146.571 149.829 150.322 150.221 153.972C150.613 157.622 151.695 161.42 153.933 163.29C156.734 165.631 160.844 163.686 162.101 159.425C162.717 157.335 162.696 154.977 163.157 152.807C163.969 148.986 166.16 146.152 167.897 143.018C169.635 139.883 171.003 135.627 169.847 131.99Z" fill="white"/>
<path d="M169.031 149.653C168.679 150.292 168.376 150.957 168.125 151.643C167.792 152.753 167.572 153.894 167.468 155.049C167.386 155.705 167.361 156.543 167.772 156.863C167.89 156.941 168.033 156.974 168.173 156.955C168.313 156.936 168.442 156.866 168.535 156.759C168.763 156.518 168.95 156.24 169.088 155.937C169.896 154.545 170.524 153.056 170.955 151.505C171.349 149.872 171.345 147.949 170.65 146.535C170.11 147.574 169.57 148.614 169.031 149.653Z" fill="white"/>
<path d="M222.953 186.419C224.074 188.101 236.267 234.316 236.267 234.316L247.078 235.548L245.795 223.92L243.834 203.343L240.796 189.608C240.796 189.608 251.522 165.197 252.201 163.253L252.682 161.858L256.034 192.27C256.432 193.356 256.605 194.511 256.544 195.666C256.443 197.565 258.348 226.145 258.348 226.145L259.264 236.395L268.527 237.681L272.286 219.947C275.424 214.186 273.625 193.716 272.342 191.81C271.058 189.905 271.568 176.635 271.568 176.635C273.207 176.058 282.979 142.736 278.091 142.933C278.405 141.157 278.652 139.571 278.652 139.571L270.167 132.729L248.933 127.209L243.576 124.637C243.576 124.637 234.008 142.328 234.104 143.208C234.235 144.322 233.98 145.448 233.381 146.397L223.72 178.725C223.72 178.725 221.821 184.721 222.953 186.419Z" fill="#2F2E41"/>
<path d="M216.069 114.705C216.18 113.982 216.29 113.26 216.4 112.537C216.579 111.743 216.601 110.922 216.466 110.12C216.435 109.944 216.369 109.777 216.273 109.627C216.177 109.478 216.051 109.349 215.904 109.249C215.758 109.148 215.592 109.078 215.418 109.043C215.243 109.007 215.064 109.007 214.889 109.042L214.695 109.344C214.658 110.737 214.581 112.255 213.708 113.634C213.364 114.178 212.916 114.663 212.562 115.202C212.208 115.741 211.946 116.389 212.085 116.866C212.285 117.559 213.205 117.561 213.996 117.284C214.67 117.077 215.254 116.649 215.655 116.069C215.885 115.648 216.026 115.183 216.069 114.705V114.705Z" fill="#E6E6E6"/>
<path d="M92.2927 111.478C94.2223 111.478 95.7866 109.914 95.7866 107.985C95.7866 106.055 94.2223 104.491 92.2927 104.491C90.3631 104.491 88.7988 106.055 88.7988 107.985C88.7988 109.914 90.3631 111.478 92.2927 111.478Z" fill="#335EF7"/>
<path d="M156.009 103.212C158.578 103.212 160.661 101.129 160.661 98.5593C160.661 95.9897 158.578 93.9067 156.009 93.9067C153.439 93.9067 151.356 95.9897 151.356 98.5593C151.356 101.129 153.439 103.212 156.009 103.212Z" fill="#335EF7"/>
<path d="M141.002 94.4456C141.274 94.6962 141.528 94.9659 141.762 95.2526C142.004 95.67 142.128 96.1455 142.119 96.628C142.111 97.1105 141.971 97.5815 141.715 97.9904C142.067 97.9704 142.41 97.8777 142.724 97.7181C143.038 97.5585 143.316 97.3356 143.539 97.0633C144.072 96.4566 144.541 95.7964 144.938 95.0933C145.236 94.6078 145.552 93.9514 145.35 93.3747C145.212 92.9812 144.886 92.8133 144.658 92.5173C144.295 92.0482 144.205 91.303 144.018 90.6592C143.613 89.2684 142.643 88.2458 141.589 88.0996L141.735 88.1276C141.296 88.2783 140.988 88.9771 141.086 89.6058C141.174 90.1783 141.542 90.6536 141.505 91.2376C141.453 92.0773 140.614 92.4713 140.562 93.3111C140.554 93.7324 140.712 94.1399 141.002 94.4456V94.4456Z" fill="white"/>
<path d="M136 80.177C136.004 80.1758 136.009 80.1756 136.013 80.1745C136.103 80.0927 136.186 80.004 136.262 79.9092L136 80.177Z" fill="#E6E6E6"/>
<path d="M136.875 84.1181C137.521 83.7031 137.881 82.5553 137.668 81.5946C137.456 80.6398 136.705 79.9979 136.013 80.1742C135.812 80.3778 135.563 80.527 135.289 80.6077C135.014 80.6885 134.724 80.6982 134.445 80.6359C134.017 80.5257 133.547 80.242 133.176 80.5644C132.963 80.8052 132.815 81.0954 132.743 81.4085C132.606 81.8303 132.469 82.252 132.331 82.6738C132.266 82.8247 132.249 82.9922 132.282 83.1532C132.309 83.2178 132.351 83.2744 132.406 83.3178C132.46 83.3612 132.525 83.3898 132.594 83.4009C133.418 83.6439 134.243 83.8869 135.067 84.13C135.668 84.307 136.316 84.4777 136.875 84.1181Z" fill="white"/>
<path d="M276.3 70.7348L272.922 63.563L261.424 64.0048L257.674 71.466C257.674 71.466 246.957 84.2664 246.61 88.4286C246.174 93.6635 249.8 119.32 246.174 117.657C246.174 117.657 237.625 127.69 242.683 127.69C247.742 127.69 270.622 142.053 272.124 143.668C273.625 145.283 280.327 146.33 279.765 142.958C279.203 139.586 276.3 121.35 276.3 121.35L284.16 92.6746C286.423 86.4836 287.127 79.5392 282.013 75.3806L276.3 70.7348Z" fill="#CCCCCC"/>
<path d="M153.451 66.3736C153.707 66.6243 154.032 66.7946 154.384 66.8633C154.736 66.932 155.1 66.8962 155.432 66.7603C156.12 66.4597 156.751 66.0432 157.297 65.5288C157.749 65.1941 158.133 64.7755 158.427 64.2958C158.589 64.0092 158.693 63.6933 158.733 63.3664C158.772 63.0395 158.747 62.708 158.658 62.3909C158.403 61.6442 157.755 61.3939 157.184 61.2244C156.268 60.953 155.353 60.6817 154.438 60.4103L155.1 59.8137C154.419 59.4482 153.666 60.1266 153.24 60.9664C152.967 61.5147 152.777 62.1005 152.676 62.7046C152.448 64.0227 152.671 65.5924 153.451 66.3736Z" fill="#E6E6E6"/>
<path d="M169.606 60.9505C169.864 61.2349 170.22 61.4104 170.603 61.4415C170.986 61.4727 171.366 61.357 171.666 61.1182C171.925 60.9239 172.14 60.6774 172.297 60.3946C172.454 60.1118 172.549 59.7991 172.577 59.4769C172.642 58.7572 172.286 57.9572 171.778 57.895L171.894 57.2212C170.915 57.0443 169.71 57.0089 169.186 58.1979C169.009 58.6534 168.954 59.1474 169.028 59.6304C169.102 60.1134 169.301 60.5687 169.606 60.9505Z" fill="#E6E6E6"/>
<path d="M100.882 52.8312C96.5714 52.3449 92.2442 53.591 88.8523 56.2951C85.4604 58.9992 83.2816 62.94 82.7954 67.2505C81.7828 76.2265 86.5119 95.7183 95.1339 103.787C99.1936 88.328 113.42 79.1585 115.302 70.9171C117.313 62.1108 109.858 53.8437 100.882 52.8312Z" fill="#335EF7"/>
<path d="M97.9008 72.7864C100.847 72.7864 103.235 70.3981 103.235 67.452C103.235 64.506 100.847 62.1177 97.9008 62.1177C94.9547 62.1177 92.5664 64.506 92.5664 67.452C92.5664 70.3981 94.9547 72.7864 97.9008 72.7864Z" fill="white"/>
<path opacity="0.2" d="M102.314 63.6298C102.915 63.9906 103.438 64.4661 103.855 65.0292C104.271 65.5923 104.573 66.232 104.743 66.9117C104.912 67.5914 104.946 68.2978 104.842 68.9906C104.739 69.6834 104.5 70.349 104.139 70.9495C103.778 71.5499 103.303 72.0734 102.74 72.4901C102.176 72.9067 101.537 73.2084 100.857 73.3779C100.177 73.5473 99.471 73.5812 98.7782 73.4777C98.0854 73.3741 97.4198 73.1351 96.8193 72.7743C98.0557 73.0493 99.3496 72.8754 100.469 72.2836C101.589 71.6918 102.462 70.7207 102.931 69.5443C103.401 68.3678 103.436 67.0627 103.031 65.8626C102.626 64.6625 101.807 63.6457 100.721 62.9941C101.283 63.1187 101.821 63.3333 102.314 63.6298Z" fill="#231F20"/>
<path opacity="0.2" d="M115.323 70.9342C113.441 79.1756 99.2152 88.3451 95.1555 103.804C94.3446 103.038 93.5915 102.213 92.9023 101.336C97.4643 86.8047 110.805 77.975 112.623 70.0124C114.251 62.8856 109.679 56.1126 103.118 53.2515C111.06 55.2479 117.167 62.8641 115.323 70.9342Z" fill="#231F20"/>
<path d="M233.712 49.6266C232.175 49.0162 230.532 48.7147 228.877 48.7392C227.223 48.7637 225.59 49.1138 224.07 49.7696C222.551 50.4253 221.176 51.3738 220.024 52.5609C218.871 53.7481 217.964 55.1506 217.354 56.6883C214.786 63.1556 214.361 78.5998 219.138 86.3403C225.281 75.6701 237.709 71.7302 240.774 65.9849C244.05 59.8458 240.18 52.1938 233.712 49.6266Z" fill="#335EF7"/>
<path d="M216.178 91.577C217.664 91.577 218.869 90.3721 218.869 88.8857C218.869 87.3993 217.664 86.1943 216.178 86.1943C214.691 86.1943 213.486 87.3993 213.486 88.8857C213.486 90.3721 214.691 91.577 216.178 91.577Z" fill="#335EF7"/>
<path d="M214.964 87.9586C215.59 87.8297 216.236 87.8394 216.857 87.9873C217.479 88.1351 218.06 88.4174 218.561 88.8143C219.061 89.2112 219.469 89.713 219.754 90.2844C220.04 90.8558 220.197 91.4828 220.214 92.1214L229.536 95.6997L228.743 101.895L215.65 96.6569C214.575 96.6145 213.553 96.1793 212.778 95.4339C212.003 94.6885 211.528 93.6845 211.443 92.6123C211.359 91.5402 211.67 90.4742 212.319 89.6165C212.968 88.7588 213.909 88.1689 214.964 87.9586L214.964 87.9586Z" fill="#A0616A"/>
<path d="M228.541 64.0003C230.81 64.0003 232.65 62.1606 232.65 59.8913C232.65 57.6219 230.81 55.7822 228.541 55.7822C226.271 55.7822 224.432 57.6219 224.432 59.8913C224.432 62.1606 226.271 64.0003 228.541 64.0003Z" fill="white"/>
<path opacity="0.2" d="M232.594 57.943C233.347 58.73 233.756 59.7836 233.733 60.8724C233.709 61.9612 233.254 62.9961 232.468 63.7497C231.682 64.5032 230.628 64.9138 229.54 64.8912C228.451 64.8687 227.415 64.4148 226.661 63.6293C227.525 64.0837 228.521 64.2159 229.474 64.0024C230.426 63.7889 231.271 63.2436 231.857 62.464C232.444 61.6844 232.734 60.7215 232.676 59.7476C232.617 58.7736 232.214 57.8523 231.538 57.1484C231.931 57.3546 232.287 57.6229 232.594 57.943Z" fill="#231F20"/>
<path opacity="0.2" d="M240.786 66.0015C237.721 71.7469 225.293 75.6868 219.15 86.3569C218.703 85.6236 218.31 84.8581 217.975 84.0667C224.303 74.1879 236.004 70.3216 238.966 64.7705C241.617 59.8023 239.587 53.8436 235.289 50.3906C240.789 53.48 243.788 60.3757 240.786 66.0015Z" fill="#231F20"/>
<path d="M280.1 75.1923C279.118 74.5931 278.028 74.1936 276.892 74.0167C275.756 73.8397 274.596 73.8888 273.478 74.1611C272.361 74.4334 271.309 74.9237 270.381 75.6036C269.454 76.2836 268.67 77.1399 268.074 78.1235L254.694 100.219L224.441 93.0479L221.685 100.614L260.426 118.965L280.048 87.714C282.986 83.5858 284.424 77.8325 280.1 75.1923Z" fill="#CCCCCC"/>
<path opacity="0.2" d="M268.269 92.6382L260.445 101.703L247.517 97.8855L261.611 104.38L268.269 92.6382Z" fill="black"/>
<path d="M167.447 25.1158C161.707 24.4684 155.945 26.1276 151.428 29.7285C146.911 33.3294 144.01 38.577 143.363 44.3169C142.014 56.2696 148.312 82.2252 159.793 92.9698C165.199 72.3841 184.142 60.1738 186.649 49.1994C189.327 37.4729 179.4 26.4641 167.447 25.1158Z" fill="#335EF7"/>
<path d="M163.477 51.6886C167.4 51.6886 170.581 48.5083 170.581 44.5853C170.581 40.6622 167.4 37.4819 163.477 37.4819C159.554 37.4819 156.374 40.6622 156.374 44.5853C156.374 48.5083 159.554 51.6886 163.477 51.6886Z" fill="white"/>
<path opacity="0.2" d="M169.355 39.4963C170.155 39.9767 170.852 40.61 171.407 41.3598C171.962 42.1097 172.363 42.9615 172.589 43.8666C172.815 44.7717 172.86 45.7123 172.722 46.6349C172.584 47.5575 172.266 48.4438 171.785 49.2434C171.305 50.0429 170.672 50.74 169.922 51.2949C169.172 51.8497 168.32 52.2514 167.415 52.477C165.587 52.9328 163.653 52.6436 162.038 51.6733C163.684 52.0396 165.408 51.808 166.899 51.0199C168.39 50.2318 169.552 48.9388 170.177 47.3722C170.802 45.8056 170.849 44.0677 170.31 42.4696C169.77 40.8715 168.68 39.5175 167.234 38.6499C167.982 38.8157 168.698 39.1015 169.355 39.4963V39.4963Z" fill="#231F20"/>
<path d="M280.6 48.1139C280.601 50.2435 280.079 52.3407 279.08 54.2214C278.081 56.1022 276.635 57.7089 274.87 58.9007C273.105 60.0924 271.075 60.8327 268.957 61.0566C266.839 61.2804 264.699 60.981 262.724 60.1845C260.749 59.3881 258.999 58.119 257.629 56.4887C256.259 54.8583 255.31 52.9166 254.866 50.8339C254.421 48.7512 254.495 46.5913 255.08 44.5437C255.665 42.4961 256.744 40.6235 258.222 39.0902L258.284 39.0278C258.389 38.9185 258.493 38.8092 258.602 38.7051C258.603 38.7051 258.603 38.705 258.604 38.7047C258.605 38.7045 258.605 38.7041 258.606 38.7036C258.606 38.7031 258.607 38.7026 258.607 38.7019C258.607 38.7013 258.607 38.7006 258.607 38.6999C258.742 38.575 258.878 38.4501 259.018 38.3305C260.898 36.6823 263.213 35.6109 265.687 35.2445C268.16 34.878 270.686 35.2322 272.963 36.2645C275.241 37.2967 277.172 38.9634 278.526 41.065C279.881 43.1665 280.601 45.6138 280.6 48.1139V48.1139Z" fill="#2F2E41"/>
<path d="M264.383 62.0344C270.409 62.0344 275.293 57.15 275.293 51.1246C275.293 45.0993 270.409 40.2148 264.383 40.2148C258.358 40.2148 253.474 45.0993 253.474 51.1246C253.474 57.15 258.358 62.0344 264.383 62.0344Z" fill="#9E616A"/>
<path d="M275.969 54.2359L274.161 53.9166C273.151 53.733 272.221 53.2454 271.496 52.5191C270.77 51.7927 270.284 50.8621 270.102 49.8518L268.338 52.8079L268.261 52.8334C264.059 54.2287 259.686 53.8114 254.897 51.5594C253.527 50.9098 252.199 50.1774 250.919 49.3662L250.824 49.3071L250.817 49.1962C250.573 45.6471 251.369 42.6821 253.06 40.8474C253.709 40.1572 254.497 39.6119 255.371 39.2473C256.246 38.8826 257.188 38.707 258.135 38.7318C258.202 38.7142 258.264 38.68 258.315 38.6323C258.34 38.6144 258.364 38.5967 258.388 38.5799V38.5616L258.513 38.5026C258.783 38.3761 259.057 38.2548 259.331 38.1441C261.49 37.3084 263.841 37.0987 266.113 37.5392C268.386 37.9797 270.488 39.0525 272.178 40.6342C275.539 43.8424 277.08 49.2264 276.014 54.0321L275.969 54.2359Z" fill="#2F2E41"/>
<path d="M298.98 63.5301C295.268 61.6139 300.042 54.6595 299.083 50.5934C298.123 46.5273 291.214 45.2194 290.774 41.0649C290.334 36.9104 289.298 32.6254 286.557 29.473C284.805 27.4585 282.223 25.9714 279.566 26.2237C278.666 26.3091 277.796 26.5873 277.014 27.0393C276.232 27.4913 275.557 28.1065 275.034 28.8431C274.511 29.5797 274.153 30.4203 273.984 31.3077C273.816 32.195 273.84 33.1083 274.057 33.9853C273.3 32.9132 271.342 33.1455 270.857 34.3651C270.426 35.4493 271.378 36.7625 272.498 36.8584C273.964 38.6688 275.643 40.5901 277.94 40.9553C278.306 41.0394 278.686 41.0392 279.052 40.9547C279.418 40.8703 279.76 40.7038 280.052 40.4679C280.592 39.949 280.634 38.9117 279.993 38.5239C282.879 39.6704 284.572 42.791 285 45.867C285.428 48.9429 284.836 52.0551 284.445 55.1361C284.055 58.217 283.886 61.458 285.095 64.3191C286.522 67.6994 289.808 70.1222 293.394 70.8992C296.981 71.6762 300.8 70.9168 304.046 69.2059C307.293 67.495 310 64.8831 312.211 61.9548C308.402 64.6596 303.132 65.6729 298.98 63.5301Z" fill="#2F2E41"/>
<path d="M275.505 53.9329C275.505 53.9329 272.273 41.8696 258.42 39.0854C258.404 39.0802 258.352 39.0594 258.284 39.0282C258.243 39.0022 258.191 38.9761 258.139 38.9501C258.295 38.8616 258.446 38.7836 258.602 38.7055C258.603 38.7055 258.603 38.7054 258.604 38.7051C258.605 38.7048 258.605 38.7045 258.606 38.704C258.606 38.7035 258.606 38.7029 258.607 38.7023C258.607 38.7016 258.607 38.701 258.607 38.7003C258.742 38.5754 258.878 38.4505 259.018 38.3308L259.414 38.3464C259.414 38.3464 273.314 36.1451 275.505 53.9329Z" fill="#FD6584"/>
<path opacity="0.2" d="M186.678 49.2224C184.171 60.1968 165.228 72.4071 159.822 92.9928C158.742 91.9726 157.739 90.8739 156.821 89.7058C162.896 70.3558 180.661 58.5981 183.082 47.9949C185.25 38.5048 179.161 29.4857 170.424 25.6758C181 28.3342 189.132 38.4761 186.678 49.2224Z" fill="#231F20"/>
<path d="M39.4127 56.0489C39.0933 56.0986 38.7664 56.0489 38.4762 55.9065C38.1861 55.7642 37.9467 55.5361 37.7905 55.2532C37.6343 54.9702 37.5688 54.6461 37.603 54.3247C37.6372 54.0033 37.7693 53.7002 37.9815 53.4565C38.004 53.2951 38.0201 53.1793 38.0425 53.0179C38.0246 52.9853 38.0067 52.9527 37.9887 52.9201C37.5823 52.1915 36.9696 51.5993 36.2276 51.2178C35.4857 50.8363 34.6476 50.6826 33.8185 50.7758C32.9895 50.8691 32.2065 51.2053 31.5679 51.7422C30.9293 52.279 30.4636 52.9926 30.2293 53.7932C29.2923 56.989 28.009 60.2277 27.9627 63.504C27.9428 64.9521 28.1743 66.3927 28.6469 67.7617C24.9574 61.5815 22.64 54.6803 21.8517 47.526C21.6558 45.7305 21.5604 43.9255 21.566 42.1193C21.5719 40.6385 21.6428 39.1612 21.7788 37.6873C22.526 29.6892 25.1599 21.9824 29.4641 15.1998C31.7327 13.6216 33.463 11.3859 34.4219 8.79409C34.77 7.86204 34.9813 6.88451 35.0494 5.8919C34.7812 5.95717 34.5071 6.00954 34.237 6.05695C34.1527 6.07061 34.064 6.08479 33.9797 6.09848L33.9479 6.10339C33.6504 6.14933 33.3459 6.10829 33.0711 5.9852C32.7964 5.86212 32.563 5.66225 32.3992 5.40965C32.2354 5.15705 32.1481 4.86248 32.1479 4.56142C32.1476 4.26036 32.2343 3.96565 32.3977 3.71274C32.4994 3.55541 32.6012 3.39814 32.7031 3.24093C32.8573 2.99852 33.0164 2.76009 33.1705 2.51772C33.1888 2.4943 33.2057 2.46984 33.2212 2.44448C33.3988 2.16794 33.5767 1.89589 33.7543 1.61935C33.3165 1.07886 32.7599 0.646767 32.1277 0.356774C29.9406 -0.623756 27.1947 0.51875 25.9118 2.54006C24.6244 4.56182 24.6273 7.20146 25.3974 9.46877C26.1212 11.3906 27.1669 13.1752 28.4896 14.7461C28.3936 14.901 28.2927 15.0519 28.1967 15.2067C26.4435 18.0493 24.9731 21.0568 23.8066 24.1861C23.8072 20.8224 23.0092 17.5066 21.4782 14.5115C19.9542 11.7307 17.4248 9.52425 15.1584 7.22348C12.4361 4.45991 7.67174 6.31341 7.66703 10.1925C7.66699 10.2301 7.66704 10.2676 7.66719 10.3051C7.98131 10.4399 8.2903 10.5856 8.59415 10.7422C8.97613 10.9414 9.28903 11.2513 9.49186 11.6314C9.69469 12.0114 9.77798 12.4439 9.73082 12.8721C9.68366 13.3003 9.50826 13.7042 9.22759 14.031C8.94692 14.3578 8.57407 14.5922 8.15789 14.7035L8.11528 14.7149C8.33673 15.7701 8.63808 16.8069 9.01672 17.8163C10.1019 20.6314 11.757 23.1919 13.8782 25.3374C15.9994 27.4829 18.541 29.1671 21.3436 30.2843C21.5273 30.3546 21.7064 30.4253 21.8896 30.4912C20.8546 34.894 20.3964 39.4127 20.5268 43.9336C20.6121 46.5999 20.913 49.255 21.4264 51.8728L21.4029 51.7806C20.5123 48.9044 18.6565 46.4237 16.1486 44.7573C12.4284 42.3234 7.49113 41.8152 3.56155 39.961C3.14265 39.7522 2.67278 39.6676 2.20735 39.7171C1.74192 39.7665 1.30034 39.9481 0.934702 40.2403C0.569064 40.5325 0.294613 40.9231 0.143721 41.3662C-0.00717178 41.8092 -0.0282142 42.2862 0.0830777 42.7408C0.0915847 42.7731 0.100181 42.8053 0.108859 42.8376C0.682409 43.0015 1.24518 43.2011 1.79392 43.435C2.10805 43.5698 2.41703 43.7155 2.72088 43.8721C3.10286 44.0713 3.41576 44.3812 3.61859 44.7612C3.82142 45.1413 3.9047 45.5737 3.85755 46.0019C3.81039 46.4301 3.63499 46.8341 3.35432 47.1609C3.07365 47.4877 2.7008 47.7221 2.28462 47.8334L2.24197 47.8448C2.21125 47.8526 2.18496 47.86 2.15429 47.8679C3.33642 50.0064 4.87784 51.9254 6.71105 53.541C8.97083 55.4922 11.6054 56.9613 14.4531 57.8582C17.3008 58.7551 20.3017 59.061 23.2719 58.7569L23.2764 58.7565C24.4629 62.1698 26.0009 65.4507 27.8657 68.5461L40.3093 67.1927C40.3389 67.0496 40.3635 66.9025 40.3886 66.7599C39.2447 66.9575 38.0808 67.0144 36.9231 66.9292C37.7231 65.696 38.5221 64.4538 39.3222 63.2206C39.3404 63.1972 39.3574 63.1728 39.3729 63.1474C39.7781 62.5167 40.1883 61.89 40.5935 61.2593L40.5937 61.2585C40.4253 59.4786 40.0285 57.7278 39.4131 56.0492L39.4127 56.0489Z" fill="#F2F2F2"/>
<path d="M320.513 177.144C314.88 177.144 308.706 176.932 301.991 176.506C267.259 174.3 222.271 166.633 175.313 154.915C128.355 143.198 85.0383 128.831 53.3419 114.461C37.9017 107.461 26.0514 100.835 18.1206 94.766C9.72392 88.3415 6.05111 82.7415 7.20373 78.1222C9.44958 69.1231 29.3355 67.1543 45.6222 67.0874L45.6278 68.3961C23.2617 68.4879 10.0669 72.0547 8.47375 78.4392C6.44435 86.5708 22.9953 99.2656 53.8824 113.269C85.5091 127.607 128.746 141.947 175.63 153.646C222.513 165.344 267.419 172.999 302.075 175.2C335.919 177.349 356.495 173.918 358.524 165.786C360.208 159.035 349.101 149.089 327.249 137.781L327.85 136.619C343.729 144.835 362.16 156.621 359.794 166.103C358.641 170.723 352.768 173.94 342.337 175.667C336.391 176.651 329.088 177.144 320.513 177.144Z" fill="#335EF7"/>
</g>
<defs>
<clipPath id="clip0_1127_18343">
<rect width="360" height="258" fill="white"/>
</clipPath>
</defs>
</svg>
