<svg width="360" height="257" viewBox="0 0 360 257" fill="none" xmlns="http://www.w3.org/2000/svg">
<g clip-path="url(#clip0_1127_18274)">
<path d="M23.8604 257H336.121C336.28 257 336.431 256.937 336.543 256.825C336.655 256.713 336.718 256.561 336.718 256.402C336.718 256.244 336.655 256.092 336.543 255.98C336.431 255.868 336.28 255.805 336.121 255.805H23.8604C23.7021 255.805 23.5504 255.868 23.4384 255.98C23.3265 256.092 23.2637 256.244 23.2637 256.402C23.2637 256.561 23.3265 256.713 23.4384 256.825C23.5504 256.937 23.7021 257 23.8604 257Z" fill="#CCCCCC"/>
<path d="M282.627 211.091C278.008 211.091 273.309 210.988 268.532 210.782L268.583 209.59C304.234 211.136 335.69 206.862 359.555 197.229L360 198.336C339.182 206.738 312.647 211.091 282.627 211.091Z" fill="#F0F0F0"/>
<path d="M254.637 212.881C250.018 212.881 245.319 212.778 240.542 212.571L240.593 211.379C276.244 212.925 307.699 208.652 331.565 199.019L332.01 200.126C311.192 208.528 284.657 212.881 254.637 212.881Z" fill="#F0F0F0"/>
<path d="M260.054 176.127C237.262 176.127 212.494 172.734 187.892 166.211C157.469 158.144 129.574 145.967 107.224 130.997L107.885 130.006C130.129 144.903 157.9 157.024 188.197 165.057C215.576 172.318 243.161 175.682 267.958 174.794L268.001 175.986C265.382 176.08 262.733 176.127 260.054 176.127Z" fill="#F0F0F0"/>
<path d="M312.343 168.625L311.962 167.495C332.346 160.591 345.096 149.471 348.833 135.335C353.582 117.364 343.263 96.5103 319.777 76.6149C296.17 56.6183 262.129 40.0262 223.923 29.8955L224.228 28.7422C262.601 38.9174 296.808 55.5954 320.546 75.7041C344.403 95.9136 354.858 117.199 349.984 135.64C346.14 150.182 333.124 161.587 312.343 168.625Z" fill="#F0F0F0"/>
<path d="M355.677 160.838C350.841 148.904 339.948 138.791 327.118 137.928C335.154 149.391 338.882 163.331 337.644 177.282C337.147 182.661 336.035 188.591 339.054 193.067C340.932 195.852 344.146 197.506 347.43 198.199C350.714 198.891 354.109 198.729 357.461 198.565L358.223 198.914C360.209 186.189 360.513 172.772 355.677 160.838Z" fill="#F2F2F2"/>
<path d="M327.064 138.193C335.965 144.038 342.8 152.544 346.6 162.502C347.456 164.631 347.972 166.882 348.128 169.172C348.208 171.408 347.689 173.624 346.625 175.591C345.67 177.445 344.478 179.23 343.989 181.285C343.754 182.34 343.745 183.433 343.961 184.492C344.178 185.551 344.616 186.552 345.246 187.43C346.759 189.658 348.981 191.209 351.207 192.65C353.678 194.249 356.27 195.872 357.829 198.454C358.018 198.766 358.492 198.454 358.303 198.142C355.59 193.65 350.13 192.151 346.706 188.369C345.108 186.604 344.031 184.346 344.438 181.921C344.793 179.801 346.021 177.959 347.004 176.09C348.071 174.186 348.655 172.05 348.708 169.868C348.668 167.578 348.24 165.311 347.441 163.164C345.72 158.302 343.247 153.742 340.111 149.65C336.558 144.96 332.231 140.913 327.316 137.685C327.012 137.485 326.761 137.995 327.064 138.193V138.193Z" fill="white"/>
<path d="M347.233 174.715C343.689 173.708 340.654 171.4 338.734 168.251C338.544 167.939 338.07 168.251 338.26 168.562C340.264 171.835 343.428 174.231 347.118 175.271C347.47 175.37 347.583 174.813 347.233 174.715Z" fill="white"/>
<path d="M345.566 159.223C347.147 158.358 348.37 156.957 349.016 155.272C349.662 153.587 349.689 151.727 349.092 150.024C348.97 149.68 348.43 149.853 348.552 150.198C349.111 151.783 349.086 153.516 348.481 155.084C347.877 156.652 346.732 157.951 345.255 158.749C344.934 158.922 345.247 159.396 345.566 159.223Z" fill="white"/>
<path d="M336.19 145.615C335.647 146.078 334.999 146.398 334.302 146.548C333.606 146.697 332.883 146.671 332.199 146.472C331.849 146.368 331.736 146.925 332.084 147.028C332.841 147.244 333.639 147.272 334.409 147.109C335.179 146.945 335.897 146.596 336.501 146.09C336.561 146.047 336.604 145.983 336.619 145.91C336.634 145.837 336.621 145.761 336.582 145.697C336.54 145.634 336.476 145.591 336.403 145.575C336.329 145.56 336.253 145.574 336.19 145.615H336.19Z" fill="white"/>
<path d="M83.8545 112.208C65.5923 94.2014 57.8792 75.4159 62.1354 59.3125C67.5975 38.6472 91.863 24.359 128.71 20.1113L128.846 21.2967C92.512 25.4849 68.6167 39.4526 63.2869 59.6177C59.1447 75.2895 66.7458 93.6646 84.6902 111.358L83.8545 112.208Z" fill="#F0F0F0"/>
<path d="M125.165 176.625C80.379 156.73 45.8683 130.919 27.9902 103.946L28.9824 103.286C46.7369 130.073 81.0664 155.731 125.647 175.535L125.165 176.625Z" fill="#F0F0F0"/>
<path d="M232.065 177.916C209.272 177.916 184.505 174.524 159.903 168C129.48 159.933 101.585 147.757 79.2344 132.787L79.8962 131.795C102.139 146.693 129.91 158.813 160.208 166.847C187.587 174.107 215.171 177.471 239.969 176.583L240.012 177.775C237.393 177.87 234.744 177.917 232.065 177.916Z" fill="#F0F0F0"/>
<path d="M284.353 170.414L283.971 169.284C304.356 162.381 317.106 151.26 320.842 137.124C325.592 119.154 315.273 98.2999 291.786 78.4044C268.18 58.4078 234.139 41.8158 195.933 31.6851L196.237 30.5317C234.611 40.707 268.817 57.385 292.555 77.4937C316.413 97.7031 326.868 118.989 321.994 137.429C318.15 151.971 305.134 163.377 284.353 170.414Z" fill="#F0F0F0"/>
<path d="M297.187 169.596C297.403 169.667 297.62 169.737 297.839 169.813C300.751 170.779 303.579 171.98 306.297 173.405C306.509 173.512 306.722 173.623 306.93 173.736C313.441 177.239 319.246 181.922 324.05 187.547C325.96 189.787 327.696 192.17 329.245 194.674C331.383 198.132 333.427 202.052 336.492 204.528C336.808 204.79 337.141 205.032 337.488 205.253L357.738 199.818C357.778 199.782 357.819 199.751 357.859 199.716L358.677 199.536C358.607 199.401 358.53 199.263 358.459 199.128C358.419 199.05 358.373 198.972 358.332 198.894C358.304 198.842 358.275 198.79 358.252 198.742C358.243 198.725 358.233 198.708 358.225 198.695C358.202 198.646 358.176 198.604 358.154 198.56C357.729 197.786 357.298 197.014 356.861 196.244C356.86 196.239 356.86 196.239 356.854 196.236C353.578 190.333 349.615 184.84 345.048 179.872C344.91 179.726 344.77 179.575 344.623 179.431C342.539 177.249 340.281 175.24 337.871 173.427C336.548 172.438 335.176 171.516 333.76 170.666C330.098 168.477 326.114 166.878 321.955 165.929C313.665 164.037 304.862 164.823 297.728 169.252C297.546 169.366 297.368 169.478 297.187 169.596Z" fill="#F2F2F2"/>
<path d="M297.301 169.841C307.921 169.141 318.492 171.81 327.512 177.469C329.475 178.653 331.24 180.139 332.741 181.874C334.149 183.61 335.067 185.693 335.4 187.905C335.751 189.962 335.873 192.106 336.717 194.041C337.164 195.025 337.813 195.903 338.623 196.618C339.433 197.333 340.384 197.869 341.415 198.19C343.962 199.056 346.668 198.954 349.312 198.763C352.246 198.55 355.291 198.282 358.088 199.403C358.427 199.539 358.618 199.004 358.279 198.869C353.413 196.918 348.152 199.014 343.145 198.059C340.808 197.613 338.591 196.46 337.458 194.278C336.467 192.371 336.34 190.16 336.002 188.075C335.709 185.912 334.892 183.854 333.622 182.08C332.214 180.275 330.509 178.723 328.581 177.49C324.285 174.647 319.568 172.497 314.605 171.121C308.949 169.518 303.062 168.897 297.197 169.283C296.834 169.307 296.94 169.865 297.301 169.841V169.841Z" fill="white"/>
<path d="M335.359 186.839C331.924 188.172 328.114 188.159 324.687 186.803C324.348 186.669 324.157 187.203 324.496 187.338C328.064 188.742 332.03 188.747 335.601 187.352C335.942 187.219 335.698 186.706 335.359 186.839V186.839Z" fill="white"/>
<path d="M309.05 170.264C308.895 170.961 308.57 171.608 308.103 172.147C307.637 172.686 307.044 173.101 306.379 173.354C306.037 173.483 306.281 173.996 306.621 173.868C307.355 173.584 308.009 173.125 308.525 172.531C309.042 171.936 309.405 171.224 309.583 170.456C309.606 170.385 309.601 170.308 309.569 170.24C309.537 170.173 309.481 170.12 309.412 170.093C309.341 170.068 309.263 170.072 309.196 170.104C309.128 170.136 309.075 170.194 309.05 170.264V170.264Z" fill="white"/>
<path d="M324.715 175.475C325.458 173.831 325.592 171.975 325.095 170.24C324.598 168.505 323.501 167.004 322.001 166.004C321.696 165.803 321.37 166.267 321.675 166.469C323.073 167.397 324.095 168.796 324.555 170.412C325.014 172.029 324.882 173.757 324.181 175.284C324.03 175.616 324.564 175.806 324.715 175.475L324.715 175.475Z" fill="white"/>
<path d="M55.8652 113.998C37.603 95.991 29.8899 77.2054 34.1462 61.1021C39.6083 40.4368 63.8737 26.1485 100.721 21.9009L100.857 23.0863C64.5228 27.2745 40.6275 41.2421 35.2977 61.4073C31.1554 77.079 38.7566 95.4542 56.7009 113.148L55.8652 113.998Z" fill="#F0F0F0"/>
<path d="M97.1743 178.415C52.3887 158.52 17.8781 132.709 0 105.736L0.992172 105.076C18.7466 131.862 53.0762 157.52 97.6571 177.324L97.1743 178.415Z" fill="#F0F0F0"/>
<path d="M20.3011 82.0446C28.8602 72.4327 42.5134 66.5746 54.8863 70.0813C43.4718 78.1721 35.2825 90.046 31.7671 103.602C30.4304 108.835 29.4875 114.795 25.1425 117.995C22.4389 119.986 18.8566 120.461 15.5318 120.008C12.2068 119.554 9.06293 118.259 5.96149 116.976L5.12695 117.048C7.52631 104.395 11.742 91.6564 20.3011 82.0446Z" fill="#F2F2F2"/>
<path d="M54.8485 70.3489C44.5039 72.8576 35.2115 78.5672 28.2912 86.6668C26.7705 88.384 25.5296 90.3305 24.614 92.4347C23.7883 94.5133 23.5334 96.7755 23.8758 98.9862C24.1537 101.054 24.6769 103.137 24.4482 105.236C24.3151 106.309 23.9572 107.341 23.3978 108.266C22.8384 109.19 22.0902 109.986 21.2022 110.601C19.0295 112.19 16.4163 112.902 13.8365 113.51C10.9723 114.185 7.98654 114.84 5.6517 116.747C5.36881 116.978 5.02747 116.525 5.30994 116.294C9.37214 112.977 15.0177 113.403 19.5122 110.993C21.6094 109.869 23.381 108.105 23.8118 105.684C24.1884 103.568 23.6506 101.419 23.3512 99.3282C22.9856 97.1765 23.1517 94.9679 23.8348 92.8953C24.6404 90.7512 25.8044 88.76 27.277 87.0071C30.5294 83.0077 34.3894 79.5454 38.7156 76.7469C43.6354 73.5257 49.0691 71.1712 54.7815 69.7852C55.1351 69.6995 55.1998 70.2639 54.8485 70.3489H54.8485Z" fill="white"/>
<path d="M23.5971 97.9565C27.2729 98.201 30.9056 97.0489 33.771 94.7298C34.0547 94.4999 34.3961 94.953 34.1127 95.1827C31.1265 97.5904 27.3436 98.7816 23.5191 98.5187C23.1545 98.4934 23.2345 97.9313 23.5971 97.9565Z" fill="white"/>
<path d="M72.4496 109.983C72.2215 109.977 71.9935 109.97 71.7625 109.967C68.6959 109.897 65.6286 110.076 62.591 110.503C62.3556 110.533 62.1175 110.566 61.8834 110.602C54.576 111.709 47.5373 114.166 41.1252 117.846C38.575 119.313 36.1399 120.973 33.8411 122.81C30.6664 125.347 27.4258 128.351 23.7091 129.651C23.3229 129.791 22.9283 129.907 22.5278 129.998L5.27958 118.062C5.25397 118.016 5.22547 117.972 5.19967 117.926L4.48926 117.481C4.60121 117.377 4.71954 117.273 4.8315 117.17C4.8962 117.11 4.96475 117.053 5.02941 116.993C5.07376 116.953 5.11832 116.914 5.1561 116.876C5.17082 116.863 5.18573 116.85 5.19773 116.841C5.23553 116.803 5.27462 116.772 5.30967 116.738C5.96948 116.152 6.63454 115.57 7.30486 114.992C7.30758 114.988 7.30759 114.988 7.31414 114.987C12.3798 110.53 17.9553 106.691 23.924 103.55C24.1034 103.458 24.2853 103.363 24.4725 103.277C27.1671 101.923 29.9677 100.792 32.8463 99.8945C34.4241 99.4084 36.0255 99.0026 37.6442 98.6786C41.8285 97.8496 46.1169 97.685 50.3523 98.1908C58.7952 99.2004 66.8219 102.903 72.0547 109.477C72.1885 109.645 72.3186 109.811 72.4496 109.983Z" fill="#F2F2F2"/>
<path d="M72.2599 110.175C62.4923 105.94 51.6408 104.895 41.2467 107.189C39.0003 107.643 36.8394 108.449 34.8436 109.577C32.9348 110.739 31.3715 112.391 30.316 114.363C29.295 116.181 28.4608 118.16 27.0163 119.698C26.2652 120.475 25.3587 121.083 24.3563 121.484C23.3538 121.885 22.2782 122.069 21.1997 122.024C18.5097 121.983 15.9949 120.976 13.5699 119.905C10.8773 118.717 8.09941 117.44 5.08912 117.554C4.72437 117.568 4.72426 117 5.08843 116.986C10.3258 116.787 14.5775 120.532 19.6143 121.319C21.9646 121.686 24.4396 121.345 26.2386 119.672C27.8117 118.209 28.6736 116.17 29.6915 114.32C30.6931 112.381 32.1532 110.718 33.9445 109.475C35.8765 108.249 38.0028 107.361 40.2323 106.849C45.2332 105.617 50.3965 105.181 55.5328 105.555C61.3973 105.95 67.1511 107.347 72.5453 109.685C72.8791 109.83 72.5915 110.319 72.2599 110.175H72.2599Z" fill="white"/>
<path d="M30.7117 113.373C33.4996 115.784 37.0927 117.055 40.7745 116.932C41.1393 116.919 41.1395 117.487 40.7752 117.499C36.9436 117.621 33.2071 116.291 30.3114 113.774C30.0356 113.534 30.4373 113.134 30.7117 113.373Z" fill="white"/>
<path d="M283.437 116.192C283.859 113.591 282.095 111.14 279.498 110.717C276.9 110.295 274.453 112.062 274.032 114.663C273.61 117.265 275.374 119.716 277.971 120.138C280.569 120.56 283.016 118.793 283.437 116.192Z" fill="#E6E6E6"/>
<path d="M61.0524 106.619C60.9646 107.327 61.0538 108.046 61.3119 108.711C61.57 109.376 61.989 109.966 62.5311 110.429C62.8099 110.665 62.4078 111.066 62.1309 110.831C61.5342 110.317 61.0724 109.664 60.7855 108.93C60.4987 108.196 60.3958 107.403 60.4856 106.62C60.4879 106.546 60.5184 106.475 60.571 106.422C60.6236 106.369 60.6942 106.338 60.7686 106.336C60.8437 106.336 60.9156 106.366 60.9687 106.419C61.0218 106.472 61.0519 106.544 61.0523 106.619H61.0524Z" fill="white"/>
<path d="M44.5499 106.254C44.4024 104.455 44.8982 102.662 45.9486 101.195C46.9991 99.7286 48.5359 98.6837 50.2845 98.2472C50.6386 98.16 50.7904 98.7071 50.4358 98.7943C48.8067 99.1978 47.3753 100.171 46.3999 101.539C45.4245 102.907 44.9694 104.579 45.1167 106.253C45.1482 106.617 44.5813 106.616 44.5499 106.254Z" fill="white"/>
<path d="M43.7626 74.2678C44.1181 74.886 44.6213 75.4061 45.2271 75.7813C45.8329 76.1566 46.5222 76.3753 47.2332 76.4177C47.5979 76.4384 47.5175 77.0005 47.1552 76.98C46.3699 76.9294 45.6089 76.687 44.9387 76.2739C44.2685 75.8608 43.7095 75.2896 43.3105 74.6102C43.2676 74.5493 43.2494 74.4743 43.2596 74.4005C43.2699 74.3266 43.3078 74.2594 43.3657 74.2126C43.4258 74.1676 43.5012 74.1481 43.5755 74.1585C43.6498 74.1688 43.7171 74.2081 43.7626 74.2679L43.7626 74.2678Z" fill="white"/>
<path d="M30.3664 83.9277C29.1673 82.5803 28.4855 80.8498 28.4426 79.0453C28.3997 77.2408 28.9986 75.4798 30.1324 74.0767C30.3628 73.7936 30.8128 74.1389 30.5821 74.4224C29.524 75.7269 28.9662 77.3674 29.0096 79.0476C29.0529 80.7279 29.6945 82.3373 30.8185 83.5854C31.0625 83.8569 30.609 84.1976 30.3664 83.9277Z" fill="white"/>
<path d="M101.076 69.1121C103.707 69.1121 105.84 66.9757 105.84 64.3402C105.84 61.7048 103.707 59.5684 101.076 59.5684C98.4445 59.5684 96.3115 61.7048 96.3115 64.3402C96.3115 66.9757 98.4445 69.1121 101.076 69.1121Z" fill="#FD6584"/>
<path d="M256.642 21.1813C249.239 18.7674 241.626 16.5198 234.012 14.5008C190.196 2.88272 147.126 -1.24231 109.454 2.574L109.334 1.38685C147.146 -2.44196 190.364 1.69294 234.316 13.3474C241.952 15.3722 249.587 17.6262 257.01 20.0471L256.642 21.1813Z" fill="#F0F0F0"/>
<path d="M228.652 22.9708C221.249 20.5569 213.635 18.3093 206.021 16.2904C162.206 4.67229 119.135 0.547262 81.4636 4.36354L81.3438 3.1764C119.156 -0.652409 162.374 3.48248 206.326 15.137C213.962 17.1618 221.597 19.4158 229.02 21.8367L228.652 22.9708Z" fill="#F0F0F0"/>
<path d="M243.037 66.7928H241.677V29.48C241.677 23.7525 239.406 18.2595 235.362 14.2095C231.319 10.1596 225.835 7.88429 220.116 7.88428H141.191C138.36 7.88427 135.556 8.44285 132.94 9.52813C130.324 10.6134 127.947 12.2041 125.945 14.2095C123.943 16.2148 122.355 18.5955 121.271 21.2156C120.188 23.8357 119.63 26.6439 119.63 29.4799V234.181C119.63 239.909 121.901 245.402 125.945 249.452C129.988 253.502 135.473 255.777 141.191 255.777H220.116C225.835 255.777 231.319 253.502 235.362 249.452C239.406 245.402 241.677 239.909 241.677 234.181V93.3528H243.037V66.7928Z" fill="#3F3D56"/>
<path d="M237.086 29.6301V234.032C237.087 236.149 236.671 238.246 235.862 240.202C235.053 242.159 233.868 243.936 232.373 245.434C230.878 246.931 229.104 248.119 227.151 248.93C225.198 249.74 223.104 250.158 220.99 250.158H141.679C137.409 250.158 133.314 248.459 130.295 245.436C127.276 242.412 125.579 238.31 125.579 234.033V29.6302C125.579 27.5125 125.995 25.4156 126.804 23.4592C127.613 21.5027 128.799 19.725 130.294 18.2276C131.789 16.7301 133.563 15.5422 135.517 14.7317C137.47 13.9212 139.563 13.504 141.678 13.5039H151.304C150.83 14.6672 150.649 15.9294 150.777 17.1793C150.905 18.4292 151.338 19.6285 152.037 20.6714C152.737 21.7143 153.682 22.5688 154.789 23.1597C155.896 23.7506 157.131 24.0598 158.385 24.0599H203.603C204.857 24.0589 206.092 23.7493 207.198 23.1582C208.305 22.567 209.249 21.7125 209.949 20.6699C210.648 19.6272 211.081 18.4284 211.209 17.1788C211.337 15.9292 211.157 14.6672 210.684 13.5039H220.986C223.1 13.5038 225.194 13.9208 227.147 14.7311C229.101 15.5414 230.875 16.7291 232.37 18.2264C233.866 19.7237 235.051 21.5013 235.861 23.4576C236.67 25.414 237.086 27.5109 237.086 29.6285L237.086 29.6301Z" fill="#F2F2F2"/>
<path d="M231.077 231.008H206.474V232.111H231.077V231.008Z" fill="white"/>
<path d="M193.634 231.008H169.031V232.111H193.634V231.008Z" fill="white"/>
<path d="M156.192 231.008H131.589V232.111H156.192V231.008Z" fill="white"/>
<path d="M235.73 248.493L228.247 248.492L224.688 219.585L235.731 219.585L235.73 248.493Z" fill="#FFB8B8"/>
<path d="M237.554 255.987H233.283L232.521 251.949L230.569 255.987H219.242C218.7 255.987 218.171 255.813 217.734 255.491C217.296 255.169 216.973 254.715 216.812 254.196C216.65 253.677 216.658 253.119 216.835 252.605C217.012 252.091 217.349 251.647 217.796 251.338L226.841 245.082V240.999L236.354 241.568L237.554 255.987Z" fill="#2F2E41"/>
<path d="M293.992 245.249L286.593 246.369L278.759 218.319L288.458 216.666L293.992 245.249Z" fill="#FFB8B8"/>
<path d="M295.183 255.987H290.912L290.15 251.949L288.198 255.987H276.871C276.328 255.987 275.8 255.813 275.362 255.491C274.925 255.169 274.602 254.715 274.441 254.196C274.279 253.677 274.287 253.119 274.464 252.605C274.641 252.091 274.978 251.647 275.425 251.338L284.469 245.082V240.999L293.983 241.568L295.183 255.987Z" fill="#2F2E41"/>
<path d="M219.903 193.767H139.703C139.157 193.767 138.634 193.55 138.248 193.163C137.862 192.777 137.646 192.253 137.646 191.706C137.646 191.159 137.862 190.635 138.248 190.249C138.634 189.862 139.157 189.645 139.703 189.645H219.903C220.449 189.645 220.972 189.862 221.358 190.249C221.744 190.635 221.961 191.159 221.961 191.706C221.961 192.253 221.744 192.777 221.358 193.163C220.972 193.55 220.449 193.767 219.903 193.767Z" fill="#CCCCCC"/>
<path d="M219.903 179.428H139.703C139.157 179.428 138.634 179.211 138.248 178.824C137.862 178.438 137.646 177.913 137.646 177.367C137.646 176.82 137.862 176.296 138.248 175.909C138.634 175.523 139.157 175.306 139.703 175.306H219.903C220.449 175.306 220.972 175.523 221.358 175.909C221.744 176.296 221.961 176.82 221.961 177.367C221.961 177.913 221.744 178.438 221.358 178.824C220.972 179.211 220.449 179.428 219.903 179.428Z" fill="#CCCCCC"/>
<path d="M219.903 165.088H139.703C139.433 165.088 139.165 165.035 138.916 164.931C138.666 164.828 138.439 164.676 138.248 164.485C138.057 164.293 137.906 164.066 137.802 163.816C137.699 163.566 137.646 163.298 137.646 163.027C137.646 162.757 137.699 162.489 137.802 162.239C137.906 161.989 138.057 161.761 138.248 161.57C138.439 161.379 138.666 161.227 138.916 161.123C139.165 161.02 139.433 160.966 139.703 160.966H219.903C220.173 160.966 220.441 161.02 220.69 161.123C220.94 161.227 221.167 161.379 221.358 161.57C221.549 161.761 221.7 161.989 221.804 162.239C221.907 162.489 221.961 162.757 221.961 163.027C221.961 163.298 221.907 163.566 221.804 163.816C221.7 164.066 221.549 164.293 221.358 164.485C221.167 164.676 220.94 164.828 220.69 164.931C220.441 165.035 220.173 165.088 219.903 165.088Z" fill="#CCCCCC"/>
<path d="M229.299 128.654L256.279 129.757L259.583 111.557L236.457 104.388L229.299 128.654Z" fill="#FFB8B8"/>
<path d="M257.381 124.242L231.502 119.83L230.581 121.73C225.628 131.968 222.704 143.071 221.97 154.424C221.345 164.008 220.977 174.13 220.965 184.741C220.946 201.181 221.784 216.436 223.108 230.317L237.312 230.228C236.901 215.49 237.46 200.742 238.984 186.078C240.071 175.622 241.582 165.854 243.33 156.841C246.573 170.072 251.149 182.939 256.988 195.244C261.952 205.758 272.162 217.91 277.125 228.424C282.211 227.813 287.297 227.201 292.383 226.59C288.375 215.973 281.225 200.47 277.216 189.853C271.486 174.673 268.897 164.38 263.166 149.2C263.493 146.346 263.557 143.469 263.357 140.603C263.09 135.827 262.098 130.096 259.199 126.276L257.381 124.242Z" fill="#2F2E41"/>
<path d="M121.746 90.2422H117.341V104.03H121.746V90.2422Z" fill="#3F3D56"/>
<path d="M181.332 136.854C201.929 136.854 218.626 120.13 218.626 99.5008C218.626 78.8711 201.929 62.1475 181.332 62.1475C160.736 62.1475 144.039 78.8711 144.039 99.5008C144.039 120.13 160.736 136.854 181.332 136.854Z" fill="#D1D3D4"/>
<path d="M181.332 135.234C200.123 135.234 215.355 119.977 215.355 101.156C215.355 82.3356 200.123 67.0786 181.332 67.0786C162.542 67.0786 147.31 82.3356 147.31 101.156C147.31 119.977 162.542 135.234 181.332 135.234Z" fill="#335EF7"/>
<path d="M178.362 114.512C178.289 114.512 178.215 114.511 178.14 114.507C177.488 114.475 176.85 114.303 176.27 114.001C175.69 113.699 175.183 113.275 174.782 112.759L169.42 105.854C168.682 104.903 168.352 103.697 168.501 102.502C168.65 101.307 169.266 100.22 170.214 99.4794L170.407 99.3296C171.357 98.5911 172.56 98.2601 173.754 98.4092C174.947 98.5583 176.033 99.1753 176.773 100.125C177.013 100.435 177.318 100.69 177.666 100.871C178.014 101.052 178.397 101.156 178.789 101.175C179.181 101.198 179.574 101.134 179.938 100.987C180.303 100.84 180.631 100.615 180.898 100.327L191.786 88.8155C192.614 87.9423 193.754 87.4337 194.956 87.4011C196.157 87.3685 197.323 87.8147 198.197 88.6418L198.374 88.8093C199.246 89.6385 199.755 90.7804 199.787 91.9844C199.82 93.1885 199.374 94.3563 198.548 95.2318L181.653 113.094C181.23 113.542 180.72 113.899 180.154 114.143C179.588 114.387 178.978 114.513 178.362 114.512Z" fill="white"/>
<path opacity="0.16" d="M181.332 130.513C172.725 130.512 164.438 127.242 158.141 121.364C151.845 115.485 148.008 107.434 147.403 98.834C147.348 99.6273 147.31 100.425 147.31 101.233C147.31 110.271 150.894 118.938 157.275 125.329C163.655 131.72 172.309 135.31 181.332 135.31C190.356 135.31 199.01 131.72 205.39 125.329C211.771 118.938 215.355 110.271 215.355 101.233C215.355 100.425 215.317 99.6273 215.262 98.834C214.657 107.434 210.82 115.485 204.523 121.364C198.227 127.242 189.94 130.512 181.332 130.513Z" fill="#231F20"/>
<path d="M121.746 73.6968H117.341V87.4846H121.746V73.6968Z" fill="#3F3D56"/>
<path d="M239.497 89.2351L239.758 80.6368L226.682 77.3532L203.139 70.4738C202.828 69.5271 202.236 68.6974 201.444 68.0946C200.651 67.4917 199.695 67.1441 198.7 67.0976C197.706 67.0512 196.721 67.3081 195.876 67.8345C195.031 68.3608 194.365 69.1317 193.967 70.0453C193.569 70.9588 193.457 71.9719 193.646 72.9506C193.835 73.9292 194.317 74.8273 195.027 75.526C195.736 76.2247 196.641 76.6911 197.621 76.8635C198.602 77.0359 199.611 76.9061 200.516 76.4914L223.404 85.9148L239.497 89.2351Z" fill="#FFB8B8"/>
<path d="M231.07 89.1747L238.426 78.666L238.61 78.6905C238.725 78.7057 250.261 80.2515 257.824 82.5072C258.674 82.7328 259.464 83.1414 260.14 83.7044C260.817 84.2675 261.362 84.9715 261.738 85.7673C262.279 86.8795 262.483 88.1255 262.327 89.3524C262.17 90.5793 261.659 91.7337 260.857 92.6738C260.04 93.6901 258.948 94.4493 257.712 94.8607C256.476 95.2721 255.148 95.3182 253.886 94.9936L231.07 89.1747Z" fill="#335EF7"/>
<path d="M261.379 116.329C262.672 118.749 259.602 123.762 257.381 124.242L231.789 115.956L244.675 78.5557L251.158 79.7359L261.527 81.4857L265.205 84.8342C266.131 85.6783 266.793 86.7736 267.11 87.9871C267.426 89.2006 267.384 90.4801 266.989 91.6702L261.379 116.329Z" fill="#335EF7"/>
<path d="M243.762 101.875L236.522 97.2476L227.01 106.816L209.055 123.547C208.083 123.331 207.069 123.414 206.146 123.787C205.223 124.161 204.435 124.806 203.886 125.637C203.338 126.469 203.054 127.447 203.072 128.444C203.091 129.441 203.411 130.408 203.99 131.219C204.57 132.029 205.381 132.644 206.318 132.982C207.254 133.321 208.27 133.367 209.233 133.114C210.196 132.861 211.059 132.321 211.709 131.566C212.358 130.811 212.764 129.876 212.872 128.885L232.673 114.02L243.762 101.875Z" fill="#FFB8B8"/>
<path d="M239.395 109.093L234.15 97.3838L234.265 97.2384C234.337 97.147 241.57 88.0138 247.377 82.6627C248.006 82.047 248.761 81.5761 249.59 81.2828C250.419 80.9894 251.302 80.8808 252.178 80.9643C253.408 81.0693 254.581 81.5316 255.553 82.2946C256.525 83.0575 257.253 84.088 257.649 85.2596C258.102 86.4826 258.194 87.8105 257.914 89.0845C257.634 90.3585 256.993 91.5248 256.069 92.4438L239.395 109.093Z" fill="#335EF7"/>
<path d="M255.709 76.0564C261.995 76.0564 267.091 70.9523 267.091 64.6561C267.091 58.3599 261.995 53.2559 255.709 53.2559C249.423 53.2559 244.327 58.3599 244.327 64.6561C244.327 70.9523 249.423 76.0564 255.709 76.0564Z" fill="#FFB8B8"/>
<path d="M264.9 81.1755L264.857 81.1645L248.317 77.0209C247.743 76.8773 247.212 76.6012 246.764 76.2147C246.317 75.8282 245.966 75.3421 245.74 74.7953C245.514 74.2485 245.42 73.6564 245.463 73.0662C245.507 72.4761 245.688 71.9045 245.992 71.3972L246.539 70.4867C247.072 69.5977 247.375 68.5889 247.419 67.5525C247.464 66.5162 247.248 65.4852 246.793 64.5536C246.009 63.0323 244.661 61.8792 243.039 61.3421L242.984 61.3157L242.637 61.0992C242.295 60.9377 241.991 60.7067 241.744 60.4207C241.497 60.1348 241.312 59.8003 241.202 59.4387C241.087 59.064 241.052 58.6694 241.099 58.2803C241.147 57.8913 241.275 57.5165 241.476 57.1801C242.936 54.7338 245.121 52.8042 247.727 51.6599C251.02 50.2401 254.729 50.1285 258.1 51.3478C258.325 51.1411 258.597 50.9935 258.893 50.9182C259.189 50.8429 259.498 50.8424 259.794 50.9166C268.36 52.9945 269.065 58.7533 267.373 67.9976L269.376 76.0891C269.517 76.6604 269.533 77.2558 269.422 77.8338C269.31 78.4117 269.075 78.9585 268.731 79.4361C268.388 79.9136 267.944 80.3105 267.432 80.5991C266.92 80.8877 266.351 81.0612 265.765 81.1074L264.9 81.1755ZM258.009 51.4388L258.008 51.4399L258.009 51.4388ZM258.215 51.3882L258.217 51.3887L258.215 51.3882Z" fill="#2F2E41"/>
<path d="M121.746 47.2241H117.341V70.9392H121.746V47.2241Z" fill="#3F3D56"/>
<path d="M231.077 33.0151H206.474V34.1182H231.077V33.0151Z" fill="white"/>
<path d="M193.634 33.0151H169.031V34.1182H193.634V33.0151Z" fill="white"/>
<path d="M156.192 33.0151H131.589V34.1182H156.192V33.0151Z" fill="white"/>
<path d="M159.74 19.0972C160.956 19.0972 161.942 18.1095 161.942 16.8911C161.942 15.6727 160.956 14.6851 159.74 14.6851C158.523 14.6851 157.537 15.6727 157.537 16.8911C157.537 18.1095 158.523 19.0972 159.74 19.0972Z" fill="white"/>
<path d="M100.881 15.412C103.513 15.412 105.646 13.2755 105.646 10.6401C105.646 8.00461 103.513 5.86816 100.881 5.86816C98.2502 5.86816 96.1172 8.00461 96.1172 10.6401C96.1172 13.2755 98.2502 15.412 100.881 15.412Z" fill="#E6E6E6"/>
</g>
<defs>
<clipPath id="clip0_1127_18274">
<rect width="360" height="257" fill="white"/>
</clipPath>
</defs>
</svg>
