<svg width="140" height="141" viewBox="0 0 140 141" fill="none" xmlns="http://www.w3.org/2000/svg">
<path fill-rule="evenodd" clip-rule="evenodd" d="M64.0377 127.952C65.861 128.962 67.9169 129.476 70.0007 129.443C72.0441 129.455 74.0563 128.942 75.8443 127.952L77.6332 126.939C91.5891 119.071 103.205 107.637 111.293 93.8081C119.381 79.9786 123.651 64.2492 123.667 48.2282V47.3934C123.686 45.2819 123.144 43.2032 122.096 41.3698C121.048 39.5364 119.533 38.014 117.704 36.9583L75.9636 13.4645C74.1506 12.4177 72.0941 11.8667 70.0007 11.8667C67.9072 11.8667 65.8507 12.4177 64.0377 13.4645L22.2974 36.9583C20.4686 38.014 18.9529 39.5364 17.9053 41.3698C16.8576 43.2032 16.3156 45.2819 16.3345 47.3934V48.2282C16.338 64.2374 20.5901 79.9588 28.6567 93.7872C36.7232 107.616 48.3152 119.055 62.2489 126.939L64.0377 127.952ZM68.6341 76.493C68.6341 76.493 53.695 98.987 54.4391 99.4601C55.1791 99.9328 85.89 76.3048 85.5994 74.4208C85.3128 72.5372 70.7364 66.7758 70.7364 66.7758C70.7364 66.7758 85.6471 44.3796 84.9355 43.809C84.2199 43.238 53.2192 67.0455 53.7711 68.8479C54.3191 70.6499 68.6341 76.493 68.6341 76.493Z" fill="url(#paint0_linear_1127_18403)"/>
<defs>
<linearGradient id="paint0_linear_1127_18403" x1="123.667" y1="129.445" x2="-5.72201" y2="95.198" gradientUnits="userSpaceOnUse">
<stop stop-color="#335EF7"/>
<stop offset="1" stop-color="#5F82FF"/>
</linearGradient>
</defs>
</svg>
