<svg width="428" height="926" viewBox="0 0 428 926" fill="none" xmlns="http://www.w3.org/2000/svg">
<g clip-path="url(#clip0_727_25927)">
<rect width="428" height="926" fill="white"/>
<path d="M47.333 92.3201C47.333 92.763 47.0038 93.1291 46.5767 93.1871L46.458 93.1951H28.958C28.4748 93.1951 28.083 92.8033 28.083 92.3201C28.083 91.8771 28.4122 91.511 28.8393 91.4531L28.958 91.4451H46.458C46.9413 91.4451 47.333 91.8368 47.333 92.3201Z" fill="#212121"/>
<path d="M36.634 98.7284C36.9764 99.0694 36.9776 99.6234 36.6367 99.9658C36.3267 100.277 35.8406 100.306 35.4975 100.053L35.3992 99.9685L28.3409 92.9405C28.0286 92.6296 28.0002 92.1418 28.2557 91.7987L28.3408 91.7004L35.3992 84.6713C35.7416 84.3303 36.2956 84.3314 36.6366 84.6738C36.9466 84.9851 36.9738 85.4713 36.719 85.8133L36.634 85.9113L30.1987 92.3208L36.634 98.7284Z" fill="#212121"/>
<path fill-rule="evenodd" clip-rule="evenodd" d="M208.038 279.152C209.861 280.162 211.917 280.676 214.001 280.643C216.044 280.655 218.056 280.142 219.844 279.152L221.633 278.139C235.589 270.271 247.205 258.837 255.293 245.008C263.381 231.179 267.651 215.449 267.667 199.428V198.593C267.686 196.482 267.144 194.403 266.096 192.57C265.048 190.736 263.533 189.214 261.704 188.158L219.964 164.664C218.151 163.618 216.094 163.067 214.001 163.067C211.907 163.067 209.851 163.618 208.038 164.664L166.297 188.158C164.469 189.214 162.953 190.736 161.905 192.57C160.858 194.403 160.316 196.482 160.334 198.593V199.428C160.338 215.437 164.59 231.159 172.657 244.987C180.723 258.815 192.315 270.255 206.249 278.139L208.038 279.152ZM212.634 227.693C212.634 227.693 197.695 250.187 198.439 250.66C199.179 251.133 229.89 227.505 229.599 225.621C229.313 223.737 214.736 217.976 214.736 217.976C214.736 217.976 229.647 195.58 228.936 195.009C228.22 194.438 197.219 218.245 197.771 220.048C198.319 221.85 212.634 227.693 212.634 227.693Z" fill="url(#paint0_linear_727_25927)"/>
<path d="M74.718 357.216C73.2033 357.216 71.7793 356.917 70.446 356.32C69.1127 355.712 67.9393 354.875 66.926 353.808C65.9233 352.741 65.134 351.509 64.558 350.112C63.9927 348.704 63.71 347.2 63.71 345.6C63.71 343.989 63.9927 342.485 64.558 341.088C65.134 339.68 65.9233 338.448 66.926 337.392C67.9393 336.325 69.1127 335.493 70.446 334.896C71.7793 334.288 73.2033 333.984 74.718 333.984C76.5313 333.984 78.2007 334.405 79.726 335.248C81.2513 336.08 82.5153 337.195 83.518 338.592L80.03 340.464C79.4007 339.685 78.6167 339.061 77.678 338.592C76.75 338.123 75.7633 337.888 74.718 337.888C73.7367 337.888 72.814 338.091 71.95 338.496C71.086 338.891 70.3287 339.445 69.678 340.16C69.0273 340.864 68.5207 341.685 68.158 342.624C67.7953 343.552 67.614 344.544 67.614 345.6C67.614 346.667 67.7953 347.664 68.158 348.592C68.5313 349.52 69.0433 350.341 69.694 351.056C70.3447 351.76 71.0967 352.315 71.95 352.72C72.814 353.115 73.7367 353.312 74.718 353.312C75.7847 353.312 76.7767 353.077 77.694 352.608C78.622 352.128 79.4007 351.499 80.03 350.72L83.518 352.608C82.5153 353.995 81.2513 355.109 79.726 355.952C78.2007 356.795 76.5313 357.216 74.718 357.216ZM96.148 344.768C95.86 344.576 95.5453 344.421 95.204 344.304C94.8733 344.187 94.5053 344.128 94.1 344.128C93.3213 344.128 92.6493 344.331 92.084 344.736C91.5293 345.141 91.1027 345.685 90.804 346.368C90.5053 347.04 90.356 347.787 90.356 348.608V356.8H86.42V340.8H90.324V342.688C90.8573 341.984 91.492 341.424 92.228 341.008C92.9747 340.592 93.8173 340.384 94.756 340.384C95.1187 340.384 95.4653 340.395 95.796 340.416C96.1373 340.437 96.4627 340.496 96.772 340.592L96.148 344.768ZM105.179 357.216C103.707 357.216 102.363 356.837 101.147 356.08C99.9414 355.323 98.9761 354.304 98.2508 353.024C97.5361 351.744 97.1788 350.331 97.1788 348.784C97.1788 347.621 97.3868 346.533 97.8028 345.52C98.2188 344.496 98.7894 343.6 99.5148 342.832C100.251 342.053 101.104 341.445 102.075 341.008C103.045 340.571 104.08 340.352 105.179 340.352C106.427 340.352 107.568 340.619 108.603 341.152C109.648 341.675 110.533 342.395 111.259 343.312C111.984 344.229 112.512 345.275 112.843 346.448C113.173 347.621 113.248 348.848 113.067 350.128H101.371C101.52 350.725 101.765 351.264 102.107 351.744C102.448 352.213 102.88 352.592 103.403 352.88C103.925 353.157 104.517 353.301 105.179 353.312C105.861 353.323 106.48 353.163 107.035 352.832C107.6 352.491 108.069 352.032 108.443 351.456L112.427 352.384C111.776 353.803 110.805 354.965 109.515 355.872C108.224 356.768 106.779 357.216 105.179 357.216ZM101.243 347.2H109.115C108.997 346.56 108.747 345.984 108.363 345.472C107.989 344.949 107.525 344.533 106.971 344.224C106.416 343.915 105.819 343.76 105.179 343.76C104.539 343.76 103.947 343.915 103.403 344.224C102.859 344.523 102.395 344.933 102.011 345.456C101.637 345.968 101.381 346.549 101.243 347.2ZM127.989 340.8H131.892V356.8H127.973L127.813 354.816C127.365 355.531 126.778 356.112 126.053 356.56C125.338 356.997 124.495 357.216 123.525 357.216C122.341 357.216 121.231 356.992 120.197 356.544C119.162 356.096 118.25 355.477 117.461 354.688C116.671 353.899 116.058 352.987 115.621 351.952C115.183 350.917 114.965 349.808 114.965 348.624C114.965 347.483 115.173 346.411 115.589 345.408C116.005 344.405 116.591 343.525 117.349 342.768C118.106 342.011 118.981 341.419 119.973 340.992C120.965 340.565 122.031 340.352 123.173 340.352C124.239 340.352 125.189 340.587 126.021 341.056C126.863 341.525 127.578 342.123 128.165 342.848L127.989 340.8ZM123.637 353.456C124.49 353.456 125.231 353.237 125.861 352.8C126.49 352.363 126.965 351.781 127.285 351.056C127.615 350.32 127.749 349.509 127.685 348.624C127.61 347.792 127.365 347.04 126.949 346.368C126.533 345.685 125.999 345.141 125.349 344.736C124.698 344.331 123.967 344.128 123.157 344.128C122.314 344.128 121.557 344.347 120.885 344.784C120.223 345.221 119.711 345.808 119.349 346.544C118.986 347.269 118.842 348.08 118.917 348.976C119.002 349.797 119.269 350.549 119.717 351.232C120.165 351.904 120.73 352.443 121.413 352.848C122.106 353.253 122.847 353.456 123.637 353.456ZM144.309 344.704H141.205V356.8H137.301V344.704H134.933V340.8H137.301V335.776H141.205V340.8H144.309V344.704ZM153.773 357.216C152.301 357.216 150.957 356.837 149.741 356.08C148.535 355.323 147.57 354.304 146.845 353.024C146.13 351.744 145.773 350.331 145.773 348.784C145.773 347.621 145.981 346.533 146.397 345.52C146.813 344.496 147.383 343.6 148.109 342.832C148.845 342.053 149.698 341.445 150.669 341.008C151.639 340.571 152.674 340.352 153.773 340.352C155.021 340.352 156.162 340.619 157.197 341.152C158.242 341.675 159.127 342.395 159.853 343.312C160.578 344.229 161.106 345.275 161.437 346.448C161.767 347.621 161.842 348.848 161.661 350.128H149.965C150.114 350.725 150.359 351.264 150.701 351.744C151.042 352.213 151.474 352.592 151.997 352.88C152.519 353.157 153.111 353.301 153.773 353.312C154.455 353.323 155.074 353.163 155.629 352.832C156.194 352.491 156.663 352.032 157.037 351.456L161.021 352.384C160.37 353.803 159.399 354.965 158.109 355.872C156.818 356.768 155.373 357.216 153.773 357.216ZM149.837 347.2H157.709C157.591 346.56 157.341 345.984 156.957 345.472C156.583 344.949 156.119 344.533 155.565 344.224C155.01 343.915 154.413 343.76 153.773 343.76C153.133 343.76 152.541 343.915 151.997 344.224C151.453 344.523 150.989 344.933 150.605 345.456C150.231 345.968 149.975 346.549 149.837 347.2ZM186.054 334.4H190.662L182.966 346.704V356.8H179.062V346.704L171.366 334.4H175.974L181.014 342.448L186.054 334.4ZM197.179 357.216C195.707 357.216 194.363 356.837 193.147 356.08C191.941 355.323 190.976 354.309 190.251 353.04C189.536 351.76 189.179 350.347 189.179 348.8C189.179 347.627 189.387 346.533 189.803 345.52C190.219 344.496 190.789 343.6 191.515 342.832C192.251 342.053 193.104 341.445 194.075 341.008C195.045 340.571 196.08 340.352 197.179 340.352C198.651 340.352 199.989 340.731 201.195 341.488C202.411 342.245 203.376 343.264 204.091 344.544C204.816 345.824 205.179 347.243 205.179 348.8C205.179 349.963 204.971 351.051 204.555 352.064C204.139 353.077 203.563 353.973 202.827 354.752C202.101 355.52 201.253 356.123 200.283 356.56C199.323 356.997 198.288 357.216 197.179 357.216ZM197.179 353.312C197.957 353.312 198.656 353.104 199.275 352.688C199.893 352.272 200.379 351.723 200.731 351.04C201.093 350.357 201.275 349.611 201.275 348.8C201.275 347.968 201.088 347.211 200.715 346.528C200.352 345.835 199.856 345.285 199.227 344.88C198.608 344.464 197.925 344.256 197.179 344.256C196.411 344.256 195.717 344.464 195.099 344.88C194.48 345.296 193.989 345.851 193.627 346.544C193.264 347.237 193.083 347.989 193.083 348.8C193.083 349.643 193.269 350.405 193.643 351.088C194.016 351.771 194.512 352.315 195.131 352.72C195.76 353.115 196.443 353.312 197.179 353.312ZM207.326 349.04V340.8H211.23V348.976C211.23 349.797 211.401 350.549 211.742 351.232C212.084 351.915 212.558 352.459 213.166 352.864C213.774 353.259 214.468 353.456 215.246 353.456C216.025 353.456 216.692 353.259 217.246 352.864C217.812 352.459 218.244 351.915 218.542 351.232C218.852 350.549 219.006 349.797 219.006 348.976V340.8H222.91V356.8H219.006V354.896C218.484 355.6 217.849 356.171 217.102 356.608C216.366 357.035 215.529 357.248 214.59 357.248C213.108 357.248 211.828 356.88 210.75 356.144C209.673 355.397 208.836 354.405 208.238 353.168C207.641 351.92 207.337 350.544 207.326 349.04ZM236.492 344.768C236.204 344.576 235.889 344.421 235.548 344.304C235.217 344.187 234.849 344.128 234.444 344.128C233.665 344.128 232.993 344.331 232.428 344.736C231.873 345.141 231.446 345.685 231.148 346.368C230.849 347.04 230.7 347.787 230.7 348.608V356.8H226.764V340.8H230.668V342.688C231.201 341.984 231.836 341.424 232.572 341.008C233.318 340.592 234.161 340.384 235.1 340.384C235.462 340.384 235.809 340.395 236.14 340.416C236.481 340.437 236.806 340.496 237.116 340.592L236.492 344.768ZM254.689 334.4H259.185L267.329 356.8H263.185L261.745 352.832H252.145L250.705 356.8H246.561L254.689 334.4ZM253.569 348.928H260.305L256.929 339.696L253.569 348.928ZM278.84 351.984L282.36 353.888C281.624 354.891 280.701 355.696 279.592 356.304C278.483 356.912 277.272 357.216 275.96 357.216C274.488 357.216 273.144 356.837 271.928 356.08C270.723 355.323 269.757 354.309 269.032 353.04C268.317 351.76 267.96 350.347 267.96 348.8C267.96 347.627 268.168 346.533 268.584 345.52C269 344.496 269.571 343.6 270.296 342.832C271.032 342.053 271.885 341.445 272.856 341.008C273.827 340.571 274.861 340.352 275.96 340.352C277.272 340.352 278.483 340.656 279.592 341.264C280.701 341.872 281.624 342.688 282.36 343.712L278.84 345.6C278.467 345.173 278.024 344.843 277.512 344.608C277.011 344.373 276.493 344.256 275.96 344.256C275.192 344.256 274.499 344.469 273.88 344.896C273.261 345.312 272.771 345.867 272.408 346.56C272.045 347.243 271.864 347.989 271.864 348.8C271.864 349.6 272.045 350.347 272.408 351.04C272.771 351.723 273.261 352.272 273.88 352.688C274.499 353.104 275.192 353.312 275.96 353.312C276.515 353.312 277.043 353.195 277.544 352.96C278.045 352.715 278.477 352.389 278.84 351.984ZM294.528 351.984L298.048 353.888C297.312 354.891 296.389 355.696 295.28 356.304C294.17 356.912 292.96 357.216 291.648 357.216C290.176 357.216 288.832 356.837 287.616 356.08C286.41 355.323 285.445 354.309 284.72 353.04C284.005 351.76 283.648 350.347 283.648 348.8C283.648 347.627 283.856 346.533 284.272 345.52C284.688 344.496 285.258 343.6 285.984 342.832C286.72 342.053 287.573 341.445 288.544 341.008C289.514 340.571 290.549 340.352 291.648 340.352C292.96 340.352 294.17 340.656 295.28 341.264C296.389 341.872 297.312 342.688 298.048 343.712L294.528 345.6C294.154 345.173 293.712 344.843 293.2 344.608C292.698 344.373 292.181 344.256 291.648 344.256C290.88 344.256 290.186 344.469 289.568 344.896C288.949 345.312 288.458 345.867 288.096 346.56C287.733 347.243 287.552 347.989 287.552 348.8C287.552 349.6 287.733 350.347 288.096 351.04C288.458 351.723 288.949 352.272 289.568 352.688C290.186 353.104 290.88 353.312 291.648 353.312C292.202 353.312 292.73 353.195 293.232 352.96C293.733 352.715 294.165 352.389 294.528 351.984ZM307.335 357.216C305.863 357.216 304.519 356.837 303.303 356.08C302.098 355.323 301.132 354.309 300.407 353.04C299.692 351.76 299.335 350.347 299.335 348.8C299.335 347.627 299.543 346.533 299.959 345.52C300.375 344.496 300.946 343.6 301.671 342.832C302.407 342.053 303.26 341.445 304.231 341.008C305.202 340.571 306.236 340.352 307.335 340.352C308.807 340.352 310.146 340.731 311.351 341.488C312.567 342.245 313.532 343.264 314.247 344.544C314.972 345.824 315.335 347.243 315.335 348.8C315.335 349.963 315.127 351.051 314.711 352.064C314.295 353.077 313.719 353.973 312.983 354.752C312.258 355.52 311.41 356.123 310.439 356.56C309.479 356.997 308.444 357.216 307.335 357.216ZM307.335 353.312C308.114 353.312 308.812 353.104 309.431 352.688C310.05 352.272 310.535 351.723 310.887 351.04C311.25 350.357 311.431 349.611 311.431 348.8C311.431 347.968 311.244 347.211 310.871 346.528C310.508 345.835 310.012 345.285 309.383 344.88C308.764 344.464 308.082 344.256 307.335 344.256C306.567 344.256 305.874 344.464 305.255 344.88C304.636 345.296 304.146 345.851 303.783 346.544C303.42 347.237 303.239 347.989 303.239 348.8C303.239 349.643 303.426 350.405 303.799 351.088C304.172 351.771 304.668 352.315 305.287 352.72C305.916 353.115 306.599 353.312 307.335 353.312ZM317.483 349.04V340.8H321.387V348.976C321.387 349.797 321.557 350.549 321.899 351.232C322.24 351.915 322.715 352.459 323.323 352.864C323.931 353.259 324.624 353.456 325.403 353.456C326.181 353.456 326.848 353.259 327.403 352.864C327.968 352.459 328.4 351.915 328.699 351.232C329.008 350.549 329.163 349.797 329.163 348.976V340.8H333.067V356.8H329.163V354.896C328.64 355.6 328.005 356.171 327.259 356.608C326.523 357.035 325.685 357.248 324.747 357.248C323.264 357.248 321.984 356.88 320.907 356.144C319.829 355.397 318.992 354.405 318.395 353.168C317.797 351.92 317.493 350.544 317.483 349.04ZM352.184 348.528V356.8H348.28V348.592C348.28 347.771 348.109 347.024 347.768 346.352C347.427 345.669 346.952 345.125 346.344 344.72C345.747 344.315 345.053 344.112 344.264 344.112C343.496 344.112 342.829 344.315 342.264 344.72C341.699 345.125 341.261 345.669 340.952 346.352C340.653 347.024 340.504 347.771 340.504 348.592V356.8H336.6V340.8H340.504V342.688C341.037 341.973 341.672 341.408 342.408 340.992C343.155 340.565 343.997 340.352 344.936 340.352C346.408 340.352 347.683 340.725 348.76 341.472C349.848 342.208 350.685 343.195 351.272 344.432C351.869 345.669 352.173 347.035 352.184 348.528ZM364.277 344.704H361.173V356.8H357.269V344.704H354.901V340.8H357.269V335.776H361.173V340.8H364.277V344.704Z" fill="#212121"/>
<rect x="24" y="400.2" width="380" height="60" rx="16" fill="#FAFAFA"/>
<path fill-rule="evenodd" clip-rule="evenodd" d="M58.1162 422.7C59.2337 422.7 60.3087 423.142 61.0995 423.934C61.8912 424.725 62.3337 425.792 62.3337 426.908V433.492C62.3337 435.817 60.442 437.7 58.1162 437.7H49.8837C47.5578 437.7 45.667 435.817 45.667 433.492V426.908C45.667 424.583 47.5495 422.7 49.8837 422.7H58.1162ZM59.442 428.15L59.5087 428.083C59.7078 427.842 59.7078 427.492 59.4995 427.25C59.3837 427.126 59.2245 427.05 59.0587 427.033C58.8837 427.024 58.717 427.083 58.5912 427.2L54.8337 430.2C54.3503 430.601 53.6578 430.601 53.167 430.2L49.417 427.2C49.1578 427.008 48.7995 427.033 48.5837 427.258C48.3587 427.483 48.3337 427.842 48.5245 428.092L48.6337 428.2L52.4253 431.158C52.892 431.525 53.4578 431.725 54.0503 431.725C54.6412 431.725 55.217 431.525 55.6828 431.158L59.442 428.15Z" fill="#9E9E9E"/>
<path d="M76.84 435.2V425.4H82.804V426.38H77.82V429.46H81.943V430.44H77.82V434.22H82.804V435.2H76.84ZM84.3569 435.2V428.2H85.3369V429.327C85.5795 428.949 85.8432 428.643 86.1279 428.41C86.4172 428.177 86.7835 428.06 87.2269 428.06C87.8102 428.06 88.3049 428.207 88.7109 428.501C89.1215 428.79 89.4482 429.185 89.6909 429.684C89.9382 429.175 90.2695 428.779 90.6849 428.494C91.1002 428.205 91.5902 428.06 92.1549 428.06C92.7475 428.06 93.2562 428.214 93.6809 428.522C94.1102 428.825 94.4415 429.229 94.6749 429.733C94.9082 430.237 95.0249 430.79 95.0249 431.392V435.2H94.0449V431.392C94.0449 430.958 93.9702 430.564 93.8209 430.209C93.6715 429.854 93.4569 429.572 93.1769 429.362C92.8969 429.147 92.5562 429.04 92.1549 429.04C91.7582 429.04 91.4105 429.147 91.1119 429.362C90.8179 429.572 90.5892 429.854 90.4259 430.209C90.2625 430.564 90.1809 430.958 90.1809 431.392V435.2H89.2009V431.392C89.2009 430.958 89.1192 430.564 88.9559 430.209C88.7925 429.854 88.5615 429.572 88.2629 429.362C87.9689 429.147 87.6235 429.04 87.2269 429.04C86.8582 429.04 86.5315 429.154 86.2469 429.383C85.9622 429.607 85.7382 429.906 85.5749 430.279C85.4162 430.648 85.3369 431.049 85.3369 431.483V435.2H84.3569ZM102.362 428.2H103.342V435.2H102.355L102.327 433.898C102.098 434.341 101.779 434.701 101.368 434.976C100.957 435.247 100.467 435.382 99.898 435.382C99.3847 435.382 98.904 435.286 98.456 435.095C98.008 434.899 97.6137 434.631 97.273 434.29C96.9323 433.949 96.6663 433.555 96.475 433.107C96.2837 432.659 96.188 432.178 96.188 431.665C96.188 431.161 96.2813 430.687 96.468 430.244C96.6547 429.801 96.916 429.411 97.252 429.075C97.588 428.739 97.9753 428.478 98.414 428.291C98.8527 428.1 99.324 428.004 99.828 428.004C100.416 428.004 100.927 428.144 101.361 428.424C101.795 428.699 102.138 429.061 102.39 429.509L102.362 428.2ZM99.919 434.43C100.423 434.43 100.852 434.306 101.207 434.059C101.566 433.807 101.839 433.471 102.026 433.051C102.213 432.631 102.299 432.169 102.285 431.665C102.271 431.161 102.161 430.706 101.956 430.3C101.751 429.889 101.466 429.565 101.102 429.327C100.743 429.084 100.318 428.963 99.828 428.963C99.3287 428.963 98.8737 429.089 98.463 429.341C98.057 429.588 97.7373 429.922 97.504 430.342C97.2707 430.757 97.161 431.222 97.175 431.735C97.1937 432.234 97.329 432.689 97.581 433.1C97.8377 433.506 98.1713 433.83 98.582 434.073C98.9927 434.311 99.4383 434.43 99.919 434.43ZM105.221 428.2H106.201V435.2H105.221V428.2ZM105.718 426.835C105.56 426.835 105.424 426.784 105.312 426.681C105.205 426.574 105.151 426.441 105.151 426.282C105.151 426.123 105.205 425.993 105.312 425.89C105.424 425.783 105.56 425.729 105.718 425.729C105.872 425.729 106.003 425.783 106.11 425.89C106.222 425.993 106.278 426.123 106.278 426.282C106.278 426.441 106.222 426.574 106.11 426.681C106.003 426.784 105.872 426.835 105.718 426.835ZM108.514 435.2V424.7H109.494V435.2H108.514Z" fill="#9E9E9E"/>
<rect x="24" y="480.2" width="380" height="60" rx="16" fill="#FAFAFA"/>
<path fill-rule="evenodd" clip-rule="evenodd" d="M58.6026 506.363V507.641C60.0379 508.089 61.0837 509.388 61.0837 510.94V515.054C61.0837 516.976 59.4909 518.533 57.5272 518.533H50.4743C48.5098 518.533 46.917 516.976 46.917 515.054V510.94C46.917 509.388 47.9636 508.089 49.3981 507.641V506.363C49.4065 503.879 51.4642 501.867 53.9876 501.867C56.5449 501.867 58.6026 503.879 58.6026 506.363ZM54.0046 503.316C55.7235 503.316 57.1207 504.682 57.1207 506.363V507.461H50.8799V506.347C50.8884 504.674 52.2856 503.316 54.0046 503.316ZM54.7413 513.912C54.7413 514.318 54.411 514.641 53.9961 514.641C53.5896 514.641 53.2594 514.318 53.2594 513.912V512.074C53.2594 511.677 53.5896 511.354 53.9961 511.354C54.411 511.354 54.7413 511.677 54.7413 512.074V513.912Z" fill="#9E9E9E"/>
<path d="M76.84 515.2V505.4H79.976C80.4987 505.4 80.97 505.528 81.39 505.785C81.81 506.037 82.1437 506.38 82.391 506.814C82.643 507.243 82.769 507.726 82.769 508.263C82.769 508.804 82.6407 509.292 82.384 509.726C82.132 510.16 81.7937 510.503 81.369 510.755C80.949 511.007 80.4847 511.133 79.976 511.133H77.82V515.2H76.84ZM77.82 510.153H79.899C80.2443 510.153 80.5593 510.069 80.844 509.901C81.1333 509.728 81.362 509.497 81.53 509.208C81.7027 508.914 81.789 508.583 81.789 508.214C81.789 507.845 81.7027 507.516 81.53 507.227C81.362 506.933 81.1333 506.702 80.844 506.534C80.5593 506.361 80.2443 506.275 79.899 506.275H77.82V510.153ZM89.6386 508.2H90.6186V515.2H89.6316L89.6036 513.898C89.3749 514.341 89.0552 514.701 88.6446 514.976C88.2339 515.247 87.7439 515.382 87.1746 515.382C86.6612 515.382 86.1806 515.286 85.7326 515.095C85.2846 514.899 84.8902 514.631 84.5496 514.29C84.2089 513.949 83.9429 513.555 83.7516 513.107C83.5602 512.659 83.4646 512.178 83.4646 511.665C83.4646 511.161 83.5579 510.687 83.7446 510.244C83.9312 509.801 84.1926 509.411 84.5286 509.075C84.8646 508.739 85.2519 508.478 85.6906 508.291C86.1292 508.1 86.6006 508.004 87.1046 508.004C87.6926 508.004 88.2036 508.144 88.6376 508.424C89.0716 508.699 89.4146 509.061 89.6666 509.509L89.6386 508.2ZM87.1956 514.43C87.6996 514.43 88.1289 514.306 88.4836 514.059C88.8429 513.807 89.1159 513.471 89.3026 513.051C89.4892 512.631 89.5756 512.169 89.5616 511.665C89.5476 511.161 89.4379 510.706 89.2326 510.3C89.0272 509.889 88.7426 509.565 88.3786 509.327C88.0192 509.084 87.5946 508.963 87.1046 508.963C86.6052 508.963 86.1502 509.089 85.7396 509.341C85.3336 509.588 85.0139 509.922 84.7806 510.342C84.5472 510.757 84.4376 511.222 84.4516 511.735C84.4702 512.234 84.6056 512.689 84.8576 513.1C85.1142 513.506 85.4479 513.83 85.8586 514.073C86.2692 514.311 86.7149 514.43 87.1956 514.43ZM94.7308 515.333C94.3481 515.324 93.9748 515.254 93.6108 515.123C93.2468 514.992 92.9295 514.815 92.6588 514.591C92.3881 514.367 92.1945 514.113 92.0778 513.828L92.9248 513.464C92.9995 513.646 93.1371 513.814 93.3378 513.968C93.5431 514.117 93.7765 514.239 94.0378 514.332C94.2991 514.421 94.5581 514.465 94.8148 514.465C95.0995 514.465 95.3655 514.418 95.6128 514.325C95.8601 514.232 96.0608 514.099 96.2148 513.926C96.3735 513.749 96.4528 513.541 96.4528 513.303C96.4528 513.046 96.3688 512.846 96.2008 512.701C96.0328 512.552 95.8205 512.435 95.5638 512.351C95.3071 512.262 95.0435 512.178 94.7728 512.099C94.2781 511.964 93.8418 511.814 93.4638 511.651C93.0858 511.488 92.7895 511.28 92.5748 511.028C92.3648 510.771 92.2598 510.442 92.2598 510.041C92.2598 509.616 92.3788 509.25 92.6168 508.942C92.8595 508.629 93.1745 508.389 93.5618 508.221C93.9538 508.048 94.3715 507.962 94.8148 507.962C95.3841 507.962 95.9021 508.086 96.3688 508.333C96.8401 508.58 97.1808 508.909 97.3908 509.32L96.5998 509.789C96.5158 509.598 96.3828 509.432 96.2008 509.292C96.0188 509.152 95.8111 509.042 95.5778 508.963C95.3491 508.884 95.1158 508.842 94.8778 508.837C94.5791 508.832 94.3015 508.877 94.0448 508.97C93.7881 509.059 93.5805 509.192 93.4218 509.369C93.2678 509.546 93.1908 509.763 93.1908 510.02C93.1908 510.277 93.2678 510.473 93.4218 510.608C93.5758 510.739 93.7835 510.846 94.0448 510.93C94.3108 511.009 94.6095 511.103 94.9408 511.21C95.3655 511.345 95.7645 511.499 96.1378 511.672C96.5111 511.845 96.8121 512.059 97.0408 512.316C97.2695 512.573 97.3815 512.897 97.3768 513.289C97.3768 513.709 97.2508 514.075 96.9988 514.388C96.7468 514.701 96.4201 514.941 96.0188 515.109C95.6175 515.272 95.1881 515.347 94.7308 515.333ZM101.083 515.333C100.7 515.324 100.327 515.254 99.9632 515.123C99.5992 514.992 99.2818 514.815 99.0112 514.591C98.7405 514.367 98.5468 514.113 98.4302 513.828L99.2772 513.464C99.3518 513.646 99.4895 513.814 99.6902 513.968C99.8955 514.117 100.129 514.239 100.39 514.332C100.651 514.421 100.91 514.465 101.167 514.465C101.452 514.465 101.718 514.418 101.965 514.325C102.212 514.232 102.413 514.099 102.567 513.926C102.726 513.749 102.805 513.541 102.805 513.303C102.805 513.046 102.721 512.846 102.553 512.701C102.385 512.552 102.173 512.435 101.916 512.351C101.659 512.262 101.396 512.178 101.125 512.099C100.63 511.964 100.194 511.814 99.8162 511.651C99.4382 511.488 99.1418 511.28 98.9272 511.028C98.7172 510.771 98.6122 510.442 98.6122 510.041C98.6122 509.616 98.7312 509.25 98.9692 508.942C99.2118 508.629 99.5268 508.389 99.9142 508.221C100.306 508.048 100.724 507.962 101.167 507.962C101.736 507.962 102.254 508.086 102.721 508.333C103.192 508.58 103.533 508.909 103.743 509.32L102.952 509.789C102.868 509.598 102.735 509.432 102.553 509.292C102.371 509.152 102.163 509.042 101.93 508.963C101.701 508.884 101.468 508.842 101.23 508.837C100.931 508.832 100.654 508.877 100.397 508.97C100.14 509.059 99.9328 509.192 99.7742 509.369C99.6202 509.546 99.5432 509.763 99.5432 510.02C99.5432 510.277 99.6202 510.473 99.7742 510.608C99.9282 510.739 100.136 510.846 100.397 510.93C100.663 511.009 100.962 511.103 101.293 511.21C101.718 511.345 102.117 511.499 102.49 511.672C102.863 511.845 103.164 512.059 103.393 512.316C103.622 512.573 103.734 512.897 103.729 513.289C103.729 513.709 103.603 514.075 103.351 514.388C103.099 514.701 102.772 514.941 102.371 515.109C101.97 515.272 101.54 515.347 101.083 515.333ZM108.067 515.2H107.059L104.714 508.2H105.673L107.577 513.842L109.467 508.2H110.503L112.393 513.842L114.283 508.2H115.249L112.904 515.2H111.889L109.971 509.502L108.067 515.2ZM119.365 515.382C118.721 515.382 118.133 515.216 117.601 514.885C117.074 514.554 116.652 514.11 116.334 513.555C116.022 512.995 115.865 512.377 115.865 511.7C115.865 511.187 115.956 510.708 116.138 510.265C116.32 509.817 116.57 509.425 116.887 509.089C117.209 508.748 117.583 508.482 118.007 508.291C118.432 508.1 118.885 508.004 119.365 508.004C120.009 508.004 120.595 508.17 121.122 508.501C121.654 508.832 122.077 509.278 122.389 509.838C122.707 510.398 122.865 511.019 122.865 511.7C122.865 512.209 122.774 512.685 122.592 513.128C122.41 513.571 122.158 513.963 121.836 514.304C121.519 514.64 121.148 514.904 120.723 515.095C120.303 515.286 119.851 515.382 119.365 515.382ZM119.365 514.402C119.841 514.402 120.268 514.278 120.646 514.031C121.029 513.779 121.33 513.448 121.549 513.037C121.773 512.626 121.885 512.181 121.885 511.7C121.885 511.21 121.773 510.76 121.549 510.349C121.325 509.934 121.022 509.602 120.639 509.355C120.261 509.108 119.837 508.984 119.365 508.984C118.889 508.984 118.46 509.11 118.077 509.362C117.699 509.609 117.398 509.938 117.174 510.349C116.955 510.76 116.845 511.21 116.845 511.7C116.845 512.204 116.96 512.661 117.188 513.072C117.417 513.478 117.723 513.802 118.105 514.045C118.488 514.283 118.908 514.402 119.365 514.402ZM128.164 509.152C128.047 509.091 127.924 509.045 127.793 509.012C127.662 508.979 127.522 508.963 127.373 508.963C126.967 508.963 126.603 509.075 126.281 509.299C125.959 509.523 125.705 509.826 125.518 510.209C125.331 510.587 125.238 511.007 125.238 511.469V515.2H124.251V508.2H125.231V509.369C125.492 508.944 125.817 508.613 126.204 508.375C126.596 508.132 127.028 508.011 127.499 508.011C127.648 508.011 127.791 508.02 127.926 508.039C128.066 508.053 128.199 508.081 128.325 508.123L128.164 509.152ZM134.833 504.7H135.813V515.2H134.833V513.891C134.59 514.339 134.257 514.701 133.832 514.976C133.412 515.247 132.913 515.382 132.334 515.382C131.825 515.382 131.349 515.286 130.906 515.095C130.463 514.904 130.071 514.64 129.73 514.304C129.394 513.963 129.13 513.571 128.939 513.128C128.748 512.685 128.652 512.209 128.652 511.7C128.652 511.191 128.748 510.715 128.939 510.272C129.13 509.824 129.394 509.432 129.73 509.096C130.071 508.755 130.463 508.489 130.906 508.298C131.349 508.107 131.825 508.011 132.334 508.011C132.913 508.011 133.412 508.149 133.832 508.424C134.257 508.695 134.59 509.052 134.833 509.495V504.7ZM132.341 514.43C132.84 514.43 133.27 514.309 133.629 514.066C133.988 513.819 134.264 513.487 134.455 513.072C134.651 512.657 134.749 512.199 134.749 511.7C134.749 511.187 134.651 510.725 134.455 510.314C134.259 509.899 133.981 509.57 133.622 509.327C133.263 509.084 132.836 508.963 132.341 508.963C131.846 508.963 131.396 509.087 130.99 509.334C130.584 509.577 130.26 509.906 130.017 510.321C129.774 510.736 129.653 511.196 129.653 511.7C129.653 512.209 129.777 512.671 130.024 513.086C130.271 513.497 130.598 513.823 131.004 514.066C131.415 514.309 131.86 514.43 132.341 514.43Z" fill="#9E9E9E"/>
<path fill-rule="evenodd" clip-rule="evenodd" d="M372.17 512.911C372.69 513.263 373.324 513.477 373.999 513.477C375.788 513.477 377.244 512.008 377.244 510.203C377.244 509.522 377.032 508.882 376.683 508.357L375.796 509.251C375.943 509.53 376.024 509.859 376.024 510.203C376.024 511.327 375.113 512.246 373.999 512.246C373.658 512.246 373.332 512.164 373.056 512.016L372.17 512.911ZM379.358 505.658C380.537 506.741 381.537 508.201 382.285 509.957C382.35 510.113 382.35 510.293 382.285 510.441C380.545 514.527 377.447 516.972 373.999 516.972H373.991C372.422 516.972 370.918 516.455 369.592 515.511L368.015 517.103C367.893 517.226 367.738 517.283 367.584 517.283C367.429 517.283 367.267 517.226 367.153 517.103C366.95 516.898 366.917 516.57 367.08 516.332L367.104 516.299L379.13 504.165L379.13 504.165C379.146 504.148 379.163 504.132 379.171 504.116L379.171 504.116C379.187 504.099 379.203 504.083 379.211 504.066L379.976 503.295C380.22 503.057 380.602 503.057 380.838 503.295C381.081 503.533 381.081 503.927 380.838 504.165L379.358 505.658ZM370.749 510.206C370.749 510.42 370.773 510.633 370.806 510.83L367.797 513.865C366.984 512.914 366.277 511.765 365.716 510.444C365.651 510.297 365.651 510.116 365.716 509.96C367.456 505.874 370.554 503.438 373.993 503.438H374.001C375.164 503.438 376.294 503.717 377.335 504.242L374.619 506.982C374.424 506.949 374.213 506.925 374.001 506.925C372.204 506.925 370.749 508.393 370.749 510.206Z" fill="#9E9E9E"/>
<rect x="150.5" y="561.7" width="21" height="21" rx="6.5" stroke="#335EF7" stroke-width="3"/>
<path d="M185.924 577.2V567.4H189.529C190.056 567.4 190.532 567.531 190.957 567.792C191.386 568.053 191.725 568.406 191.972 568.849C192.224 569.288 192.35 569.778 192.35 570.319C192.35 570.776 192.264 571.194 192.091 571.572C191.918 571.95 191.68 572.272 191.377 572.538C191.074 572.804 190.724 572.995 190.327 573.112L192.693 577.2H191.013L188.717 573.245H187.373V577.2H185.924ZM187.373 571.789H189.375C189.65 571.789 189.902 571.719 190.131 571.579C190.364 571.439 190.549 571.252 190.684 571.019C190.824 570.786 190.894 570.522 190.894 570.228C190.894 569.934 190.824 569.67 190.684 569.437C190.549 569.199 190.364 569.012 190.131 568.877C189.902 568.737 189.65 568.667 189.375 568.667H187.373V571.789ZM197.104 577.382C196.46 577.382 195.872 577.216 195.34 576.885C194.813 576.554 194.391 576.11 194.073 575.555C193.761 574.995 193.604 574.377 193.604 573.7C193.604 573.187 193.695 572.708 193.877 572.265C194.059 571.817 194.309 571.425 194.626 571.089C194.948 570.748 195.322 570.482 195.746 570.291C196.171 570.1 196.624 570.004 197.104 570.004C197.641 570.004 198.133 570.116 198.581 570.34C199.029 570.559 199.412 570.865 199.729 571.257C200.047 571.644 200.28 572.092 200.429 572.601C200.579 573.105 200.623 573.642 200.562 574.211H195.165C195.226 574.533 195.343 574.825 195.515 575.086C195.693 575.343 195.917 575.546 196.187 575.695C196.463 575.844 196.768 575.921 197.104 575.926C197.459 575.926 197.781 575.837 198.07 575.66C198.364 575.483 198.605 575.238 198.791 574.925L200.268 575.268C199.988 575.889 199.566 576.397 199.001 576.794C198.437 577.186 197.804 577.382 197.104 577.382ZM195.116 573.098H199.092C199.046 572.762 198.927 572.459 198.735 572.188C198.549 571.913 198.313 571.696 198.028 571.537C197.748 571.374 197.44 571.292 197.104 571.292C196.773 571.292 196.465 571.371 196.18 571.53C195.9 571.689 195.667 571.906 195.48 572.181C195.298 572.452 195.177 572.757 195.116 573.098ZM201.704 577.2V570.2H203.16V571.047C203.384 570.772 203.62 570.548 203.867 570.375C204.119 570.198 204.418 570.109 204.763 570.109C205.277 570.109 205.732 570.226 206.128 570.459C206.53 570.688 206.866 571.007 207.136 571.418C207.407 571.003 207.743 570.681 208.144 570.452C208.55 570.223 209.003 570.109 209.502 570.109C210.104 570.109 210.634 570.261 211.091 570.564C211.549 570.867 211.908 571.271 212.169 571.775C212.431 572.274 212.561 572.825 212.561 573.427V577.2H211.105V573.427C211.105 573.082 211.038 572.769 210.902 572.489C210.772 572.209 210.587 571.985 210.349 571.817C210.111 571.649 209.829 571.565 209.502 571.565C209.185 571.565 208.9 571.649 208.648 571.817C208.401 571.985 208.207 572.209 208.067 572.489C207.932 572.769 207.864 573.082 207.864 573.427V577.2H206.408V573.427C206.408 573.082 206.338 572.769 206.198 572.489C206.058 572.209 205.865 571.985 205.617 571.817C205.37 571.649 205.085 571.565 204.763 571.565C204.455 571.565 204.18 571.654 203.937 571.831C203.699 572.008 203.51 572.242 203.37 572.531C203.23 572.82 203.16 573.138 203.16 573.483V577.2H201.704ZM217.055 577.382C216.411 577.382 215.823 577.216 215.291 576.885C214.764 576.554 214.341 576.11 214.024 575.555C213.711 574.995 213.555 574.377 213.555 573.7C213.555 573.187 213.646 572.708 213.828 572.265C214.01 571.817 214.26 571.425 214.577 571.089C214.899 570.748 215.272 570.482 215.697 570.291C216.122 570.1 216.574 570.004 217.055 570.004C217.592 570.004 218.084 570.116 218.532 570.34C218.98 570.559 219.363 570.865 219.68 571.257C219.997 571.644 220.231 572.092 220.38 572.601C220.529 573.105 220.574 573.642 220.513 574.211H215.116C215.177 574.533 215.293 574.825 215.466 575.086C215.643 575.343 215.867 575.546 216.138 575.695C216.413 575.844 216.719 575.921 217.055 575.926C217.41 575.926 217.732 575.837 218.021 575.66C218.315 575.483 218.555 575.238 218.742 574.925L220.219 575.268C219.939 575.889 219.517 576.397 218.952 576.794C218.387 577.186 217.755 577.382 217.055 577.382ZM215.067 573.098H219.043C218.996 572.762 218.877 572.459 218.686 572.188C218.499 571.913 218.264 571.696 217.979 571.537C217.699 571.374 217.391 571.292 217.055 571.292C216.724 571.292 216.416 571.371 216.131 571.53C215.851 571.689 215.618 571.906 215.431 572.181C215.249 572.452 215.128 572.757 215.067 573.098ZM221.655 577.2V570.2H223.111V571.047C223.335 570.772 223.571 570.548 223.818 570.375C224.07 570.198 224.369 570.109 224.714 570.109C225.227 570.109 225.682 570.226 226.079 570.459C226.48 570.688 226.816 571.007 227.087 571.418C227.358 571.003 227.694 570.681 228.095 570.452C228.501 570.223 228.954 570.109 229.453 570.109C230.055 570.109 230.585 570.261 231.042 570.564C231.499 570.867 231.859 571.271 232.12 571.775C232.381 572.274 232.512 572.825 232.512 573.427V577.2H231.056V573.427C231.056 573.082 230.988 572.769 230.853 572.489C230.722 572.209 230.538 571.985 230.3 571.817C230.062 571.649 229.78 571.565 229.453 571.565C229.136 571.565 228.851 571.649 228.599 571.817C228.352 571.985 228.158 572.209 228.018 572.489C227.883 572.769 227.815 573.082 227.815 573.427V577.2H226.359V573.427C226.359 573.082 226.289 572.769 226.149 572.489C226.009 572.209 225.815 571.985 225.568 571.817C225.321 571.649 225.036 571.565 224.714 571.565C224.406 571.565 224.131 571.654 223.888 571.831C223.65 572.008 223.461 572.242 223.321 572.531C223.181 572.82 223.111 573.138 223.111 573.483V577.2H221.655ZM237.798 570.004C238.48 570.004 239.098 570.17 239.653 570.501C240.213 570.832 240.659 571.278 240.99 571.838C241.322 572.393 241.487 573.012 241.487 573.693C241.487 574.202 241.392 574.68 241.2 575.128C241.009 575.571 240.743 575.963 240.402 576.304C240.066 576.64 239.674 576.904 239.226 577.095C238.783 577.286 238.307 577.382 237.798 577.382C237.308 577.382 236.879 577.27 236.51 577.046C236.146 576.817 235.848 576.526 235.614 576.171V577.2H234.158V566.7H235.614V571.215C235.848 570.856 236.146 570.564 236.51 570.34C236.879 570.116 237.308 570.004 237.798 570.004ZM237.784 575.968C238.19 575.968 238.561 575.865 238.897 575.66C239.233 575.455 239.499 575.179 239.695 574.834C239.896 574.489 239.996 574.108 239.996 573.693C239.996 573.268 239.896 572.883 239.695 572.538C239.495 572.193 239.226 571.92 238.89 571.719C238.554 571.514 238.186 571.411 237.784 571.411C237.378 571.411 237.021 571.514 236.713 571.719C236.405 571.924 236.165 572.2 235.992 572.545C235.82 572.89 235.733 573.273 235.733 573.693C235.733 574.113 235.82 574.496 235.992 574.841C236.165 575.186 236.405 575.462 236.713 575.667C237.021 575.868 237.378 575.968 237.784 575.968ZM245.888 577.382C245.244 577.382 244.656 577.216 244.124 576.885C243.596 576.554 243.174 576.11 242.857 575.555C242.544 574.995 242.388 574.377 242.388 573.7C242.388 573.187 242.479 572.708 242.661 572.265C242.843 571.817 243.092 571.425 243.41 571.089C243.732 570.748 244.105 570.482 244.53 570.291C244.954 570.1 245.407 570.004 245.888 570.004C246.424 570.004 246.917 570.116 247.365 570.34C247.813 570.559 248.195 570.865 248.513 571.257C248.83 571.644 249.063 572.092 249.213 572.601C249.362 573.105 249.406 573.642 249.346 574.211H243.949C244.009 574.533 244.126 574.825 244.299 575.086C244.476 575.343 244.7 575.546 244.971 575.695C245.246 575.844 245.552 575.921 245.888 575.926C246.242 575.926 246.564 575.837 246.854 575.66C247.148 575.483 247.388 575.238 247.575 574.925L249.052 575.268C248.772 575.889 248.349 576.397 247.785 576.794C247.22 577.186 246.588 577.382 245.888 577.382ZM243.9 573.098H247.876C247.829 572.762 247.71 572.459 247.519 572.188C247.332 571.913 247.096 571.696 246.812 571.537C246.532 571.374 246.224 571.292 245.888 571.292C245.556 571.292 245.248 571.371 244.964 571.53C244.684 571.689 244.45 571.906 244.264 572.181C244.082 572.452 243.96 572.757 243.9 573.098ZM254.856 571.663C254.734 571.588 254.601 571.53 254.457 571.488C254.317 571.441 254.163 571.418 253.995 571.418C253.631 571.418 253.313 571.514 253.043 571.705C252.772 571.896 252.56 572.155 252.406 572.482C252.256 572.809 252.182 573.17 252.182 573.567V577.2H250.719V570.2H252.175V571.145C252.417 570.795 252.711 570.52 253.057 570.319C253.407 570.114 253.796 570.011 254.226 570.011C254.384 570.011 254.534 570.018 254.674 570.032C254.818 570.046 254.956 570.074 255.087 570.116L254.856 571.663ZM259.665 577.2V570.2H261.121V571.047C261.345 570.772 261.581 570.548 261.828 570.375C262.08 570.198 262.379 570.109 262.724 570.109C263.237 570.109 263.692 570.226 264.089 570.459C264.49 570.688 264.826 571.007 265.097 571.418C265.368 571.003 265.704 570.681 266.105 570.452C266.511 570.223 266.964 570.109 267.463 570.109C268.065 570.109 268.595 570.261 269.052 570.564C269.509 570.867 269.869 571.271 270.13 571.775C270.391 572.274 270.522 572.825 270.522 573.427V577.2H269.066V573.427C269.066 573.082 268.998 572.769 268.863 572.489C268.732 572.209 268.548 571.985 268.31 571.817C268.072 571.649 267.79 571.565 267.463 571.565C267.146 571.565 266.861 571.649 266.609 571.817C266.362 571.985 266.168 572.209 266.028 572.489C265.893 572.769 265.825 573.082 265.825 573.427V577.2H264.369V573.427C264.369 573.082 264.299 572.769 264.159 572.489C264.019 572.209 263.825 571.985 263.578 571.817C263.331 571.649 263.046 571.565 262.724 571.565C262.416 571.565 262.141 571.654 261.898 571.831C261.66 572.008 261.471 572.242 261.331 572.531C261.191 572.82 261.121 573.138 261.121 573.483V577.2H259.665ZM275.016 577.382C274.372 577.382 273.784 577.216 273.252 576.885C272.724 576.554 272.302 576.11 271.985 575.555C271.672 574.995 271.516 574.377 271.516 573.7C271.516 573.187 271.607 572.708 271.789 572.265C271.971 571.817 272.22 571.425 272.538 571.089C272.86 570.748 273.233 570.482 273.658 570.291C274.082 570.1 274.535 570.004 275.016 570.004C275.552 570.004 276.045 570.116 276.493 570.34C276.941 570.559 277.323 570.865 277.641 571.257C277.958 571.644 278.191 572.092 278.341 572.601C278.49 573.105 278.534 573.642 278.474 574.211H273.077C273.137 574.533 273.254 574.825 273.427 575.086C273.604 575.343 273.828 575.546 274.099 575.695C274.374 575.844 274.68 575.921 275.016 575.926C275.37 575.926 275.692 575.837 275.982 575.66C276.276 575.483 276.516 575.238 276.703 574.925L278.18 575.268C277.9 575.889 277.477 576.397 276.913 576.794C276.348 577.186 275.716 577.382 275.016 577.382ZM273.028 573.098H277.004C276.957 572.762 276.838 572.459 276.647 572.188C276.46 571.913 276.224 571.696 275.94 571.537C275.66 571.374 275.352 571.292 275.016 571.292C274.684 571.292 274.376 571.371 274.092 571.53C273.812 571.689 273.578 571.906 273.392 572.181C273.21 572.452 273.088 572.757 273.028 573.098Z" fill="#212121"/>
<rect x="24" y="604.2" width="380" height="58" rx="29" fill="#4360C9"/>
<g filter="url(#filter0_d_727_25927)">
<path d="M189.947 639.408C189.328 639.408 188.733 639.312 188.163 639.12C187.597 638.923 187.101 638.643 186.675 638.28C186.248 637.912 185.941 637.472 185.755 636.96L187.587 636.288C187.661 636.501 187.813 636.696 188.043 636.872C188.272 637.048 188.552 637.189 188.883 637.296C189.213 637.403 189.568 637.456 189.947 637.456C190.336 637.456 190.699 637.397 191.035 637.28C191.376 637.157 191.651 636.989 191.859 636.776C192.067 636.557 192.171 636.304 192.171 636.016C192.171 635.723 192.061 635.483 191.843 635.296C191.624 635.104 191.344 634.952 191.003 634.84C190.661 634.728 190.309 634.643 189.947 634.584C189.152 634.461 188.44 634.272 187.811 634.016C187.181 633.76 186.683 633.405 186.315 632.952C185.952 632.499 185.771 631.912 185.771 631.192C185.771 630.515 185.965 629.923 186.355 629.416C186.744 628.909 187.256 628.515 187.891 628.232C188.525 627.949 189.211 627.808 189.947 627.808C190.56 627.808 191.152 627.904 191.723 628.096C192.293 628.288 192.792 628.568 193.219 628.936C193.651 629.304 193.96 629.747 194.147 630.264L192.307 630.928C192.232 630.715 192.08 630.52 191.851 630.344C191.621 630.168 191.341 630.029 191.011 629.928C190.68 629.821 190.325 629.768 189.947 629.768C189.568 629.763 189.208 629.824 188.867 629.952C188.531 630.075 188.256 630.243 188.043 630.456C187.829 630.669 187.723 630.915 187.723 631.192C187.723 631.549 187.821 631.819 188.019 632C188.221 632.181 188.491 632.315 188.827 632.4C189.163 632.48 189.536 632.555 189.947 632.624C190.693 632.741 191.384 632.939 192.019 633.216C192.653 633.493 193.163 633.864 193.547 634.328C193.931 634.787 194.123 635.349 194.123 636.016C194.123 636.693 193.931 637.288 193.547 637.8C193.163 638.307 192.653 638.701 192.019 638.984C191.384 639.267 190.693 639.408 189.947 639.408ZM195.912 631.2H197.864V639.2H195.912V631.2ZM196.896 630.008C196.613 630.008 196.373 629.915 196.176 629.728C195.978 629.536 195.88 629.296 195.88 629.008C195.88 628.725 195.978 628.488 196.176 628.296C196.373 628.104 196.613 628.008 196.896 628.008C197.178 628.008 197.416 628.104 197.608 628.296C197.805 628.488 197.904 628.725 197.904 629.008C197.904 629.296 197.805 629.536 197.608 629.728C197.416 629.915 197.178 630.008 196.896 630.008ZM206.673 631.2H208.625V639.352C208.625 639.928 208.507 640.451 208.273 640.92C208.038 641.395 207.718 641.8 207.313 642.136C206.907 642.477 206.443 642.739 205.921 642.92C205.398 643.107 204.849 643.2 204.273 643.2C203.713 643.2 203.174 643.085 202.657 642.856C202.139 642.627 201.681 642.312 201.281 641.912C200.886 641.517 200.585 641.067 200.377 640.56L202.161 639.752C202.267 640.045 202.427 640.301 202.641 640.52C202.859 640.744 203.11 640.917 203.393 641.04C203.675 641.168 203.969 641.232 204.273 641.232C204.582 641.232 204.878 641.189 205.161 641.104C205.449 641.019 205.707 640.893 205.937 640.728C206.166 640.568 206.345 640.371 206.473 640.136C206.606 639.907 206.673 639.645 206.673 639.352V638.224C206.422 638.576 206.107 638.861 205.729 639.08C205.35 639.299 204.913 639.408 204.417 639.408C203.841 639.408 203.302 639.299 202.801 639.08C202.299 638.861 201.857 638.56 201.473 638.176C201.094 637.787 200.795 637.339 200.577 636.832C200.363 636.325 200.257 635.781 200.257 635.2C200.257 634.619 200.363 634.075 200.577 633.568C200.795 633.061 201.094 632.616 201.473 632.232C201.857 631.843 202.299 631.539 202.801 631.32C203.302 631.101 203.841 630.992 204.417 630.992C204.913 630.992 205.35 631.101 205.729 631.32C206.107 631.533 206.422 631.816 206.673 632.168V631.2ZM204.441 637.528C204.851 637.528 205.214 637.424 205.529 637.216C205.849 637.003 206.099 636.72 206.281 636.368C206.462 636.011 206.553 635.621 206.553 635.2C206.553 634.773 206.459 634.384 206.273 634.032C206.091 633.68 205.841 633.397 205.521 633.184C205.206 632.971 204.846 632.864 204.441 632.864C204.041 632.864 203.675 632.971 203.345 633.184C203.014 633.392 202.75 633.672 202.553 634.024C202.355 634.376 202.257 634.768 202.257 635.2C202.257 635.632 202.355 636.024 202.553 636.376C202.75 636.728 203.014 637.008 203.345 637.216C203.675 637.424 204.041 637.528 204.441 637.528ZM218.381 635.064V639.2H216.429V635.096C216.429 634.685 216.344 634.312 216.173 633.976C216.002 633.635 215.765 633.363 215.461 633.16C215.162 632.957 214.816 632.856 214.421 632.856C214.037 632.856 213.704 632.957 213.421 633.16C213.138 633.363 212.92 633.635 212.765 633.976C212.616 634.312 212.541 634.685 212.541 635.096V639.2H210.589V631.2H212.541V632.144C212.808 631.787 213.125 631.504 213.493 631.296C213.866 631.083 214.288 630.976 214.757 630.976C215.493 630.976 216.13 631.163 216.669 631.536C217.213 631.904 217.632 632.397 217.925 633.016C218.224 633.635 218.376 634.317 218.381 635.064ZM224.383 635.32V631.2H226.335V635.288C226.335 635.699 226.421 636.075 226.591 636.416C226.762 636.757 226.999 637.029 227.303 637.232C227.607 637.429 227.954 637.528 228.343 637.528C228.733 637.528 229.066 637.429 229.343 637.232C229.626 637.029 229.842 636.757 229.991 636.416C230.146 636.075 230.223 635.699 230.223 635.288V631.2H232.175V639.2H230.223V638.248C229.962 638.6 229.645 638.885 229.271 639.104C228.903 639.317 228.485 639.424 228.015 639.424C227.274 639.424 226.634 639.24 226.095 638.872C225.557 638.499 225.138 638.003 224.839 637.384C224.541 636.76 224.389 636.072 224.383 635.32ZM235.895 643.2H233.943V631.2H235.895V632.216C236.156 631.853 236.476 631.56 236.855 631.336C237.239 631.107 237.687 630.992 238.199 630.992C238.785 630.992 239.332 631.101 239.839 631.32C240.345 631.539 240.791 631.843 241.175 632.232C241.564 632.616 241.865 633.061 242.079 633.568C242.297 634.075 242.407 634.619 242.407 635.2C242.407 635.781 242.297 636.328 242.079 636.84C241.865 637.352 241.564 637.803 241.175 638.192C240.791 638.576 240.345 638.877 239.839 639.096C239.332 639.315 238.785 639.424 238.199 639.424C237.687 639.424 237.239 639.312 236.855 639.088C236.476 638.859 236.156 638.563 235.895 638.2V643.2ZM238.175 632.872C237.769 632.872 237.407 632.979 237.087 633.192C236.767 633.4 236.516 633.68 236.335 634.032C236.153 634.384 236.063 634.773 236.063 635.2C236.063 635.627 236.153 636.019 236.335 636.376C236.516 636.728 236.767 637.011 237.087 637.224C237.407 637.432 237.769 637.536 238.175 637.536C238.585 637.536 238.961 637.432 239.303 637.224C239.644 637.016 239.916 636.736 240.119 636.384C240.321 636.027 240.423 635.632 240.423 635.2C240.423 634.773 240.321 634.384 240.119 634.032C239.916 633.68 239.644 633.4 239.303 633.192C238.967 632.979 238.591 632.872 238.175 632.872Z" fill="white"/>
</g>
<line x1="34" y1="719.6" x2="130" y2="719.6" stroke="#EEEEEE"/>
<path d="M151.464 726.834C150.636 726.834 149.88 726.621 149.196 726.195C148.518 725.769 147.975 725.199 147.567 724.485C147.165 723.765 146.964 722.97 146.964 722.1C146.964 721.44 147.081 720.825 147.315 720.255C147.549 719.679 147.87 719.175 148.278 718.743C148.692 718.305 149.172 717.963 149.718 717.717C150.264 717.471 150.846 717.348 151.464 717.348C152.292 717.348 153.045 717.561 153.723 717.987C154.407 718.413 154.95 718.986 155.352 719.706C155.76 720.426 155.964 721.224 155.964 722.1C155.964 722.754 155.847 723.366 155.613 723.936C155.379 724.506 155.055 725.01 154.641 725.448C154.233 725.88 153.756 726.219 153.21 726.465C152.67 726.711 152.088 726.834 151.464 726.834ZM151.464 724.962C151.962 724.962 152.409 724.83 152.805 724.566C153.201 724.302 153.513 723.954 153.741 723.522C153.975 723.084 154.092 722.61 154.092 722.1C154.092 721.578 153.972 721.098 153.732 720.66C153.498 720.222 153.183 719.874 152.787 719.616C152.391 719.352 151.95 719.22 151.464 719.22C150.972 719.22 150.525 719.352 150.123 719.616C149.727 719.88 149.412 720.231 149.178 720.669C148.95 721.107 148.836 721.584 148.836 722.1C148.836 722.634 148.956 723.117 149.196 723.549C149.436 723.981 149.754 724.326 150.15 724.584C150.552 724.836 150.99 724.962 151.464 724.962ZM162.937 719.481C162.781 719.385 162.61 719.31 162.424 719.256C162.244 719.196 162.046 719.166 161.83 719.166C161.362 719.166 160.954 719.289 160.606 719.535C160.258 719.781 159.985 720.114 159.787 720.534C159.595 720.954 159.499 721.419 159.499 721.929V726.6H157.618V717.6H159.49V718.815C159.802 718.365 160.18 718.011 160.624 717.753C161.074 717.489 161.575 717.357 162.127 717.357C162.331 717.357 162.523 717.366 162.703 717.384C162.889 717.402 163.066 717.438 163.234 717.492L162.937 719.481ZM175.18 724.044L176.854 724.953C176.446 725.523 175.927 725.979 175.297 726.321C174.673 726.663 173.995 726.834 173.263 726.834C172.435 726.834 171.679 726.621 170.995 726.195C170.317 725.769 169.774 725.199 169.366 724.485C168.964 723.765 168.763 722.97 168.763 722.1C168.763 721.44 168.88 720.825 169.114 720.255C169.348 719.679 169.669 719.175 170.077 718.743C170.491 718.305 170.971 717.963 171.517 717.717C172.063 717.471 172.645 717.348 173.263 717.348C173.995 717.348 174.673 717.519 175.297 717.861C175.927 718.203 176.446 718.662 176.854 719.238L175.18 720.147C174.928 719.847 174.634 719.619 174.298 719.463C173.962 719.301 173.617 719.22 173.263 719.22C172.771 719.22 172.324 719.355 171.922 719.625C171.526 719.889 171.211 720.24 170.977 720.678C170.749 721.11 170.635 721.584 170.635 722.1C170.635 722.61 170.752 723.084 170.986 723.522C171.22 723.954 171.535 724.302 171.931 724.566C172.333 724.83 172.777 724.962 173.263 724.962C173.635 724.962 173.989 724.878 174.325 724.71C174.661 724.542 174.946 724.32 175.18 724.044ZM182.358 726.834C181.53 726.834 180.774 726.621 180.09 726.195C179.412 725.769 178.869 725.199 178.461 724.485C178.059 723.765 177.858 722.97 177.858 722.1C177.858 721.44 177.975 720.825 178.209 720.255C178.443 719.679 178.764 719.175 179.172 718.743C179.586 718.305 180.066 717.963 180.612 717.717C181.158 717.471 181.74 717.348 182.358 717.348C183.186 717.348 183.939 717.561 184.617 717.987C185.301 718.413 185.844 718.986 186.246 719.706C186.654 720.426 186.858 721.224 186.858 722.1C186.858 722.754 186.741 723.366 186.507 723.936C186.273 724.506 185.949 725.01 185.535 725.448C185.127 725.88 184.65 726.219 184.104 726.465C183.564 726.711 182.982 726.834 182.358 726.834ZM182.358 724.962C182.856 724.962 183.303 724.83 183.699 724.566C184.095 724.302 184.407 723.954 184.635 723.522C184.869 723.084 184.986 722.61 184.986 722.1C184.986 721.578 184.866 721.098 184.626 720.66C184.392 720.222 184.077 719.874 183.681 719.616C183.285 719.352 182.844 719.22 182.358 719.22C181.866 719.22 181.419 719.352 181.017 719.616C180.621 719.88 180.306 720.231 180.072 720.669C179.844 721.107 179.73 721.584 179.73 722.1C179.73 722.634 179.85 723.117 180.09 723.549C180.33 723.981 180.648 724.326 181.044 724.584C181.446 724.836 181.884 724.962 182.358 724.962ZM196.864 721.884V726.6H194.992V721.92C194.992 721.41 194.884 720.948 194.668 720.534C194.458 720.114 194.167 719.781 193.795 719.535C193.429 719.283 193.012 719.157 192.544 719.157C192.076 719.157 191.665 719.283 191.311 719.535C190.963 719.781 190.69 720.114 190.492 720.534C190.3 720.948 190.204 721.41 190.204 721.92V726.6H188.332V717.6H190.204V718.815C190.516 718.359 190.894 718.002 191.338 717.744C191.782 717.48 192.283 717.348 192.841 717.348C193.651 717.348 194.353 717.555 194.947 717.969C195.547 718.383 196.015 718.932 196.351 719.616C196.687 720.3 196.858 721.056 196.864 721.884ZM203.8 719.472H201.91L201.901 726.6H200.029L200.038 719.472H198.607V717.6H200.038L200.029 714.774H201.901L201.91 717.6H203.8V719.472ZM205.224 717.6H207.096V726.6H205.224V717.6ZM206.169 716.115C205.887 716.115 205.65 716.022 205.458 715.836C205.266 715.65 205.17 715.416 205.17 715.134C205.17 714.858 205.266 714.627 205.458 714.441C205.65 714.249 205.887 714.153 206.169 714.153C206.445 714.153 206.679 714.249 206.871 714.441C207.063 714.627 207.159 714.858 207.159 715.134C207.159 715.416 207.063 715.65 206.871 715.836C206.679 716.022 206.445 716.115 206.169 716.115ZM218.417 721.884V726.6H216.545V721.92C216.545 721.41 216.437 720.948 216.221 720.534C216.011 720.114 215.72 719.781 215.348 719.535C214.982 719.283 214.565 719.157 214.097 719.157C213.629 719.157 213.218 719.283 212.864 719.535C212.516 719.781 212.243 720.114 212.045 720.534C211.853 720.948 211.757 721.41 211.757 721.92V726.6H209.885V717.6H211.757V718.815C212.069 718.359 212.447 718.002 212.891 717.744C213.335 717.48 213.836 717.348 214.394 717.348C215.204 717.348 215.906 717.555 216.5 717.969C217.1 718.383 217.568 718.932 217.904 719.616C218.24 720.3 218.411 721.056 218.417 721.884ZM220.601 722.298V717.6H222.473V722.262C222.473 722.772 222.578 723.237 222.788 723.657C223.004 724.071 223.295 724.404 223.661 724.656C224.033 724.902 224.456 725.025 224.93 725.025C225.392 725.025 225.797 724.902 226.145 724.656C226.499 724.404 226.772 724.071 226.964 723.657C227.162 723.237 227.261 722.772 227.261 722.262V717.6H229.133V726.6H227.261V725.376C226.949 725.826 226.571 726.183 226.127 726.447C225.683 726.711 225.182 726.843 224.624 726.843C223.82 726.843 223.115 726.639 222.509 726.231C221.909 725.817 221.444 725.265 221.114 724.575C220.784 723.885 220.613 723.126 220.601 722.298ZM235.325 726.834C234.497 726.834 233.741 726.621 233.057 726.195C232.379 725.769 231.836 725.199 231.428 724.485C231.026 723.765 230.825 722.97 230.825 722.1C230.825 721.44 230.942 720.825 231.176 720.255C231.41 719.679 231.731 719.175 232.139 718.743C232.553 718.305 233.033 717.963 233.579 717.717C234.125 717.471 234.707 717.348 235.325 717.348C236.015 717.348 236.648 717.492 237.224 717.78C237.8 718.062 238.292 718.455 238.7 718.959C239.108 719.457 239.408 720.033 239.6 720.687C239.792 721.335 239.849 722.025 239.771 722.757H232.832C232.91 723.171 233.06 723.546 233.282 723.882C233.51 724.212 233.798 724.473 234.146 724.665C234.5 724.857 234.893 724.956 235.325 724.962C235.781 724.962 236.195 724.848 236.567 724.62C236.945 724.392 237.254 724.077 237.494 723.675L239.393 724.116C239.033 724.914 238.49 725.568 237.764 726.078C237.038 726.582 236.225 726.834 235.325 726.834ZM232.769 721.326H237.881C237.821 720.894 237.668 720.504 237.422 720.156C237.182 719.802 236.879 719.523 236.513 719.319C236.153 719.109 235.757 719.004 235.325 719.004C234.899 719.004 234.503 719.106 234.137 719.31C233.777 719.514 233.477 719.793 233.237 720.147C233.003 720.495 232.847 720.888 232.769 721.326ZM250.5 726.6H248.637L245.622 717.6H247.458L249.582 723.918L251.688 717.6H253.578L255.684 723.918L257.799 717.6H259.635L256.629 726.6H254.748L252.624 720.237L250.5 726.6ZM261.233 717.6H263.105V726.6H261.233V717.6ZM262.178 716.115C261.896 716.115 261.659 716.022 261.467 715.836C261.275 715.65 261.179 715.416 261.179 715.134C261.179 714.858 261.275 714.627 261.467 714.441C261.659 714.249 261.896 714.153 262.178 714.153C262.454 714.153 262.688 714.249 262.88 714.441C263.072 714.627 263.168 714.858 263.168 715.134C263.168 715.416 263.072 715.65 262.88 715.836C262.688 716.022 262.454 716.115 262.178 716.115ZM270.896 719.472H269.006L268.997 726.6H267.125L267.134 719.472H265.703V717.6H267.134L267.125 714.774H268.997L269.006 717.6H270.896V719.472ZM280.856 721.893V726.6H278.984V721.929C278.984 721.419 278.876 720.954 278.66 720.534C278.45 720.114 278.168 719.781 277.814 719.535C277.46 719.289 277.067 719.166 276.635 719.166C276.167 719.166 275.768 719.289 275.438 719.535C275.108 719.781 274.853 720.114 274.673 720.534C274.499 720.954 274.412 721.419 274.412 721.929V726.6H272.531V713.1H274.403V718.653C274.655 718.167 274.985 717.831 275.393 717.645C275.807 717.453 276.281 717.357 276.815 717.357C277.625 717.357 278.33 717.564 278.93 717.978C279.53 718.392 279.998 718.944 280.334 719.634C280.67 720.318 280.844 721.071 280.856 721.893Z" fill="#616161"/>
<line x1="298" y1="719.6" x2="394" y2="719.6" stroke="#EEEEEE"/>
<rect x="63" y="763.1" width="87" height="59" rx="15.5" fill="white"/>
<g clip-path="url(#clip1_727_25927)">
<path d="M106.5 780.6C99.8724 780.6 94.5 785.972 94.5 792.6C94.5 799.228 99.8724 804.6 106.5 804.6C113.128 804.6 118.5 799.228 118.5 792.6C118.5 785.972 113.128 780.6 106.5 780.6Z" fill="url(#paint1_linear_727_25927)"/>
<path d="M108.228 797.458H111.485L111.996 794.15H108.228V792.342C108.228 790.967 108.677 789.749 109.963 789.749H112.028V786.862C111.665 786.813 110.898 786.706 109.447 786.706C106.419 786.706 104.643 788.305 104.643 791.95V794.15H101.529V797.459H104.642V806.551C105.259 806.643 105.884 806.706 106.525 806.706C107.104 806.706 107.67 806.653 108.228 806.578V797.458Z" fill="white"/>
</g>
<rect x="63" y="763.1" width="87" height="59" rx="15.5" stroke="#EEEEEE"/>
<rect x="171" y="763.1" width="86" height="59" rx="15.5" fill="white"/>
<g clip-path="url(#clip2_727_25927)">
<path d="M225.508 792.825C225.508 791.841 225.429 791.124 225.26 790.38H214.229V794.818H220.704C220.574 795.921 219.869 797.581 218.302 798.698L218.28 798.846L221.768 801.596L222.009 801.621C224.229 799.535 225.508 796.465 225.508 792.825Z" fill="#4285F4"/>
<path d="M214.23 804.518C217.402 804.518 220.064 803.455 222.01 801.621L218.302 798.698C217.31 799.402 215.979 799.894 214.23 799.894C211.123 799.894 208.486 797.807 207.546 794.924L207.408 794.936L203.782 797.793L203.734 797.927C205.666 801.834 209.635 804.518 214.23 804.518Z" fill="#34A853"/>
<path d="M207.546 794.924C207.298 794.18 207.155 793.383 207.155 792.559C207.155 791.735 207.298 790.938 207.533 790.194L207.527 790.035L203.855 787.133L203.735 787.191C202.938 788.812 202.481 790.632 202.481 792.559C202.481 794.486 202.938 796.306 203.735 797.927L207.546 794.924Z" fill="#FBBC05"/>
<path d="M214.23 785.224C216.436 785.224 217.924 786.194 218.772 787.005L222.088 783.709C220.051 781.783 217.402 780.6 214.23 780.6C209.635 780.6 205.666 783.284 203.734 787.191L207.533 790.194C208.486 787.31 211.123 785.224 214.23 785.224Z" fill="#EB4335"/>
</g>
<rect x="171" y="763.1" width="86" height="59" rx="15.5" stroke="#EEEEEE"/>
<rect x="278" y="763.1" width="87" height="59" rx="15.5" fill="white"/>
<g clip-path="url(#clip3_727_25927)">
<path d="M326.273 780.612C326.222 780.555 324.384 780.635 322.785 782.37C321.186 784.104 321.432 786.093 321.468 786.144C321.504 786.195 323.748 786.275 325.181 784.257C326.613 782.24 326.324 780.671 326.273 780.612ZM331.244 798.212C331.172 798.068 327.756 796.361 328.074 793.079C328.392 789.795 330.587 788.895 330.621 788.798C330.656 788.7 329.726 787.613 328.74 787.062C328.017 786.674 327.216 786.452 326.396 786.411C326.234 786.407 325.671 786.269 324.515 786.585C323.753 786.794 322.035 787.469 321.563 787.496C321.089 787.523 319.679 786.713 318.162 786.498C317.192 786.311 316.163 786.695 315.426 786.99C314.691 787.284 313.293 788.121 312.315 790.346C311.337 792.569 311.849 796.091 312.215 797.186C312.581 798.279 313.152 800.072 314.124 801.38C314.988 802.856 316.134 803.88 316.613 804.228C317.091 804.576 318.441 804.807 319.377 804.329C320.13 803.867 321.489 803.601 322.026 803.621C322.562 803.64 323.618 803.852 324.699 804.429C325.556 804.725 326.366 804.602 327.177 804.272C327.989 803.94 329.163 802.683 330.534 800.135C331.055 798.95 331.292 798.309 331.244 798.212Z" fill="black"/>
<path d="M326.273 780.612C326.222 780.555 324.384 780.635 322.785 782.37C321.186 784.104 321.432 786.093 321.468 786.144C321.504 786.195 323.748 786.275 325.181 784.257C326.613 782.24 326.324 780.671 326.273 780.612ZM331.244 798.212C331.172 798.068 327.756 796.361 328.074 793.079C328.392 789.795 330.587 788.895 330.621 788.798C330.656 788.7 329.726 787.613 328.74 787.062C328.017 786.674 327.216 786.452 326.396 786.411C326.234 786.407 325.671 786.269 324.515 786.585C323.753 786.794 322.035 787.469 321.563 787.496C321.089 787.523 319.679 786.713 318.162 786.498C317.192 786.311 316.163 786.695 315.426 786.99C314.691 787.284 313.293 788.121 312.315 790.346C311.337 792.569 311.849 796.091 312.215 797.186C312.581 798.279 313.152 800.072 314.124 801.38C314.988 802.856 316.134 803.88 316.613 804.228C317.091 804.576 318.441 804.807 319.377 804.329C320.13 803.867 321.489 803.601 322.026 803.621C322.562 803.64 323.618 803.852 324.699 804.429C325.556 804.725 326.366 804.602 327.177 804.272C327.989 803.94 329.163 802.683 330.534 800.135C331.055 798.95 331.292 798.309 331.244 798.212Z" fill="black"/>
</g>
<rect x="278" y="763.1" width="87" height="59" rx="15.5" stroke="#EEEEEE"/>
<path d="M108.56 863.2H109.778L113.348 873H112.305L111.542 870.9H106.803L106.04 873H104.997L108.56 863.2ZM107.16 869.92H111.178L109.169 864.404L107.16 869.92ZM114.832 873V862.5H115.812V873H114.832ZM121.744 866.952C121.628 866.891 121.504 866.845 121.373 866.812C121.243 866.779 121.103 866.763 120.953 866.763C120.547 866.763 120.183 866.875 119.861 867.099C119.539 867.323 119.285 867.626 119.098 868.009C118.912 868.387 118.818 868.807 118.818 869.269V873H117.831V866H118.811V867.169C119.073 866.744 119.397 866.413 119.784 866.175C120.176 865.932 120.608 865.811 121.079 865.811C121.229 865.811 121.371 865.82 121.506 865.839C121.646 865.853 121.779 865.881 121.905 865.923L121.744 866.952ZM125.732 873.182C125.088 873.182 124.5 873.016 123.968 872.685C123.441 872.354 123.019 871.91 122.701 871.355C122.389 870.795 122.232 870.177 122.232 869.5C122.232 868.987 122.323 868.508 122.505 868.065C122.687 867.617 122.937 867.225 123.254 866.889C123.576 866.548 123.95 866.282 124.374 866.091C124.799 865.9 125.252 865.804 125.732 865.804C126.25 865.804 126.726 865.907 127.16 866.112C127.599 866.317 127.975 866.604 128.287 866.973C128.605 867.342 128.843 867.773 129.001 868.268C129.165 868.763 129.232 869.297 129.204 869.871H123.268C123.324 870.314 123.464 870.711 123.688 871.061C123.917 871.411 124.206 871.689 124.556 871.894C124.911 872.095 125.303 872.197 125.732 872.202C126.199 872.202 126.619 872.081 126.992 871.838C127.37 871.595 127.674 871.262 127.902 870.837L128.896 871.068C128.616 871.689 128.194 872.197 127.629 872.594C127.065 872.986 126.432 873.182 125.732 873.182ZM123.24 869.08H128.217C128.185 868.646 128.052 868.249 127.818 867.89C127.59 867.526 127.293 867.237 126.929 867.022C126.565 866.803 126.166 866.693 125.732 866.693C125.298 866.693 124.902 866.8 124.542 867.015C124.183 867.225 123.889 867.512 123.66 867.876C123.432 868.235 123.292 868.637 123.24 869.08ZM136.381 866H137.361V873H136.374L136.346 871.698C136.117 872.141 135.797 872.501 135.387 872.776C134.976 873.047 134.486 873.182 133.917 873.182C133.403 873.182 132.923 873.086 132.475 872.895C132.027 872.699 131.632 872.431 131.292 872.09C130.951 871.749 130.685 871.355 130.494 870.907C130.302 870.459 130.207 869.978 130.207 869.465C130.207 868.961 130.3 868.487 130.487 868.044C130.673 867.601 130.935 867.211 131.271 866.875C131.607 866.539 131.994 866.278 132.433 866.091C132.871 865.9 133.343 865.804 133.847 865.804C134.435 865.804 134.946 865.944 135.38 866.224C135.814 866.499 136.157 866.861 136.409 867.309L136.381 866ZM133.938 872.23C134.442 872.23 134.871 872.106 135.226 871.859C135.585 871.607 135.858 871.271 136.045 870.851C136.231 870.431 136.318 869.969 136.304 869.465C136.29 868.961 136.18 868.506 135.975 868.1C135.769 867.689 135.485 867.365 135.121 867.127C134.761 866.884 134.337 866.763 133.847 866.763C133.347 866.763 132.892 866.889 132.482 867.141C132.076 867.388 131.756 867.722 131.523 868.142C131.289 868.557 131.18 869.022 131.194 869.535C131.212 870.034 131.348 870.489 131.6 870.9C131.856 871.306 132.19 871.63 132.601 871.873C133.011 872.111 133.457 872.23 133.938 872.23ZM144.81 862.5H145.79V873H144.81V871.691C144.567 872.139 144.233 872.501 143.809 872.776C143.389 873.047 142.889 873.182 142.311 873.182C141.802 873.182 141.326 873.086 140.883 872.895C140.439 872.704 140.047 872.44 139.707 872.104C139.371 871.763 139.107 871.371 138.916 870.928C138.724 870.485 138.629 870.009 138.629 869.5C138.629 868.991 138.724 868.515 138.916 868.072C139.107 867.624 139.371 867.232 139.707 866.896C140.047 866.555 140.439 866.289 140.883 866.098C141.326 865.907 141.802 865.811 142.311 865.811C142.889 865.811 143.389 865.949 143.809 866.224C144.233 866.495 144.567 866.852 144.81 867.295V862.5ZM142.318 872.23C142.817 872.23 143.246 872.109 143.606 871.866C143.965 871.619 144.24 871.287 144.432 870.872C144.628 870.457 144.726 869.999 144.726 869.5C144.726 868.987 144.628 868.525 144.432 868.114C144.236 867.699 143.958 867.37 143.599 867.127C143.239 866.884 142.812 866.763 142.318 866.763C141.823 866.763 141.373 866.887 140.967 867.134C140.561 867.377 140.236 867.706 139.994 868.121C139.751 868.536 139.63 868.996 139.63 869.5C139.63 870.009 139.753 870.471 140.001 870.886C140.248 871.297 140.575 871.623 140.981 871.866C141.391 872.109 141.837 872.23 142.318 872.23ZM152.356 866H153.392L149.563 876.5H148.52L149.794 873L147.281 866H148.352L150.284 871.649L152.356 866ZM164.752 869.241V873H163.772V869.269C163.772 868.807 163.674 868.387 163.478 868.009C163.286 867.626 163.027 867.323 162.701 867.099C162.379 866.875 162.022 866.763 161.63 866.763C161.224 866.763 160.862 866.875 160.545 867.099C160.232 867.323 159.987 867.626 159.81 868.009C159.632 868.387 159.544 868.807 159.544 869.269V873H158.557V862.5H159.537V867.099C159.775 866.66 160.078 866.336 160.447 866.126C160.82 865.916 161.238 865.811 161.7 865.811C162.297 865.811 162.822 865.97 163.275 866.287C163.732 866.6 164.089 867.017 164.346 867.54C164.607 868.058 164.742 868.625 164.752 869.241ZM171.998 866H172.978V873H171.991L171.963 871.698C171.734 872.141 171.415 872.501 171.004 872.776C170.593 873.047 170.103 873.182 169.534 873.182C169.021 873.182 168.54 873.086 168.092 872.895C167.644 872.699 167.25 872.431 166.909 872.09C166.568 871.749 166.302 871.355 166.111 870.907C165.92 870.459 165.824 869.978 165.824 869.465C165.824 868.961 165.917 868.487 166.104 868.044C166.291 867.601 166.552 867.211 166.888 866.875C167.224 866.539 167.611 866.278 168.05 866.091C168.489 865.9 168.96 865.804 169.464 865.804C170.052 865.804 170.563 865.944 170.997 866.224C171.431 866.499 171.774 866.861 172.026 867.309L171.998 866ZM169.555 872.23C170.059 872.23 170.488 872.106 170.843 871.859C171.202 871.607 171.475 871.271 171.662 870.851C171.849 870.431 171.935 869.969 171.921 869.465C171.907 868.961 171.797 868.506 171.592 868.1C171.387 867.689 171.102 867.365 170.738 867.127C170.379 866.884 169.954 866.763 169.464 866.763C168.965 866.763 168.51 866.889 168.099 867.141C167.693 867.388 167.373 867.722 167.14 868.142C166.907 868.557 166.797 869.022 166.811 869.535C166.83 870.034 166.965 870.489 167.217 870.9C167.474 871.306 167.807 871.63 168.218 871.873C168.629 872.111 169.074 872.23 169.555 872.23ZM178.101 873H176.855L174.3 865.979H175.343L177.478 871.852L179.613 865.979H180.656L178.101 873ZM184.768 873.182C184.124 873.182 183.536 873.016 183.004 872.685C182.477 872.354 182.054 871.91 181.737 871.355C181.424 870.795 181.268 870.177 181.268 869.5C181.268 868.987 181.359 868.508 181.541 868.065C181.723 867.617 181.973 867.225 182.29 866.889C182.612 866.548 182.985 866.282 183.41 866.091C183.835 865.9 184.287 865.804 184.768 865.804C185.286 865.804 185.762 865.907 186.196 866.112C186.635 866.317 187.01 866.604 187.323 866.973C187.64 867.342 187.878 867.773 188.037 868.268C188.2 868.763 188.268 869.297 188.24 869.871H182.304C182.36 870.314 182.5 870.711 182.724 871.061C182.953 871.411 183.242 871.689 183.592 871.894C183.947 872.095 184.339 872.197 184.768 872.202C185.235 872.202 185.655 872.081 186.028 871.838C186.406 871.595 186.709 871.262 186.938 870.837L187.932 871.068C187.652 871.689 187.23 872.197 186.665 872.594C186.1 872.986 185.468 873.182 184.768 873.182ZM182.276 869.08H187.253C187.22 868.646 187.087 868.249 186.854 867.89C186.625 867.526 186.329 867.237 185.965 867.022C185.601 866.803 185.202 866.693 184.768 866.693C184.334 866.693 183.937 866.8 183.578 867.015C183.219 867.225 182.925 867.512 182.696 867.876C182.467 868.235 182.327 868.637 182.276 869.08ZM199.116 866H200.096V873H199.109L199.081 871.698C198.853 872.141 198.533 872.501 198.122 872.776C197.712 873.047 197.222 873.182 196.652 873.182C196.139 873.182 195.658 873.086 195.21 872.895C194.762 872.699 194.368 872.431 194.027 872.09C193.687 871.749 193.421 871.355 193.229 870.907C193.038 870.459 192.942 869.978 192.942 869.465C192.942 868.961 193.036 868.487 193.222 868.044C193.409 867.601 193.67 867.211 194.006 866.875C194.342 866.539 194.73 866.278 195.168 866.091C195.607 865.9 196.078 865.804 196.582 865.804C197.17 865.804 197.681 865.944 198.115 866.224C198.549 866.499 198.892 866.861 199.144 867.309L199.116 866ZM196.673 872.23C197.177 872.23 197.607 872.106 197.961 871.859C198.321 871.607 198.594 871.271 198.78 870.851C198.967 870.431 199.053 869.969 199.039 869.465C199.025 868.961 198.916 868.506 198.71 868.1C198.505 867.689 198.22 867.365 197.856 867.127C197.497 866.884 197.072 866.763 196.582 866.763C196.083 866.763 195.628 866.889 195.217 867.141C194.811 867.388 194.492 867.722 194.258 868.142C194.025 868.557 193.915 869.022 193.929 869.535C193.948 870.034 194.083 870.489 194.335 870.9C194.592 871.306 194.926 871.63 195.336 871.873C195.747 872.111 196.193 872.23 196.673 872.23ZM208.115 869.234V873H207.135V869.262C207.135 868.8 207.037 868.38 206.841 868.002C206.649 867.624 206.388 867.323 206.057 867.099C205.73 866.87 205.361 866.756 204.951 866.756C204.545 866.756 204.181 866.87 203.859 867.099C203.537 867.323 203.282 867.624 203.096 868.002C202.909 868.38 202.816 868.8 202.816 869.262V873H201.836V866H202.816V867.169C203.077 866.74 203.401 866.406 203.789 866.168C204.176 865.925 204.605 865.804 205.077 865.804C205.674 865.804 206.199 865.963 206.652 866.28C207.104 866.593 207.459 867.01 207.716 867.533C207.977 868.051 208.11 868.618 208.115 869.234ZM219.253 866H220.233V873H219.246L219.218 871.698C218.99 872.141 218.67 872.501 218.259 872.776C217.849 873.047 217.359 873.182 216.789 873.182C216.276 873.182 215.795 873.086 215.347 872.895C214.899 872.699 214.505 872.431 214.164 872.09C213.824 871.749 213.558 871.355 213.366 870.907C213.175 870.459 213.079 869.978 213.079 869.465C213.079 868.961 213.173 868.487 213.359 868.044C213.546 867.601 213.807 867.211 214.143 866.875C214.479 866.539 214.867 866.278 215.305 866.091C215.744 865.9 216.215 865.804 216.719 865.804C217.307 865.804 217.818 865.944 218.252 866.224C218.686 866.499 219.029 866.861 219.281 867.309L219.253 866ZM216.81 872.23C217.314 872.23 217.744 872.106 218.098 871.859C218.458 871.607 218.731 871.271 218.917 870.851C219.104 870.431 219.19 869.969 219.176 869.465C219.162 868.961 219.053 868.506 218.847 868.1C218.642 867.689 218.357 867.365 217.993 867.127C217.634 866.884 217.209 866.763 216.719 866.763C216.22 866.763 215.765 866.889 215.354 867.141C214.948 867.388 214.629 867.722 214.395 868.142C214.162 868.557 214.052 869.022 214.066 869.535C214.085 870.034 214.22 870.489 214.472 870.9C214.729 871.306 215.063 871.63 215.473 871.873C215.884 872.111 216.33 872.23 216.81 872.23ZM226.919 871.243L227.794 871.719C227.477 872.162 227.073 872.517 226.583 872.783C226.098 873.049 225.571 873.182 225.001 873.182C224.357 873.182 223.769 873.016 223.237 872.685C222.71 872.354 222.288 871.91 221.97 871.355C221.658 870.795 221.501 870.177 221.501 869.5C221.501 868.987 221.592 868.508 221.774 868.065C221.956 867.617 222.206 867.225 222.523 866.889C222.845 866.548 223.219 866.282 223.643 866.091C224.068 865.9 224.521 865.804 225.001 865.804C225.571 865.804 226.098 865.937 226.583 866.203C227.073 866.469 227.477 866.826 227.794 867.274L226.919 867.743C226.677 867.435 226.385 867.199 226.044 867.036C225.704 866.868 225.356 866.784 225.001 866.784C224.53 866.784 224.103 866.91 223.72 867.162C223.338 867.409 223.034 867.738 222.81 868.149C222.591 868.56 222.481 869.01 222.481 869.5C222.481 869.99 222.593 870.44 222.817 870.851C223.046 871.262 223.352 871.591 223.734 871.838C224.117 872.081 224.539 872.202 225.001 872.202C225.384 872.202 225.743 872.113 226.079 871.936C226.415 871.759 226.695 871.528 226.919 871.243ZM234.133 871.243L235.008 871.719C234.691 872.162 234.287 872.517 233.797 872.783C233.312 873.049 232.784 873.182 232.215 873.182C231.571 873.182 230.983 873.016 230.451 872.685C229.924 872.354 229.501 871.91 229.184 871.355C228.871 870.795 228.715 870.177 228.715 869.5C228.715 868.987 228.806 868.508 228.988 868.065C229.17 867.617 229.42 867.225 229.737 866.889C230.059 866.548 230.432 866.282 230.857 866.091C231.282 865.9 231.734 865.804 232.215 865.804C232.784 865.804 233.312 865.937 233.797 866.203C234.287 866.469 234.691 866.826 235.008 867.274L234.133 867.743C233.89 867.435 233.599 867.199 233.258 867.036C232.917 866.868 232.57 866.784 232.215 866.784C231.744 866.784 231.317 866.91 230.934 867.162C230.551 867.409 230.248 867.738 230.024 868.149C229.805 868.56 229.695 869.01 229.695 869.5C229.695 869.99 229.807 870.44 230.031 870.851C230.26 871.262 230.565 871.591 230.948 871.838C231.331 872.081 231.753 872.202 232.215 872.202C232.598 872.202 232.957 872.113 233.293 871.936C233.629 871.759 233.909 871.528 234.133 871.243ZM239.429 873.182C238.785 873.182 238.197 873.016 237.665 872.685C237.137 872.354 236.715 871.91 236.398 871.355C236.085 870.795 235.929 870.177 235.929 869.5C235.929 868.987 236.02 868.508 236.202 868.065C236.384 867.617 236.633 867.225 236.951 866.889C237.273 866.548 237.646 866.282 238.071 866.091C238.495 865.9 238.948 865.804 239.429 865.804C240.073 865.804 240.658 865.97 241.186 866.301C241.718 866.632 242.14 867.078 242.453 867.638C242.77 868.198 242.929 868.819 242.929 869.5C242.929 870.009 242.838 870.485 242.656 870.928C242.474 871.371 242.222 871.763 241.9 872.104C241.582 872.44 241.211 872.704 240.787 872.895C240.367 873.086 239.914 873.182 239.429 873.182ZM239.429 872.202C239.905 872.202 240.332 872.078 240.71 871.831C241.092 871.579 241.393 871.248 241.613 870.837C241.837 870.426 241.949 869.981 241.949 869.5C241.949 869.01 241.837 868.56 241.613 868.149C241.389 867.734 241.085 867.402 240.703 867.155C240.325 866.908 239.9 866.784 239.429 866.784C238.953 866.784 238.523 866.91 238.141 867.162C237.763 867.409 237.462 867.738 237.238 868.149C237.018 868.56 236.909 869.01 236.909 869.5C236.909 870.004 237.023 870.461 237.252 870.872C237.48 871.278 237.786 871.602 238.169 871.845C238.551 872.083 238.971 872.202 239.429 872.202ZM244.246 869.752V866H245.226V869.724C245.226 870.181 245.322 870.601 245.513 870.984C245.709 871.362 245.973 871.665 246.304 871.894C246.635 872.118 247.006 872.23 247.417 872.23C247.823 872.23 248.187 872.118 248.509 871.894C248.831 871.665 249.083 871.362 249.265 870.984C249.452 870.601 249.545 870.181 249.545 869.724V866H250.525V873H249.545V871.824C249.284 872.249 248.959 872.582 248.572 872.825C248.189 873.068 247.762 873.189 247.291 873.189C246.694 873.189 246.166 873.033 245.709 872.72C245.256 872.403 244.902 871.983 244.645 871.46C244.388 870.937 244.255 870.368 244.246 869.752ZM258.542 869.234V873H257.562V869.262C257.562 868.8 257.464 868.38 257.268 868.002C257.077 867.624 256.815 867.323 256.484 867.099C256.157 866.87 255.789 866.756 255.378 866.756C254.972 866.756 254.608 866.87 254.286 867.099C253.964 867.323 253.71 867.624 253.523 868.002C253.336 868.38 253.243 868.8 253.243 869.262V873H252.263V866H253.243V867.169C253.504 866.74 253.829 866.406 254.216 866.168C254.603 865.925 255.033 865.804 255.504 865.804C256.101 865.804 256.626 865.963 257.079 866.28C257.532 866.593 257.886 867.01 258.143 867.533C258.404 868.051 258.537 868.618 258.542 869.234ZM263.863 866.98H262.19L262.183 873H261.203L261.21 866.98H259.943V866H261.21L261.203 863.802H262.183L262.19 866H263.863V866.98ZM267.448 869.633C267.448 869.171 267.562 868.746 267.791 868.359C268.024 867.972 268.344 867.666 268.75 867.442C269.039 867.293 269.265 867.073 269.429 866.784C269.592 866.49 269.674 866.168 269.674 865.818C269.674 865.477 269.59 865.169 269.422 864.894C269.258 864.619 269.037 864.399 268.757 864.236C268.481 864.073 268.176 863.991 267.84 863.991C267.504 863.991 267.196 864.073 266.916 864.236C266.64 864.399 266.421 864.619 266.258 864.894C266.094 865.169 266.013 865.477 266.013 865.818H265.033C265.033 865.3 265.159 864.829 265.411 864.404C265.663 863.979 266.001 863.641 266.426 863.389C266.855 863.137 267.326 863.011 267.84 863.011C268.358 863.011 268.829 863.137 269.254 863.389C269.683 863.641 270.024 863.979 270.276 864.404C270.528 864.829 270.654 865.3 270.654 865.818C270.654 866.345 270.525 866.833 270.269 867.281C270.012 867.724 269.66 868.067 269.212 868.31C268.969 868.441 268.778 868.623 268.638 868.856C268.498 869.089 268.428 869.348 268.428 869.633H267.448ZM267.91 873.182C267.756 873.182 267.623 873.126 267.511 873.014C267.403 872.902 267.35 872.769 267.35 872.615C267.35 872.461 267.403 872.33 267.511 872.223C267.623 872.116 267.756 872.062 267.91 872.062C268.064 872.062 268.194 872.116 268.302 872.223C268.414 872.33 268.47 872.461 268.47 872.615C268.47 872.769 268.414 872.902 268.302 873.014C268.194 873.126 268.064 873.182 267.91 873.182Z" fill="#9E9E9E"/>
<path d="M283.833 873.182C283.296 873.182 282.781 873.098 282.286 872.93C281.791 872.762 281.36 872.522 280.991 872.209C280.622 871.892 280.359 871.516 280.2 871.082L281.565 870.571C281.644 870.795 281.796 870.996 282.02 871.173C282.249 871.346 282.519 871.481 282.832 871.579C283.149 871.677 283.483 871.726 283.833 871.726C284.206 871.726 284.556 871.665 284.883 871.544C285.214 871.423 285.48 871.255 285.681 871.04C285.886 870.825 285.989 870.573 285.989 870.284C285.989 869.985 285.882 869.74 285.667 869.549C285.457 869.358 285.186 869.206 284.855 869.094C284.528 868.982 284.188 868.898 283.833 868.842C283.147 868.73 282.531 868.567 281.985 868.352C281.444 868.137 281.014 867.836 280.697 867.449C280.384 867.062 280.228 866.558 280.228 865.937C280.228 865.354 280.394 864.845 280.725 864.411C281.061 863.977 281.502 863.641 282.048 863.403C282.599 863.16 283.194 863.039 283.833 863.039C284.36 863.039 284.869 863.123 285.359 863.291C285.854 863.454 286.288 863.695 286.661 864.012C287.039 864.325 287.31 864.705 287.473 865.153L286.094 865.65C286.015 865.421 285.863 865.223 285.639 865.055C285.415 864.882 285.144 864.747 284.827 864.649C284.514 864.551 284.183 864.502 283.833 864.502C283.46 864.497 283.11 864.558 282.783 864.684C282.461 864.805 282.197 864.973 281.992 865.188C281.787 865.403 281.684 865.652 281.684 865.937C281.684 866.287 281.78 866.553 281.971 866.735C282.162 866.917 282.419 867.052 282.741 867.141C283.068 867.225 283.432 867.302 283.833 867.372C284.477 867.475 285.072 867.645 285.618 867.883C286.169 868.121 286.61 868.438 286.941 868.835C287.277 869.227 287.445 869.71 287.445 870.284C287.445 870.863 287.277 871.371 286.941 871.81C286.61 872.244 286.169 872.582 285.618 872.825C285.072 873.063 284.477 873.182 283.833 873.182ZM289.085 866H290.541V873H289.085V866ZM289.82 864.845C289.601 864.845 289.416 864.773 289.267 864.628C289.118 864.483 289.043 864.301 289.043 864.082C289.043 863.867 289.118 863.688 289.267 863.543C289.416 863.394 289.601 863.319 289.82 863.319C290.035 863.319 290.217 863.394 290.366 863.543C290.515 863.688 290.59 863.867 290.59 864.082C290.59 864.301 290.515 864.483 290.366 864.628C290.217 864.773 290.035 864.845 289.82 864.845ZM298.276 866H299.732V873.182C299.732 873.663 299.629 874.106 299.424 874.512C299.223 874.918 298.95 875.268 298.605 875.562C298.26 875.861 297.863 876.092 297.415 876.255C296.972 876.418 296.507 876.5 296.022 876.5C295.532 876.5 295.061 876.395 294.608 876.185C294.155 875.98 293.756 875.7 293.411 875.345C293.07 874.99 292.816 874.589 292.648 874.141L293.985 873.539C294.078 873.828 294.228 874.085 294.433 874.309C294.643 874.533 294.886 874.71 295.161 874.841C295.441 874.972 295.728 875.037 296.022 875.037C296.311 875.037 296.589 874.99 296.855 874.897C297.126 874.808 297.366 874.682 297.576 874.519C297.791 874.356 297.961 874.16 298.087 873.931C298.213 873.702 298.276 873.453 298.276 873.182V871.999C298.047 872.354 297.753 872.641 297.394 872.86C297.035 873.075 296.617 873.182 296.141 873.182C295.646 873.182 295.18 873.086 294.741 872.895C294.302 872.704 293.917 872.44 293.586 872.104C293.255 871.763 292.996 871.371 292.809 870.928C292.622 870.485 292.529 870.009 292.529 869.5C292.529 868.991 292.622 868.515 292.809 868.072C292.996 867.624 293.255 867.232 293.586 866.896C293.917 866.555 294.302 866.289 294.741 866.098C295.18 865.907 295.646 865.811 296.141 865.811C296.617 865.811 297.035 865.921 297.394 866.14C297.753 866.355 298.047 866.642 298.276 867.001V866ZM296.155 871.775C296.561 871.775 296.916 871.672 297.219 871.467C297.522 871.257 297.758 870.979 297.926 870.634C298.094 870.289 298.178 869.911 298.178 869.5C298.178 869.08 298.092 868.7 297.919 868.359C297.751 868.014 297.515 867.738 297.212 867.533C296.909 867.323 296.556 867.218 296.155 867.218C295.763 867.218 295.404 867.321 295.077 867.526C294.755 867.731 294.498 868.007 294.307 868.352C294.116 868.697 294.02 869.08 294.02 869.5C294.02 869.92 294.116 870.303 294.307 870.648C294.503 870.993 294.762 871.269 295.084 871.474C295.411 871.675 295.768 871.775 296.155 871.775ZM308.108 869.332V873H306.652V869.36C306.652 868.963 306.568 868.604 306.4 868.282C306.237 867.955 306.01 867.696 305.721 867.505C305.436 867.309 305.112 867.211 304.748 867.211C304.384 867.211 304.064 867.309 303.789 867.505C303.518 867.696 303.306 867.955 303.152 868.282C303.003 868.604 302.928 868.963 302.928 869.36V873H301.472V866H302.928V866.945C303.171 866.59 303.465 866.313 303.81 866.112C304.155 865.907 304.545 865.804 304.979 865.804C305.609 865.804 306.155 865.965 306.617 866.287C307.084 866.609 307.448 867.036 307.709 867.568C307.97 868.1 308.103 868.688 308.108 869.332ZM313.414 866H314.87V873H313.414V866ZM314.149 864.845C313.93 864.845 313.746 864.773 313.596 864.628C313.447 864.483 313.372 864.301 313.372 864.082C313.372 863.867 313.447 863.688 313.596 863.543C313.746 863.394 313.93 863.319 314.149 863.319C314.364 863.319 314.546 863.394 314.695 863.543C314.845 863.688 314.919 863.867 314.919 864.082C314.919 864.301 314.845 864.483 314.695 864.628C314.546 864.773 314.364 864.845 314.149 864.845ZM323.72 869.332V873H322.264V869.36C322.264 868.963 322.18 868.604 322.012 868.282C321.848 867.955 321.622 867.696 321.333 867.505C321.048 867.309 320.724 867.211 320.36 867.211C319.996 867.211 319.676 867.309 319.401 867.505C319.13 867.696 318.918 867.955 318.764 868.282C318.614 868.604 318.54 868.963 318.54 869.36V873H317.084V866H318.54V866.945C318.782 866.59 319.076 866.313 319.422 866.112C319.767 865.907 320.157 865.804 320.591 865.804C321.221 865.804 321.767 865.965 322.229 866.287C322.695 866.609 323.059 867.036 323.321 867.568C323.582 868.1 323.715 868.688 323.72 869.332Z" fill="#335EF7"/>
<path d="M25.488 28L27.752 24.08C27.2133 24.1813 26.688 24.16 26.176 24.016C25.6693 23.8667 25.2133 23.624 24.808 23.288C24.4027 22.9467 24.08 22.5333 23.84 22.048C23.6 21.5627 23.48 21.0293 23.48 20.448C23.48 19.92 23.5787 19.424 23.776 18.96C23.9787 18.4907 24.256 18.08 24.608 17.728C24.96 17.3707 25.368 17.0933 25.832 16.896C26.3013 16.6933 26.8027 16.592 27.336 16.592C28.0347 16.592 28.6747 16.7653 29.256 17.112C29.8373 17.4587 30.3013 17.9253 30.648 18.512C30.9947 19.0933 31.168 19.7387 31.168 20.448C31.168 20.816 31.1227 21.152 31.032 21.456C30.9467 21.76 30.8107 22.08 30.624 22.416L27.416 28H25.488ZM27.32 22.632C27.7467 22.632 28.1253 22.5307 28.456 22.328C28.7867 22.12 29.0453 21.8507 29.232 21.52C29.424 21.184 29.52 20.824 29.52 20.44C29.52 20.024 29.4187 19.6507 29.216 19.32C29.0133 18.9893 28.744 18.728 28.408 18.536C28.0773 18.344 27.72 18.248 27.336 18.248C26.9093 18.248 26.5307 18.352 26.2 18.56C25.8693 18.768 25.608 19.04 25.416 19.376C25.224 19.7067 25.128 20.0613 25.128 20.44C25.128 20.84 25.224 21.208 25.416 21.544C25.6133 21.8747 25.8773 22.1387 26.208 22.336C26.5387 22.5333 26.9093 22.632 27.32 22.632ZM33.3526 21.752C33.1073 21.752 32.8993 21.6667 32.7286 21.496C32.5633 21.3253 32.4806 21.1173 32.4806 20.872C32.4806 20.632 32.5633 20.4267 32.7286 20.256C32.8993 20.0853 33.1073 20 33.3526 20C33.598 20 33.806 20.0853 33.9766 20.256C34.1473 20.4267 34.2326 20.632 34.2326 20.872C34.2326 21.1173 34.1473 21.3253 33.9766 21.496C33.806 21.6667 33.598 21.752 33.3526 21.752ZM33.3526 28.208C33.1073 28.208 32.8993 28.1227 32.7286 27.952C32.5633 27.7813 32.4806 27.5733 32.4806 27.328C32.4806 27.088 32.5633 26.8827 32.7286 26.712C32.8993 26.5413 33.1073 26.456 33.3526 26.456C33.598 26.456 33.806 26.5413 33.9766 26.712C34.1473 26.8827 34.2326 27.088 34.2326 27.328C34.2326 27.5733 34.1473 27.7813 33.9766 27.952C33.806 28.1227 33.598 28.208 33.3526 28.208ZM40.832 28V25.136H36.04V23.464L40.432 16.8H42.496V23.472H43.52V25.136H42.496V28H40.832ZM37.976 23.464L40.832 23.472L40.816 19.096L37.976 23.464ZM46.6541 28V18.464H45.3181L45.7741 16.8H48.3181V28H46.6541Z" fill="black"/>
<path fill-rule="evenodd" clip-rule="evenodd" d="M351 18H350C349.448 18 349 18.4197 349 18.9375V27.0625C349 27.5803 349.448 28 350 28H351C351.552 28 352 27.5803 352 27.0625V18.9375C352 18.4197 351.552 18 351 18ZM345 20H346C346.552 20 347 20.4298 347 20.96V27.04C347 27.5702 346.552 28 346 28H345C344.448 28 344 27.5702 344 27.04V20.96C344 20.4298 344.448 20 345 20ZM341 22H340C339.448 22 339 22.4477 339 23V27C339 27.5523 339.448 28 340 28H341C341.552 28 342 27.5523 342 27V23C342 22.4477 341.552 22 341 22ZM336 24H335C334.448 24 334 24.4477 334 25V27C334 27.5523 334.448 28 335 28H336C336.552 28 337 27.5523 337 27V25C337 24.4477 336.552 24 336 24Z" fill="black"/>
<path fill-rule="evenodd" clip-rule="evenodd" d="M364.637 19.2773C366.852 19.2774 368.984 20.1289 370.59 21.6557C370.711 21.7735 370.904 21.772 371.023 21.6523L372.179 20.4857C372.239 20.4249 372.273 20.3427 372.272 20.2571C372.272 20.1715 372.237 20.0897 372.176 20.0297C367.961 15.9901 361.311 15.9901 357.096 20.0297C357.035 20.0896 357.001 20.1715 357 20.257C356.999 20.3426 357.033 20.4249 357.093 20.4857L358.25 21.6523C358.369 21.7722 358.562 21.7737 358.683 21.6557C360.289 20.1288 362.42 19.2773 364.637 19.2773ZM364.637 23.0729C365.854 23.0728 367.028 23.5254 367.931 24.3426C368.053 24.4585 368.245 24.456 368.364 24.3369L369.519 23.1702C369.579 23.109 369.613 23.026 369.612 22.9398C369.611 22.8535 369.576 22.7712 369.514 22.7112C366.766 20.1548 362.51 20.1548 359.762 22.7112C359.699 22.7712 359.664 22.8535 359.663 22.9398C359.662 23.0261 359.696 23.1091 359.757 23.1702L360.912 24.3369C361.031 24.456 361.223 24.4585 361.345 24.3426C362.247 23.5259 363.42 23.0734 364.637 23.0729ZM366.95 25.6267C366.951 25.7132 366.917 25.7966 366.856 25.8572L364.858 27.8729C364.8 27.9321 364.72 27.9655 364.637 27.9655C364.553 27.9655 364.473 27.9321 364.415 27.8729L362.417 25.8572C362.356 25.7966 362.322 25.7131 362.323 25.6266C362.325 25.5401 362.363 25.4582 362.427 25.4002C363.703 24.3213 365.571 24.3213 366.846 25.4002C366.91 25.4583 366.948 25.5402 366.95 25.6267Z" fill="black"/>
<path opacity="0.35" d="M378.5 18.6667C378.5 17.4701 379.47 16.5 380.667 16.5H400.333C401.53 16.5 402.5 17.47 402.5 18.6667V26.3333C402.5 27.53 401.53 28.5 400.333 28.5H380.667C379.47 28.5 378.5 27.53 378.5 26.3333V18.6667Z" stroke="black"/>
<path opacity="0.4" d="M403.65 21V25C404.455 24.6612 404.978 23.8731 404.978 23C404.978 22.1269 404.455 21.3388 403.65 21Z" fill="black"/>
<path d="M380.3 19.6666C380.3 18.9302 380.897 18.3333 381.633 18.3333H399.166C399.903 18.3333 400.5 18.9302 400.5 19.6666V25.3299C400.5 26.0663 399.903 26.6633 399.166 26.6633H381.633C380.897 26.6633 380.3 26.0663 380.3 25.3299V19.6666Z" fill="black"/>
</g>
<defs>
<filter id="filter0_d_727_25927" x="165.755" y="611.808" width="104.652" height="63.3921" filterUnits="userSpaceOnUse" color-interpolation-filters="sRGB">
<feFlood flood-opacity="0" result="BackgroundImageFix"/>
<feColorMatrix in="SourceAlpha" type="matrix" values="0 0 0 0 0 0 0 0 0 0 0 0 0 0 0 0 0 0 127 0" result="hardAlpha"/>
<feOffset dx="4" dy="8"/>
<feGaussianBlur stdDeviation="12"/>
<feComposite in2="hardAlpha" operator="out"/>
<feColorMatrix type="matrix" values="0 0 0 0 0.2 0 0 0 0 0.368627 0 0 0 0 0.968627 0 0 0 0.25 0"/>
<feBlend mode="normal" in2="BackgroundImageFix" result="effect1_dropShadow_727_25927"/>
<feBlend mode="normal" in="SourceGraphic" in2="effect1_dropShadow_727_25927" result="shape"/>
</filter>
<linearGradient id="paint0_linear_727_25927" x1="267.667" y1="280.644" x2="138.278" y2="246.398" gradientUnits="userSpaceOnUse">
<stop stop-color="#335EF7"/>
<stop offset="1" stop-color="#5F82FF"/>
</linearGradient>
<linearGradient id="paint1_linear_727_25927" x1="98.0958" y1="784.196" x2="116.469" y2="802.569" gradientUnits="userSpaceOnUse">
<stop stop-color="#2AA4F4"/>
<stop offset="1" stop-color="#007AD9"/>
</linearGradient>
<clipPath id="clip0_727_25927">
<rect width="428" height="926" fill="white"/>
</clipPath>
<clipPath id="clip1_727_25927">
<rect width="24" height="24" fill="white" transform="translate(94.5 780.6)"/>
</clipPath>
<clipPath id="clip2_727_25927">
<rect width="23.04" height="24" fill="white" transform="translate(202.48 780.6)"/>
</clipPath>
<clipPath id="clip3_727_25927">
<rect width="24" height="24" fill="white" transform="translate(309.5 780.6)"/>
</clipPath>
</defs>
</svg>
