<svg width="100" height="100" viewBox="0 0 100 100" fill="none" xmlns="http://www.w3.org/2000/svg">
<path d="M79.792 76.6667H20.2087C18.9482 76.6667 17.917 77.6979 17.917 78.9583V83.5417C17.917 84.8021 18.9482 85.8333 20.2087 85.8333H79.792C81.0524 85.8333 82.0837 84.8021 82.0837 83.5417V78.9583C82.0837 77.6979 81.0524 76.6667 79.792 76.6667ZM88.9587 30.8333C85.1631 30.8333 82.0837 33.9128 82.0837 37.7083C82.0837 38.7253 82.3128 39.6706 82.7139 40.5443L72.3441 46.7604C70.1383 48.0781 67.2881 47.3333 66.0133 45.099L54.3402 24.6745C55.8727 23.4141 56.8753 21.5234 56.8753 19.375C56.8753 15.5794 53.7959 12.5 50.0003 12.5C46.2048 12.5 43.1253 15.5794 43.1253 19.375C43.1253 21.5234 44.1279 23.4141 45.6605 24.6745L33.9873 45.099C32.7126 47.3333 29.848 48.0781 27.6566 46.7604L17.3011 40.5443C17.6878 39.6849 17.9313 38.7253 17.9313 37.7083C17.9313 33.9128 14.8519 30.8333 11.0563 30.8333C7.26074 30.8333 4.16699 33.9128 4.16699 37.7083C4.16699 41.5039 7.24642 44.5833 11.042 44.5833C11.4144 44.5833 11.7868 44.526 12.1449 44.4688L22.5003 72.0833H77.5003L87.8558 44.4688C88.2139 44.526 88.5863 44.5833 88.9587 44.5833C92.7542 44.5833 95.8336 41.5039 95.8336 37.7083C95.8336 33.9128 92.7542 30.8333 88.9587 30.8333Z" fill="url(#paint0_linear_1134_11708)"/>
<defs>
<linearGradient id="paint0_linear_1134_11708" x1="95.8337" y1="85.8333" x2="-8.68245" y2="47.954" gradientUnits="userSpaceOnUse">
<stop stop-color="#FACC15"/>
<stop offset="1" stop-color="#FFE580"/>
</linearGradient>
</defs>
</svg>
