<svg width="215" height="128" viewBox="0 0 215 128" fill="none" xmlns="http://www.w3.org/2000/svg">
<path opacity="0.25" d="M123.148 -22.9307C124.735 -21.6151 124.735 -19.4848 123.148 -18.1767C121.562 -16.8611 118.993 -16.8611 117.416 -18.1767C115.829 -19.4922 115.829 -21.6226 117.416 -22.9307C119.002 -24.2463 121.562 -24.2463 123.148 -22.9307ZM114.225 -56.2312C108.772 -51.7089 108.772 -44.3686 114.225 -39.8463C119.678 -35.324 128.529 -35.324 133.982 -39.8463C139.436 -44.3686 139.436 -51.7089 133.982 -56.2312C128.529 -60.7535 119.687 -60.761 114.225 -56.2312ZM214.842 -90.3315C209.569 -83.1033 205.495 -75.7929 190.659 -72.4442C170.766 -67.9593 150.675 -75.8154 130.819 -74.8511C66.1292 -71.6967 119.372 -18.1767 92.6828 7.4098C71.0866 28.1226 35.6187 16.0732 20.5032 43.7302C11.1562 60.8252 10.2819 79.2881 -1.8682 95.8823C-12.9908 111.071 -28.0793 125.229 -50 127.755V108.53C-49.6845 108.545 -49.36 108.552 -49.0536 108.552C-41.969 108.575 -35.6776 105.233 -30.5129 101.511C-22.2746 95.5758 -15.1721 88.4074 -8.95277 80.9924C-5.81609 77.2549 -2.9408 73.5623 -1.34542 69.1671C-0.624348 67.1788 2.28699 56.8934 1.03413 54.038C-0.209728 51.2125 -3.85117 49.4036 -7.42049 50.0987C-14.6943 51.5115 -13.6668 59.3975 -15.9833 63.86C-19.6968 71.0209 -27.4844 76.3953 -36.1914 79.0564C-40.8604 80.4841 -45.6375 81.5605 -49.991 83.3245V-90.3315H169.982C161.735 -88.104 153.1 -86.5268 144.528 -85.9886C142.32 -85.8541 142.23 -83.3052 143.987 -82.8492C146.169 -81.5561 148.638 -81.4888 151.216 -80.9655C153.019 -80.5993 170.226 -77.8186 176.382 -77.5271C184.007 -77.1608 193.228 -78.1326 199.114 -82.5054C201.241 -84.09 203.17 -86.0185 203.062 -88.5226C203.034 -89.1356 202.89 -89.741 202.683 -90.3315H214.842ZM10.6244 33.9605C8.96596 29.6251 3.47677 28.0927 -1.03897 30.5744C-2.98587 31.6433 -4.70743 33.3177 -4.83362 35.306C-4.95981 35.4854 -5.06798 35.6797 -5.14009 35.8965C-6.75349 40.3366 -1.02094 43.3863 3.73816 43.035C9.22735 42.6239 12.2559 38.2287 10.6244 33.9605Z" fill="white"/>
</svg>
