<svg width="297" height="150" viewBox="0 0 297 150" fill="none" xmlns="http://www.w3.org/2000/svg">
<path opacity="0.25" d="M347.421 -22.6377C343.685 -19.9339 339.643 -17.4644 335.011 -15.3463C323.933 -10.2902 310.109 -10.2902 299.031 -4.76549C266.951 11.2228 267.116 40.0077 255.024 65.8642C236.015 106.509 202.921 99.0317 158.644 102.712C124.408 105.552 85.0214 119.705 84.7385 153.185C84.5617 175.03 114.131 189.496 91.3029 205.533C78.4805 214.542 55.6877 208.949 40.9797 213C20.6501 218.593 9.41867 228.92 0.473633 241.16L347.397 240.574L347.421 -22.6377ZM271.323 46.4791C272.867 43.463 273.81 40.2712 275.354 37.2453C276.768 34.483 278.324 31.7695 279.667 28.9779C282.343 23.4044 285.159 18.1043 289.602 13.3214C295.448 7.02565 304.204 -1.55417 314.811 -0.626888C315.377 -0.578083 315.884 -0.0217266 315.895 0.427275C315.907 3.8631 311.994 6.24478 309.19 8.31408C304.44 11.8085 299.773 15.4981 295.365 19.2853C290.321 23.6289 286.137 28.2751 283.509 33.9266C282.307 36.5035 281.364 39.1975 279.962 41.7061C278.548 44.2341 276.438 46.0789 274.058 48.0311C273.445 48.5289 272.655 48.4313 272.137 48.0701C271.488 47.8261 270.958 47.1917 271.323 46.4791ZM193.128 113.429C195.391 110.774 200.953 109.847 204.383 111.33C205.502 111.809 206.469 112.629 207.082 113.595C208.838 115.332 208.425 117.948 206.174 119.305C203.805 120.74 199.963 121.287 197.158 120.564C193.505 119.617 190.535 116.465 193.128 113.429ZM100.012 158.075C96.4295 151.926 98.0441 144.625 103.018 139.364C106.306 135.879 110.619 132.717 114.532 129.7C118.02 127.016 121.733 124.517 125.74 122.37C133.494 118.212 142.215 115.323 151.349 114.103C160.895 112.824 170.618 113.663 180.188 114.21C181.142 114.268 181.908 114.571 182.486 115.02C185.868 116.533 185.09 120.154 182.509 122.048C179.268 124.42 174.743 124.488 170.818 125.581C166.328 126.831 162.227 129.056 158.491 131.448C149.982 136.894 143.087 143.981 136.04 150.647C130.795 155.606 125.174 162.077 117.455 164.527C110.336 166.772 103.194 163.541 100.012 158.075ZM75.8877 189.3C70.1365 194.064 60.8026 194.064 55.0513 189.3C49.3001 184.537 49.3001 176.806 55.0513 172.043C60.8026 167.28 70.1365 167.28 75.8877 172.043C81.639 176.806 81.639 184.537 75.8877 189.3ZM226.716 76.7964C214.059 87.2796 193.54 87.2796 180.883 76.7964C168.226 66.3132 168.226 49.3195 180.883 38.8364C193.54 28.3532 214.059 28.3532 226.716 38.8364C239.373 49.3195 239.373 66.3132 226.716 76.7964ZM252.974 30.2077C248.366 34.0242 240.905 34.0242 236.309 30.2077C231.701 26.3912 231.701 20.2126 236.309 16.4058C240.917 12.5893 248.377 12.5893 252.974 16.4058C257.57 20.2126 257.57 26.401 252.974 30.2077Z" fill="white"/>
</svg>
