<svg width="32" height="32" viewBox="0 0 32 32" fill="none" xmlns="http://www.w3.org/2000/svg">
<path fill-rule="evenodd" clip-rule="evenodd" d="M14.6371 29.2004C15.0539 29.4311 15.5238 29.5486 16.0001 29.5411C16.4671 29.5438 16.9271 29.4265 17.3358 29.2004L17.7446 28.9687C20.9346 27.1703 23.5896 24.557 25.4383 21.396C27.2871 18.2349 28.2631 14.6396 28.2666 10.9777V10.7869C28.2709 10.3043 28.147 9.82913 27.9076 9.41007C27.6681 8.99101 27.3217 8.64304 26.9037 8.40173L17.363 3.03171C16.9486 2.79246 16.4786 2.6665 16.0001 2.6665C15.5216 2.6665 15.0515 2.79246 14.6371 3.03171L5.09646 8.40173C4.67846 8.64304 4.33202 8.99101 4.09255 9.41007C3.85309 9.82913 3.72919 10.3043 3.73351 10.7869V10.9777C3.73431 14.6369 4.70623 18.2304 6.55001 21.3912C8.39379 24.552 11.0434 27.1668 14.2282 28.9687L14.6371 29.2004ZM15.6877 17.4382C15.6877 17.4382 12.2731 22.5797 12.4431 22.6878C12.6123 22.7959 19.6319 17.3952 19.5655 16.9646C19.5 16.534 16.1682 15.2171 16.1682 15.2171C16.1682 15.2171 19.5764 10.098 19.4137 9.96759C19.2502 9.8371 12.1643 15.2788 12.2905 15.6908C12.4157 16.1027 15.6877 17.4382 15.6877 17.4382Z" fill="url(#paint0_linear_1399_743)"/>
<defs>
<linearGradient id="paint0_linear_1399_743" x1="28.2667" y1="29.5414" x2="-1.30797" y2="21.7136" gradientUnits="userSpaceOnUse">
<stop stop-color="#335EF7"/>
<stop offset="1" stop-color="#5F82FF"/>
</linearGradient>
</defs>
</svg>
