   <svg width="20" height="21" viewBox="0 0 20 21" fill="none" xmlns="http://www.w3.org/2000/svg">
<path fill-rule="evenodd" clip-rule="evenodd" d="M8.16972 12.9105C8.69011 13.2633 9.32434 13.4766 9.99923 13.4766C11.7881 13.4766 13.2436 12.008 13.2436 10.2031C13.2436 9.52216 13.0321 8.88223 12.6825 8.35716L11.7962 9.25142C11.9426 9.53036 12.0239 9.85853 12.0239 10.2031C12.0239 11.3271 11.1132 12.246 9.99923 12.246C9.65772 12.246 9.33247 12.1639 9.05601 12.0162L8.16972 12.9105ZM15.3577 5.65796C16.5367 6.74092 17.5368 8.20128 18.2849 9.95698C18.3499 10.1129 18.3499 10.2934 18.2849 10.441C16.5448 14.5267 13.4468 16.9716 9.99923 16.9716H9.9911C8.42178 16.9716 6.91752 16.4547 5.59214 15.5113L4.0147 17.1029C3.89273 17.2259 3.73824 17.2834 3.58375 17.2834C3.42926 17.2834 3.26663 17.2259 3.1528 17.1029C2.94952 16.8978 2.91699 16.5696 3.07962 16.3317L3.10401 16.2989L15.13 4.16479C15.1462 4.14838 15.1625 4.13197 15.1706 4.11557C15.1869 4.09916 15.2032 4.08275 15.2113 4.06634L15.9756 3.29514C16.2196 3.05722 16.6017 3.05722 16.8375 3.29514C17.0815 3.53306 17.0815 3.92687 16.8375 4.16479L15.3577 5.65796ZM6.74896 10.2063C6.74896 10.4196 6.77336 10.6329 6.80588 10.8298L3.79735 13.8654C2.98424 12.9137 2.27683 11.7651 1.71578 10.4442C1.65073 10.2966 1.65073 10.1161 1.71578 9.96018C3.45585 5.87447 6.55381 3.43781 9.99329 3.43781H10.0014C11.1642 3.43781 12.2944 3.71676 13.3352 4.24183L10.6194 6.98204C10.4242 6.94923 10.2128 6.92461 10.0014 6.92461C8.20444 6.92461 6.74896 8.39317 6.74896 10.2063Z" fill="#9E9E9E"/>
</svg>