<svg width="20" height="21" viewBox="0 0 20 21" fill="none" xmlns="http://www.w3.org/2000/svg">
<path fill-rule="evenodd" clip-rule="evenodd" d="M14.6026 6.36337V7.64115C16.0379 8.08916 17.0837 9.38848 17.0837 10.9404V15.0545C17.0837 16.9757 15.4909 18.5334 13.5272 18.5334H6.47432C4.50979 18.5334 2.91699 16.9757 2.91699 15.0545V10.9404C2.91699 9.38848 3.96362 8.08916 5.39806 7.64115V6.36337C5.40653 3.87902 7.46421 1.8667 9.98763 1.8667C12.5449 1.8667 14.6026 3.87902 14.6026 6.36337ZM10.0046 3.3159C11.7235 3.3159 13.1207 4.68229 13.1207 6.36337V7.46145H6.87993V6.34681C6.8884 4.67401 8.28559 3.3159 10.0046 3.3159ZM10.7413 13.9125C10.7413 14.3183 10.411 14.6412 9.99609 14.6412C9.58964 14.6412 9.25939 14.3183 9.25939 13.9125V12.0741C9.25939 11.6766 9.58964 11.3536 9.99609 11.3536C10.411 11.3536 10.7413 11.6766 10.7413 12.0741V13.9125Z" fill="#9E9E9E"/>
</svg>
