<svg width="220" height="219" viewBox="0 0 220 219" fill="none" xmlns="http://www.w3.org/2000/svg">
<path d="M9.50328 98.8057C4.56493 98.3048 0.116852 101.905 0.0205994 106.868C-0.341095 125.518 4.0466 144.007 12.8378 160.57C23.0374 179.787 38.7065 195.548 57.8635 205.86C77.0205 216.171 98.8051 220.571 120.462 218.501C142.12 216.432 162.677 207.987 179.535 194.234C196.393 180.482 208.794 162.039 215.17 141.238C221.546 120.438 221.611 98.2135 215.356 77.376C209.102 56.5385 196.808 38.0237 180.031 24.1728C165.571 12.2347 148.339 4.22348 129.996 0.832712C125.115 -0.0695761 120.695 3.56493 120.194 8.50327C119.693 13.4416 123.305 17.8067 128.171 18.7868C142.976 21.7689 156.87 28.3605 168.587 38.0344C182.623 49.6219 192.907 65.1112 198.14 82.5437C203.372 99.9761 203.318 118.569 197.984 135.97C192.65 153.372 182.275 168.801 168.172 180.306C154.069 191.812 136.871 198.877 118.753 200.608C100.634 202.339 82.4097 198.658 66.3831 190.032C50.3565 181.405 37.248 168.22 28.715 152.143C21.5913 138.721 17.9238 123.788 17.9756 108.685C17.9926 103.721 14.4416 99.3067 9.50328 98.8057Z" fill="url(#paint0_linear_1371_10221)"/>
<defs>
<linearGradient id="paint0_linear_1371_10221" x1="-6.55651e-06" y1="219" x2="261.78" y2="143.099" gradientUnits="userSpaceOnUse">
<stop stop-color="#FB9400"/>
<stop offset="1" stop-color="#FFAB38"/>
</linearGradient>
</defs>
</svg>
