<svg width="60" height="65" viewBox="0 0 60 65" fill="none" xmlns="http://www.w3.org/2000/svg">
<path d="M59.9865 35.0155V35.1049C59.9865 39.2801 59.1092 43.2496 57.5306 46.84L57.6037 46.6532C52.941 57.5138 42.3404 64.9789 29.9933 64.9789C17.6462 64.9789 7.04559 57.511 2.45875 46.8481L2.38293 46.6532C0.7982 43.0101 -0.0131679 39.0777 0.000161609 35.1049V34.918C0.000161609 25.1839 4.68177 16.5463 11.914 11.1282L11.9925 11.0741C12.5198 10.6646 13.125 10.3669 13.7712 10.1993C14.4174 10.0317 15.091 9.99768 15.7508 10.0993L15.7238 10.0966C17.0803 10.2563 18.2392 10.9847 18.973 12.0326L18.9838 12.0461C19.393 12.5636 19.6892 13.161 19.8533 13.7999C20.0175 14.4388 20.046 15.1051 19.9369 15.7557L19.9396 15.7286C19.8575 16.3779 19.6451 17.004 19.3153 17.5693C18.9854 18.1346 18.5448 18.6275 18.0199 19.0184L18.0063 19.0266C15.5106 20.8909 13.4843 23.3119 12.0887 26.097C10.6931 28.8821 9.96666 31.9545 9.96719 35.0697C9.96766 38.4823 10.8401 41.8383 12.5018 44.8191C14.1634 47.7999 16.5591 50.3067 19.4616 52.1016C22.3642 53.8966 25.6772 54.9201 29.0863 55.0751C32.4954 55.2301 35.8877 54.5114 38.9411 52.9873C41.9945 51.4632 44.6078 49.1841 46.5331 46.3664C48.4584 43.5487 49.6318 40.2858 49.942 36.8872C50.2521 33.4887 49.6887 30.0672 48.3053 26.9475C46.9219 23.8279 44.7642 21.1134 42.0371 19.0618L41.9857 19.0239C41.4615 18.6349 41.0206 18.1448 40.689 17.5825C40.3574 17.0202 40.1419 16.3972 40.0551 15.7502L40.0524 15.7259C39.9478 15.0775 39.9794 14.4144 40.1454 13.779C40.3114 13.1435 40.608 12.5497 41.0163 12.0353L41.0082 12.0461C41.3829 11.5099 41.8668 11.0592 42.4283 10.7237C42.9897 10.3881 43.6159 10.1753 44.2656 10.0993L44.2872 10.0966C44.9422 9.99609 45.6109 10.0318 46.2515 10.2013C46.8921 10.3709 47.4908 10.6708 48.0103 11.0822L47.9995 11.0741C55.3157 16.5463 60 25.1893 60 34.9262V35.0182V35.0128L59.9865 35.0155ZM34.9944 30.1173C34.9944 31.4429 34.4678 32.7143 33.5304 33.6517C32.593 34.5891 31.3217 35.1157 29.996 35.1157C28.6704 35.1157 27.399 34.5891 26.4616 33.6517C25.5242 32.7143 24.9976 31.4429 24.9976 30.1173V30.009V30.0144V4.97903C24.9976 3.61435 25.5662 2.38235 26.4787 1.50777L26.4814 1.50506C27.3723 0.589856 28.6178 0.0212402 29.996 0.0212402C31.3742 0.0212402 32.6198 0.589856 33.5106 1.50506C34.4258 2.38235 34.9944 3.61165 34.9944 4.97632V30.1173Z" fill="url(#paint0_linear_1371_10217)"/>
<defs>
<linearGradient id="paint0_linear_1371_10217" x1="60" y1="64.9789" x2="-12.2168" y2="45.6383" gradientUnits="userSpaceOnUse">
<stop stop-color="#FB9400"/>
<stop offset="1" stop-color="#FFAB38"/>
</linearGradient>
</defs>
</svg>
